<?xml version="1.0" ?>
<!-- Uploaded to: SVG Repo, www.svgrepo.com, Generator: SVG Repo Mixer Tools -->
<svg fill="#000000" width="800px" height="800px" viewBox="0 0 32 32" id="Camada_1" version="1.1" xml:space="preserve" xmlns="http://www.w3.org/2000/svg" xmlns:xlink="http://www.w3.org/1999/xlink">
<g>
<path d="M2,6h15.9v20C17.6,26,3.3,26,2,26V6z M3.5,11.4h7.9l-3.1,5.5v7.5h4.9V17l3.2-5.8l0-3.5H3.5V11.4L3.5,11.4z"/>
<path d="M30,17.9c-0.1,0.1-0.3,0.2-0.4,0.3c-0.7,0.7-1.4,1.5-2.2,2.2c-0.9,0.8-1.7,1.7-2.6,2.6c-0.1,0.1-0.2,0.1-0.3,0.2H30V26   h-7.8v-4.1c0.3-0.3,0.5-0.6,0.8-0.8c0.9-0.8,1.8-1.8,2.7-2.7c0.6-0.5,1.1-1.1,1.6-1.6c0,0,0,0,0,0c0,0,0,0,0,0c-1.7,0-3.4,0-5.1,0   v-3c0.3,0,6.6-0.1,7.8,0L30,17.9L30,17.9z"/>
</g>
</svg>