<svg version="1.1" id="Layer_1" xmlns="http://www.w3.org/2000/svg" xmlns:xlink="http://www.w3.org/1999/xlink" x="0px" y="0px"
	 width="100%" viewBox="0 0 128 128" enable-background="new 0 0 128 128" xml:space="preserve">
<path fill="#0BA1D2" opacity="1.000000" stroke="none" 
	d="
M73.000000,129.000000 
	C48.666668,129.000000 24.833334,129.000000 1.000000,129.000000 
	C1.000000,86.333336 1.000000,43.666668 1.000000,1.000000 
	C43.666668,1.000000 86.333336,1.000000 129.000000,1.000000 
	C129.000000,43.666668 129.000000,86.333336 129.000000,129.000000 
	C110.500000,129.000000 92.000000,129.000000 73.000000,129.000000 
M84.730827,41.949783 
	C84.846954,41.584282 84.963081,41.218781 85.278961,40.539909 
	C85.431984,40.341282 85.614967,40.175785 86.496635,39.765053 
	C86.346840,38.493492 86.197044,37.221935 86.002197,35.990513 
	C86.002197,35.990513 86.058296,36.012733 86.076675,35.274887 
	C85.742126,34.357288 85.407570,33.439686 85.144791,32.334042 
	C85.144791,32.334042 85.040009,32.162193 85.081734,31.445599 
	C84.831955,30.544374 84.582184,29.643150 84.265762,27.975471 
	C83.518295,25.320015 82.770828,22.664558 81.991905,19.184429 
	C80.578148,18.461599 79.181038,17.154778 77.747841,17.113920 
	C70.326927,16.902369 62.896801,17.013929 55.469883,17.013697 
	C45.649067,17.013388 45.649067,17.013723 43.596645,27.626942 
	C42.979275,30.062233 42.361904,32.497524 41.371117,35.471352 
	C41.063690,36.955406 40.756264,38.439461 41.107140,40.735455 
	C41.396137,40.929665 41.685135,41.123875 41.895027,42.476841 
	C39.926983,42.578789 37.958942,42.680737 35.285164,42.789703 
	C34.391247,43.041653 33.497326,43.293606 31.860128,43.605793 
	C29.546595,44.220062 27.233061,44.834328 24.222944,45.515186 
	C23.112331,45.829758 22.001719,46.144329 20.030188,46.593945 
	C17.188759,46.749691 16.722000,48.462322 16.762104,50.967911 
	C16.889399,58.920601 17.200926,66.902489 16.678530,74.822784 
	C16.292515,80.675354 17.654829,84.336189 24.703573,85.000397 
	C25.415386,85.136772 26.127199,85.273148 26.754478,85.742424 
	C26.754478,85.742424 26.933901,86.035393 26.651550,86.653191 
	C21.266989,93.536415 21.367939,101.113892 24.288300,108.782852 
	C26.122368,113.599167 29.002045,114.602478 34.824806,112.964127 
	C40.570095,107.345024 41.671799,98.602966 38.383316,89.032997 
	C39.381596,87.991699 40.379875,86.950401 41.975918,85.527153 
	C45.046745,82.356430 48.117573,79.185707 51.728992,75.778687 
	C52.505711,74.888588 53.282429,73.998482 54.570362,72.902298 
	C54.771835,72.601631 54.973309,72.300972 55.675209,71.809563 
	C56.118034,71.263664 56.560860,70.717773 57.595581,69.887062 
	C58.672520,68.593666 59.749458,67.300270 61.040253,65.496658 
	C61.317142,65.042618 61.594032,64.588585 62.456795,63.890526 
	C63.320976,63.331604 64.185158,62.772678 65.580124,61.929417 
	C66.103699,61.337685 66.627281,60.745953 67.573296,59.921108 
	C67.843399,59.725815 68.036438,59.471924 68.581726,59.065922 
	C68.581726,59.065922 69.015228,58.987366 69.419937,59.441902 
	C69.634064,60.006420 69.848190,60.570938 69.740326,61.718353 
	C68.778923,62.799004 67.817528,63.879650 66.307892,65.576546 
	C68.798973,67.807625 71.106941,69.874718 73.660797,72.465446 
	C74.611389,73.401993 75.561981,74.338547 76.822708,75.881607 
	C78.862839,77.983864 80.902969,80.086121 83.221764,82.752647 
	C83.836617,83.821671 84.451477,84.890694 84.704613,86.416977 
	C83.687256,86.550751 82.669907,86.684532 81.787231,86.800598 
	C81.918076,87.776047 82.047440,88.740524 81.571136,90.226631 
	C81.571136,97.884438 81.571136,105.542244 81.571136,113.450493 
	C84.011169,113.450493 86.359192,113.450493 87.991089,113.450493 
	C87.991089,108.655792 88.111633,104.233543 87.952026,99.821442 
	C87.829666,96.438759 87.353790,93.068855 86.728020,89.170738 
	C88.129860,88.607674 89.531708,88.044617 91.508003,87.442879 
	C92.383278,87.087357 93.258545,86.731842 94.863144,86.323868 
	C96.234810,85.873390 97.606468,85.422920 99.713112,84.997627 
	C101.125755,84.644737 102.538391,84.291847 104.722992,83.919716 
	C109.590553,83.432686 111.326645,80.809639 111.103844,75.917267 
	C110.759148,68.348770 110.774345,60.742729 111.100975,53.172630 
	C111.301605,48.522846 109.891792,46.269474 104.624939,46.863430 
	C104.624939,46.863430 104.203850,46.861061 103.900223,46.293541 
	C102.593994,46.147423 101.287758,46.001308 99.920700,45.870716 
	C99.920700,45.870716 99.930290,45.932751 99.342781,45.753628 
	C98.561722,45.496082 97.780663,45.238537 96.371437,44.676594 
	C95.242279,44.451092 94.113113,44.225590 92.369087,43.722282 
	C90.968330,43.837894 89.567581,43.953506 87.613754,44.420017 
	C86.287483,45.849628 84.961212,47.279240 83.108803,48.954414 
	C82.611412,49.531364 82.114021,50.108318 81.105019,50.930187 
	C80.313263,51.444172 79.521507,51.958157 77.445763,52.037682 
	C77.013245,51.906990 76.580734,51.776295 76.510460,51.110764 
	C76.855675,50.572922 77.200882,50.035080 78.093842,49.152645 
	C79.480225,47.538319 80.866608,45.923992 82.264847,44.240398 
	C82.264847,44.240398 82.196526,44.223919 82.714622,44.087170 
	C82.883308,43.786812 83.051994,43.486458 83.065826,43.098293 
	C83.065826,43.098293 83.194153,43.221676 83.713173,43.086372 
	C83.881577,42.785610 84.049973,42.484848 84.189934,42.028984 
	C84.189934,42.028984 84.186661,42.186031 84.730827,41.949783 
M46.005573,89.791786 
	C44.766167,89.910721 43.526756,90.029663 42.623741,90.116318 
	C42.623741,98.161331 42.623741,105.767365 42.623741,113.756828 
	C44.548115,113.756828 46.518555,113.866272 48.447632,113.633255 
	C48.722019,113.600113 48.795609,111.904640 48.928452,110.053246 
	C48.928452,105.274750 48.928452,100.496262 48.928452,95.238602 
	C53.835999,97.883705 53.215717,93.891251 54.776443,92.041061 
	C54.776443,99.199104 54.776443,106.357140 54.776443,113.589653 
	C57.513920,113.589653 59.747150,113.589653 61.730812,113.589653 
	C61.730812,105.640617 61.730812,97.963074 61.730812,88.571800 
	C58.489582,89.868225 56.270771,90.755699 53.398109,91.411446 
	C52.114601,91.075119 50.838509,90.705948 49.545033,90.413750 
	C48.645565,90.210541 47.722206,90.113075 46.005573,89.791786 
M69.071220,90.115723 
	C63.273216,94.352776 62.604259,98.990921 66.768547,105.551758 
	C63.597649,107.568893 63.890358,109.767784 65.288734,113.105606 
	C67.000305,117.191017 70.262238,115.407494 72.774162,116.138512 
	C74.549507,116.655174 76.834442,116.676910 78.456848,115.949409 
	C79.307419,115.568008 80.005295,112.416779 79.394592,111.714783 
	C78.147308,110.281036 76.059303,109.348976 74.148003,108.786865 
	C72.215546,108.218521 70.078102,108.347153 68.030457,108.170464 
	C68.060448,107.779228 68.090439,107.387985 68.120430,106.996750 
	C69.050697,106.887337 69.980957,106.777924 71.479492,106.839035 
	C71.672905,106.797745 71.866310,106.756454 72.645386,106.855606 
	C73.362015,106.560516 74.078644,106.265419 75.483299,105.797722 
	C80.556313,100.988007 80.731186,96.234749 76.122147,90.330841 
	C76.473907,88.755577 76.825676,87.180313 77.177437,85.605049 
	C76.087395,85.458832 74.335106,84.845016 74.041359,85.261047 
	C73.372841,86.207840 73.420372,87.660217 73.168373,88.950829 
	C72.177803,89.246506 70.954468,89.611664 69.071220,90.115723 
M103.100418,89.756500 
	C99.051865,89.756500 95.003311,89.756500 91.113297,89.756500 
	C91.113297,98.063889 91.113297,105.729820 91.113297,113.370743 
	C93.533348,113.370743 95.722565,113.370743 97.908226,113.370743 
	C97.097549,106.486771 96.785614,100.049744 98.925491,93.704666 
	C100.053802,98.560410 100.040916,103.401245 100.057083,108.241982 
	C100.076912,114.175934 100.435410,114.444534 105.823586,113.225464 
	C105.823586,107.326088 105.988808,101.542839 105.731552,95.778435 
	C105.644699,93.832352 104.487053,91.934059 103.100418,89.756500 
z"/>
<path fill="#E5A109" opacity="1.000000" stroke="none" 
	d="
M103.459595,89.885216 
	C104.487053,91.934059 105.644699,93.832352 105.731552,95.778435 
	C105.988808,101.542839 105.823586,107.326088 105.823586,113.225464 
	C100.435410,114.444534 100.076912,114.175934 100.057083,108.241982 
	C100.040916,103.401245 100.053802,98.560410 98.925491,93.704666 
	C96.785614,100.049744 97.097549,106.486771 97.908226,113.370743 
	C95.722565,113.370743 93.533348,113.370743 91.113297,113.370743 
	C91.113297,105.729820 91.113297,98.063889 91.113297,89.756500 
	C95.003311,89.756500 99.051865,89.756500 103.459595,89.885216 
z"/>
<path fill="#016FBB" opacity="1.000000" stroke="none" 
	d="
M105.043877,46.906055 
	C109.891792,46.269474 111.301605,48.522846 111.100975,53.172630 
	C110.774345,60.742729 110.759148,68.348770 111.103844,75.917267 
	C111.326645,80.809639 109.590553,83.432686 104.351295,83.500443 
	C103.978020,81.354111 103.976440,79.627068 103.994003,77.543503 
	C103.995010,76.471573 103.976868,75.756172 104.120041,74.686615 
	C104.317024,72.729263 104.344078,71.125809 104.389839,69.522888 
	C104.605042,61.983860 104.825371,54.444984 105.043877,46.906055 
z"/>
<path fill="#451A09" opacity="1.000000" stroke="none" 
	d="
M51.188404,76.014992 
	C48.117573,79.185707 45.046745,82.356430 41.600090,85.256821 
	C40.784847,82.608643 40.345432,80.230804 40.073326,77.589233 
	C40.479836,76.593330 40.719036,75.861176 40.867180,74.802750 
	C39.837898,73.985428 38.899677,73.494377 37.960144,72.800262 
	C37.958832,72.597214 37.952389,72.191154 38.316372,72.113388 
	C41.795330,71.548447 43.127579,69.351952 42.290169,66.713005 
	C41.725819,64.934555 39.611122,63.676037 38.300289,62.093548 
	C37.728947,61.403809 37.434059,60.485077 37.378166,59.767151 
	C38.491085,59.840187 39.239456,59.816418 40.297771,59.867783 
	C41.011982,59.616055 41.416248,59.289196 41.897720,58.602619 
	C41.933735,57.509644 41.892544,56.776382 42.175613,55.932190 
	C43.015568,53.174118 43.531261,50.526989 44.330933,48.003670 
	C45.425800,49.045986 46.236698,49.964485 46.889435,51.255928 
	C46.514893,52.414017 46.101879,53.202030 46.113277,53.983849 
	C46.203266,60.156342 46.234444,66.337608 46.672539,72.488487 
	C46.737484,73.400253 48.840652,74.166847 50.173843,75.197342 
	C50.627365,75.601044 50.907883,75.808022 51.188404,76.014992 
z"/>
<path fill="#DD9D0B" opacity="1.000000" stroke="none" 
	d="
M34.151131,113.108810 
	C29.002045,114.602478 26.122368,113.599167 24.288300,108.782852 
	C21.367939,101.113892 21.266989,93.536415 27.149275,86.278015 
	C29.058960,85.684662 30.470921,85.466492 31.910637,85.460510 
	C31.938391,85.672699 31.977863,86.098862 31.994535,86.301834 
	C32.011208,86.504807 32.021488,86.911987 31.587528,86.964767 
	C30.737793,87.469147 29.966484,87.915260 29.959410,88.373184 
	C29.847878,95.592705 29.773605,102.814796 29.896225,110.032799 
	C29.908066,110.729759 31.280956,111.403587 32.255619,112.274048 
	C33.043179,112.676239 33.597157,112.892525 34.151131,113.108810 
z"/>
<path fill="#CF9E17" opacity="1.000000" stroke="none" 
	d="
M54.051964,91.643173 
	C56.270771,90.755699 58.489582,89.868225 61.730812,88.571800 
	C61.730812,97.963074 61.730812,105.640617 61.730812,113.589653 
	C59.747150,113.589653 57.513920,113.589653 54.776443,113.589653 
	C54.776443,106.357140 54.776443,99.199104 54.378708,91.819244 
	C53.980972,91.597420 54.051964,91.643173 54.051964,91.643173 
z"/>
<path fill="#E4A007" opacity="1.000000" stroke="none" 
	d="
M66.947601,104.839661 
	C62.604259,98.990921 63.273216,94.352776 69.815048,90.091492 
	C72.381294,90.392570 74.203697,90.717880 76.026108,91.043190 
	C80.731186,96.234749 80.556313,100.988007 74.845482,105.864906 
	C73.491684,106.193115 72.775703,106.454132 72.059723,106.715157 
	C71.866310,106.756454 71.672905,106.797745 70.956261,106.564125 
	C69.271225,105.806030 68.109413,105.322845 66.947601,104.839661 
M70.331276,100.947258 
	C70.657143,102.132347 70.983002,103.317436 71.308868,104.502525 
	C71.667175,104.404388 72.025475,104.306259 72.383781,104.208122 
	C72.383781,100.176369 72.383781,96.144623 72.383781,92.112869 
	C71.699013,92.110497 71.014236,92.108124 70.329468,92.105751 
	C70.329468,94.772469 70.329468,97.439194 70.331276,100.947258 
z"/>
<path fill="#08416A" opacity="1.000000" stroke="none" 
	d="
M83.634941,48.708847 
	C84.961212,47.279240 86.287483,45.849628 88.197510,44.309052 
	C89.324860,45.337933 90.113228,46.427879 90.358032,47.628643 
	C90.787323,49.734249 90.883408,51.907795 91.068436,54.424839 
	C90.831360,60.424778 90.644913,66.052757 90.456924,71.727036 
	C93.030350,71.727036 94.436653,71.727036 95.858948,71.727036 
	C95.983818,70.322670 96.085381,69.180466 96.481644,68.036644 
	C97.168259,68.052292 97.560165,68.069572 97.940247,68.461166 
	C97.032272,70.209946 96.068100,71.546112 95.264664,72.972794 
	C94.758469,73.871666 94.492874,74.906044 93.975250,76.104553 
	C92.524055,76.568710 91.216965,76.807945 89.545311,77.042801 
	C88.451141,77.029434 87.721535,77.020462 86.757584,76.793610 
	C85.676704,75.710457 84.830162,74.845177 84.280594,73.786850 
	C87.718742,69.204178 87.872314,54.250748 84.791191,49.629601 
	C84.530914,49.239239 84.026131,49.011913 83.634941,48.708847 
z"/>
<path fill="#04983D" opacity="1.000000" stroke="none" 
	d="
M82.023354,20.009102 
	C82.770828,22.664558 83.518295,25.320015 84.194969,28.435625 
	C84.124176,28.895779 83.917770,29.047657 83.673599,28.775398 
	C79.975449,23.956711 75.057404,26.802588 70.590363,25.896988 
	C69.776146,25.224209 69.230812,24.668022 68.628418,23.945210 
	C68.353096,23.598717 68.136894,23.601139 67.550385,23.616219 
	C65.819244,23.397549 64.460449,23.348513 62.742950,23.202259 
	C61.899109,23.195311 61.413975,23.285580 60.574951,23.304043 
	C59.499855,23.248346 58.778641,23.264454 57.774948,23.189590 
	C57.121006,23.446842 56.749546,23.795071 56.280033,24.364288 
	C56.181980,24.585279 55.941345,25.004681 55.490807,25.002544 
	C52.023338,24.995955 49.006413,24.991505 46.018578,24.601406 
	C47.105652,23.167036 48.021740,21.460701 49.248867,21.195929 
	C52.599602,20.472946 56.076649,20.121445 59.512478,20.050663 
	C67.013199,19.896133 74.519394,20.006790 82.023354,20.009102 
z"/>
<path fill="#ECA506" opacity="1.000000" stroke="none" 
	d="
M34.487968,113.036469 
	C33.597157,112.892525 33.043179,112.676239 32.452431,111.902237 
	C32.284271,103.200340 32.152882,95.056160 32.021488,86.911987 
	C32.021488,86.911987 32.011208,86.504807 32.351250,86.260712 
	C34.392673,87.141777 36.094051,88.266953 37.795429,89.392128 
	C41.671799,98.602966 40.570095,107.345024 34.487968,113.036469 
z"/>
<path fill="#9C3202" opacity="1.000000" stroke="none" 
	d="
M23.997858,84.833488 
	C17.654829,84.336189 16.292515,80.675354 16.678530,74.822784 
	C17.200926,66.902489 16.889399,58.920601 16.762104,50.967911 
	C16.722000,48.462322 17.188759,46.749691 20.482477,47.024284 
	C20.957447,54.563824 20.822144,61.678177 21.053900,68.780556 
	C21.232193,74.244514 19.365602,80.161125 23.997858,84.833488 
z"/>
<path fill="#D99B0B" opacity="1.000000" stroke="none" 
	d="
M87.035141,89.693268 
	C87.353790,93.068855 87.829666,96.438759 87.952026,99.821442 
	C88.111633,104.233543 87.991089,108.655792 87.991089,113.450493 
	C86.359192,113.450493 84.011169,113.450493 81.571136,113.450493 
	C81.571136,105.542244 81.571136,97.884438 82.270149,90.015465 
	C84.324486,89.767288 85.679817,89.730278 87.035141,89.693268 
z"/>
<path fill="#8F2D03" opacity="1.000000" stroke="none" 
	d="
M24.350716,84.916946 
	C19.365602,80.161125 21.232193,74.244514 21.053900,68.780556 
	C20.822144,61.678177 20.957447,54.563824 20.912937,46.956757 
	C22.001719,46.144329 23.112331,45.829758 24.588863,45.987820 
	C24.973890,54.560787 24.912100,62.662567 25.057085,70.760643 
	C25.106184,73.503067 25.678041,76.236130 26.010296,79.384720 
	C26.286060,81.667160 26.562536,83.538338 26.839012,85.409531 
	C26.127199,85.273148 25.415386,85.136772 24.350716,84.916946 
z"/>
<path fill="#03A442" opacity="1.000000" stroke="none" 
	d="
M82.007629,19.596766 
	C74.519394,20.006790 67.013199,19.896133 59.512478,20.050663 
	C56.076649,20.121445 52.599602,20.472946 49.248867,21.195929 
	C48.021740,21.460701 47.105652,23.167036 45.807060,24.793327 
	C45.040157,25.919714 44.513870,26.468533 43.987583,27.017349 
	C45.649067,17.013723 45.649067,17.013388 55.469883,17.013697 
	C62.896801,17.013929 70.326927,16.902369 77.747841,17.113920 
	C79.181038,17.154778 80.578148,18.461599 82.007629,19.596766 
z"/>
<path fill="#E39F07" opacity="1.000000" stroke="none" 
	d="
M48.962135,110.978546 
	C48.795609,111.904640 48.722019,113.600113 48.447632,113.633255 
	C46.518555,113.866272 44.548115,113.756828 42.623741,113.756828 
	C42.623741,105.767365 42.623741,98.161331 42.623741,90.116318 
	C43.526756,90.029663 44.766167,89.910721 46.490364,90.304932 
	C47.304482,95.183952 47.582405,99.554558 47.983688,103.913811 
	C48.201382,106.278702 48.629135,108.624268 48.962135,110.978546 
z"/>
<path fill="#843310" opacity="1.000000" stroke="none" 
	d="
M26.011005,78.973465 
	C25.678041,76.236130 25.106184,73.503067 25.057085,70.760643 
	C24.912100,62.662567 24.973890,54.560787 24.937153,45.954525 
	C27.233061,44.834328 29.546595,44.220062 32.340229,43.708260 
	C32.820332,43.810722 33.039429,44.073235 32.763329,44.274277 
	C28.572277,45.744152 27.506248,48.250797 28.963293,52.086079 
	C29.533291,53.586445 29.643822,55.261368 29.811768,57.190445 
	C26.774097,60.333466 27.282270,62.477283 31.055099,64.296539 
	C31.389416,65.178596 31.599491,65.769402 31.457260,66.365959 
	C25.463760,66.508766 27.202858,69.119133 28.994675,72.086609 
	C27.815018,74.546486 26.913010,76.759979 26.011005,78.973465 
z"/>
<path fill="#CE970F" opacity="1.000000" stroke="none" 
	d="
M66.858078,105.195709 
	C68.109413,105.322845 69.271225,105.806030 70.672127,106.478867 
	C69.980957,106.777924 69.050697,106.887337 68.120430,106.996750 
	C68.090439,107.387985 68.060448,107.779228 68.030457,108.170464 
	C70.078102,108.347153 72.215546,108.218521 74.148003,108.786865 
	C76.059303,109.348976 78.147308,110.281036 79.394592,111.714783 
	C80.005295,112.416779 79.307419,115.568008 78.456848,115.949409 
	C76.834442,116.676910 74.549507,116.655174 72.774162,116.138512 
	C70.262238,115.407494 67.000305,117.191017 65.288734,113.105606 
	C63.890358,109.767784 63.597649,107.568893 66.858078,105.195709 
z"/>
<path fill="#0362A4" opacity="1.000000" stroke="none" 
	d="
M104.834412,46.884743 
	C104.825371,54.444984 104.605042,61.983860 104.389839,69.522888 
	C104.344078,71.125809 104.317024,72.729263 103.869164,74.710297 
	C103.289932,75.108727 103.122887,75.129333 102.627518,75.098915 
	C101.859169,75.010361 101.419128,74.972832 100.948631,74.519646 
	C100.611023,70.978081 100.114868,67.856888 100.036568,64.725258 
	C99.880035,58.464119 99.952431,52.197254 99.930290,45.932751 
	C99.930290,45.932751 99.920700,45.870716 100.295898,45.969566 
	C101.848679,46.332626 103.026260,46.596844 104.203850,46.861061 
	C104.203850,46.861061 104.624939,46.863430 104.834412,46.884743 
z"/>
<path fill="#291006" opacity="1.000000" stroke="none" 
	d="
M61.870918,64.134544 
	C61.594032,64.588585 61.317142,65.042618 60.606266,65.824051 
	C59.116081,67.491585 58.059883,68.831726 57.003685,70.171875 
	C56.560860,70.717773 56.118034,71.263664 55.062489,71.895790 
	C53.967899,71.988487 53.486027,71.994957 52.751884,71.879532 
	C51.999638,71.504677 51.499664,71.251732 50.844170,70.635590 
	C51.143108,65.477524 51.597569,60.682652 52.355301,56.023651 
	C54.390270,57.477493 56.121967,58.795471 57.988686,60.401688 
	C59.372776,61.838135 60.621845,62.986340 61.870918,64.134544 
M52.771889,65.299332 
	C52.560818,65.395752 52.349751,65.492165 52.138680,65.588585 
	C52.389172,65.572334 52.639660,65.556076 52.771889,65.299332 
z"/>
<path fill="#055623" opacity="1.000000" stroke="none" 
	d="
M85.827919,40.043415 
	C85.614967,40.175785 85.431984,40.341282 84.969841,40.876778 
	C84.502701,41.537777 84.344681,41.861904 84.186661,42.186031 
	C84.186661,42.186031 84.189934,42.028984 83.960938,42.197414 
	C83.552673,42.651119 83.373413,42.936398 83.194153,43.221676 
	C83.194153,43.221676 83.065826,43.098293 82.900085,43.233196 
	C82.555077,43.653370 82.375801,43.938644 82.196526,44.223919 
	C82.196526,44.223919 82.264847,44.240398 81.897675,44.207794 
	C80.376198,44.454723 79.221886,44.734253 77.645241,45.016808 
	C75.273422,45.019390 73.323936,45.018948 71.172897,44.788380 
	C70.624123,44.378124 70.276909,44.197998 69.674431,44.061836 
	C69.076645,44.077427 68.734123,44.049057 68.365150,43.689045 
	C69.576828,41.217327 70.814957,39.077248 72.478500,36.953606 
	C77.201172,37.339966 81.498428,37.709892 85.827866,38.405823 
	C85.849335,39.169022 85.838631,39.606220 85.827919,40.043415 
z"/>
<path fill="#077534" opacity="1.000000" stroke="none" 
	d="
M40.448837,39.923515 
	C40.756264,38.439461 41.063690,36.955406 41.867344,35.221813 
	C42.569843,34.981270 42.776112,34.990261 43.399467,35.009666 
	C47.866737,35.015114 51.916920,35.010143 56.068497,35.228912 
	C56.169884,35.452644 56.280689,35.931252 56.201656,36.214363 
	C56.176392,36.685917 56.230156,36.874355 56.250553,37.413124 
	C56.183090,38.699108 56.148994,39.634766 55.838440,40.847496 
	C53.687313,41.147003 51.714314,40.815578 49.968254,41.300800 
	C48.499855,41.708858 47.295586,43.067387 45.702576,43.842491 
	C44.209824,42.808350 42.988884,41.936859 41.852737,41.017868 
	C41.937523,40.970364 42.033024,41.139660 41.878944,40.935104 
	C41.299526,40.461533 40.874184,40.192524 40.448837,39.923515 
z"/>
<path fill="#062F4C" opacity="1.000000" stroke="none" 
	d="
M83.983627,73.979904 
	C84.830162,74.845177 85.676704,75.710457 86.544159,76.934448 
	C85.357750,78.924911 84.150421,80.556648 82.943092,82.188385 
	C80.902969,80.086121 78.862839,77.983864 77.027267,75.449577 
	C81.894005,72.397934 78.603996,68.371986 79.282700,64.813988 
	C80.706970,62.753300 81.852226,60.877182 83.156525,59.374611 
	C83.311684,63.004375 83.238388,66.262650 83.334938,69.515884 
	C83.379250,71.008995 83.757057,72.492203 83.983627,73.979904 
z"/>
<path fill="#62250A" opacity="1.000000" stroke="none" 
	d="
M38.089371,89.212563 
	C36.094051,88.266953 34.392673,87.141777 32.334579,86.057739 
	C31.977863,86.098862 31.938391,85.672699 31.937202,85.055191 
	C31.611237,81.773987 31.286459,79.110291 30.925028,76.891731 
	C32.258671,77.564667 33.628971,77.792458 35.320263,78.029160 
	C37.062847,77.976372 38.484432,77.914665 39.906021,77.852966 
	C40.345432,80.230804 40.784847,82.608643 41.301208,85.447792 
	C40.379875,86.950401 39.381596,87.991699 38.089371,89.212563 
z"/>
<path fill="#048738" opacity="1.000000" stroke="none" 
	d="
M42.982380,34.999249 
	C42.776112,34.990261 42.569843,34.981270 42.054050,34.952545 
	C42.361904,32.497524 42.979275,30.062233 43.792114,27.322145 
	C44.513870,26.468533 45.040157,25.919714 45.777966,25.178974 
	C49.006413,24.991505 52.023338,24.995955 55.561970,25.317822 
	C56.129112,26.063507 56.174553,26.491777 56.153076,27.211624 
	C56.131729,27.697357 56.177307,27.891518 56.179871,28.450562 
	C56.079224,29.543865 56.021591,30.272284 55.613129,31.059341 
	C53.510845,31.122330 51.687302,30.816193 50.024498,31.202291 
	C47.394165,31.813049 43.359787,30.141956 42.982380,34.999249 
z"/>
<path fill="#071A29" opacity="1.000000" stroke="none" 
	d="
M73.414917,71.941803 
	C71.106941,69.874718 68.798973,67.807625 66.307892,65.576546 
	C67.817528,63.879650 68.778923,62.799004 70.184555,61.307091 
	C71.429230,60.267231 72.229675,59.638638 73.378967,59.134552 
	C77.135300,63.555794 76.986977,69.568092 73.414917,71.941803 
z"/>
<path fill="#04568F" opacity="1.000000" stroke="none" 
	d="
M99.636536,45.843189 
	C99.952431,52.197254 99.880035,58.464119 100.036568,64.725258 
	C100.114868,67.856888 100.611023,70.978081 100.964622,74.555420 
	C101.011070,75.006859 100.940514,75.040939 100.583878,74.997169 
	C98.473091,75.273888 96.718948,75.594383 94.753334,75.908752 
	C94.541862,75.902634 94.119354,75.879631 94.119354,75.879631 
	C94.492874,74.906044 94.758469,73.871666 95.264664,72.972794 
	C96.068100,71.546112 97.032272,70.209946 97.955566,67.983871 
	C97.655006,59.748497 97.327309,52.364742 96.999603,44.980991 
	C97.780663,45.238537 98.561722,45.496082 99.636536,45.843189 
z"/>
<path fill="#053658" opacity="1.000000" stroke="none" 
	d="
M84.280594,73.786850 
	C83.757057,72.492203 83.379250,71.008995 83.334938,69.515884 
	C83.238388,66.262650 83.311684,63.004375 83.157272,58.935608 
	C82.538193,55.643795 82.077408,53.164536 81.616623,50.685272 
	C82.114021,50.108318 82.611412,49.531364 83.371872,48.831631 
	C84.026131,49.011913 84.530914,49.239239 84.791191,49.629601 
	C87.872314,54.250748 87.718742,69.204178 84.280594,73.786850 
z"/>
<path fill="#096C2E" opacity="1.000000" stroke="none" 
	d="
M85.795685,38.079819 
	C81.498428,37.709892 77.201172,37.339966 72.464401,36.523933 
	C72.037788,34.060425 72.050674,32.043022 72.346428,30.277182 
	C76.410652,31.026985 80.192017,31.525227 84.239716,32.060570 
	C84.684044,32.119179 84.862022,32.140686 85.040009,32.162193 
	C85.040009,32.162193 85.144791,32.334042 85.088783,32.814838 
	C85.374619,34.201336 85.716454,35.107033 86.058296,36.012733 
	C86.058296,36.012733 86.002197,35.990513 85.976875,36.324387 
	C85.899597,37.132114 85.847641,37.605968 85.795685,38.079819 
z"/>
<path fill="#60270E" opacity="1.000000" stroke="none" 
	d="
M35.990898,42.782684 
	C37.958942,42.680737 39.926983,42.578789 41.943695,41.869244 
	C41.992359,41.261646 42.033024,41.139660 42.033024,41.139660 
	C42.033024,41.139660 41.937523,40.970364 41.453323,41.274681 
	C41.351524,42.995483 41.733921,44.411964 41.725643,45.911568 
	C37.047016,48.026318 39.798496,51.907337 38.583458,54.930305 
	C36.446175,54.944183 34.731998,54.885189 33.101349,54.436607 
	C33.461380,50.717743 33.737885,47.388474 34.308594,43.982613 
	C35.065495,43.531578 35.528198,43.157131 35.990898,42.782684 
z"/>
<path fill="#062339" opacity="1.000000" stroke="none" 
	d="
M73.537857,72.203629 
	C76.986977,69.568092 77.135300,63.555794 73.517624,58.858414 
	C74.227058,57.645626 75.146667,56.833488 76.405746,56.172375 
	C77.498039,59.215118 78.250862,62.106838 79.003677,64.998558 
	C78.603996,68.371986 81.894005,72.397934 76.872192,75.146324 
	C75.561981,74.338547 74.611389,73.401993 73.537857,72.203629 
z"/>
<path fill="#04528A" opacity="1.000000" stroke="none" 
	d="
M96.685524,44.828793 
	C97.327309,52.364742 97.655006,59.748497 97.967384,67.609543 
	C97.560165,68.069572 97.168259,68.052292 96.406952,67.573837 
	C96.025406,63.708931 96.168503,60.293354 95.910027,56.908443 
	C95.828545,55.841366 94.671066,54.856453 94.005966,53.417824 
	C93.665245,50.001175 93.324600,47.000633 92.983948,44.000088 
	C94.113113,44.225590 95.242279,44.451092 96.685524,44.828793 
z"/>
<path fill="#052D4A" opacity="1.000000" stroke="none" 
	d="
M79.282700,64.813988 
	C78.250862,62.106838 77.498039,59.215118 76.563736,55.893787 
	C77.164749,54.466831 77.947250,53.469482 78.729752,52.472137 
	C79.521507,51.958157 80.313263,51.444172 81.360825,50.807732 
	C82.077408,53.164536 82.538193,55.643795 82.998222,58.562057 
	C81.852226,60.877182 80.706970,62.753300 79.282700,64.813988 
z"/>
<path fill="#7A2A08" opacity="1.000000" stroke="none" 
	d="
M30.961681,76.446587 
	C31.286459,79.110291 31.611237,81.773987 31.909447,84.843002 
	C30.470921,85.466492 29.058960,85.684662 27.290451,85.969116 
	C26.933901,86.035393 26.754478,85.742424 26.796745,85.575974 
	C26.562536,83.538338 26.286060,81.667160 26.010296,79.384720 
	C26.913010,76.759979 27.815018,74.546486 29.186890,72.096367 
	C29.656757,71.859734 29.985710,72.058937 30.133049,72.343292 
	C30.838409,73.999542 31.396429,75.371437 31.689240,76.726822 
	C31.269913,76.622406 31.115795,76.534492 30.961681,76.446587 
z"/>
<path fill="#B38915" opacity="1.000000" stroke="none" 
	d="
M48.945293,110.515900 
	C48.629135,108.624268 48.201382,106.278702 47.983688,103.913811 
	C47.582405,99.554558 47.304482,95.183952 46.892338,90.393227 
	C47.722206,90.113075 48.645565,90.210541 49.545033,90.413750 
	C50.838509,90.705948 52.114601,91.075119 53.725037,91.527313 
	C54.051964,91.643173 53.980972,91.597420 53.987427,91.556801 
	C53.215717,93.891251 53.835999,97.883705 48.928452,95.238602 
	C48.928452,100.496262 48.928452,105.274750 48.945293,110.515900 
z"/>
<path fill="#077534" opacity="1.000000" stroke="none" 
	d="
M62.163857,64.012535 
	C60.621845,62.986340 59.372776,61.838135 58.064674,60.047508 
	C55.701744,56.258636 53.397839,53.112183 51.430725,49.998466 
	C53.397388,51.435349 55.003777,52.867947 56.662434,54.237232 
	C59.424377,56.517349 62.219818,58.756897 65.007843,61.313797 
	C65.026146,61.813969 65.037743,62.013863 65.049339,62.213753 
	C64.185158,62.772678 63.320976,63.331604 62.163857,64.012535 
z"/>
<path fill="#04528A" opacity="1.000000" stroke="none" 
	d="
M98.978134,84.972443 
	C97.606468,85.422920 96.234810,85.873390 94.464676,85.950729 
	C93.378830,84.057381 92.691460,82.537178 92.001701,81.008728 
	C91.999313,81.000488 91.986374,80.989235 91.981247,80.730568 
	C91.964905,80.299789 91.953705,80.127670 91.971252,79.977402 
	C92.000000,79.999245 91.938164,79.962395 92.226044,79.842255 
	C93.617126,78.828102 94.720329,77.934090 96.224106,77.092407 
	C97.415771,77.259064 98.206871,77.373390 98.999832,77.899467 
	C98.993851,80.531624 98.985992,82.752037 98.978134,84.972443 
z"/>
<path fill="#053658" opacity="1.000000" stroke="none" 
	d="
M83.082428,82.470520 
	C84.150421,80.556648 85.357750,78.924911 86.778503,77.152328 
	C87.721535,77.020462 88.451141,77.029434 89.774673,77.236862 
	C90.891792,78.277679 91.414978,79.120033 91.938164,79.962395 
	C91.938164,79.962395 92.000000,79.999245 91.721741,79.979218 
	C91.276764,79.964622 91.110062,79.970055 90.708084,79.967606 
	C90.472809,79.959732 90.001999,79.961143 89.693741,79.849579 
	C84.890129,80.336845 87.925156,83.869179 86.678909,85.883064 
	C85.926682,85.924538 85.496513,85.942131 85.066338,85.959717 
	C84.451477,84.890694 83.836617,83.821671 83.082428,82.470520 
z"/>
<path fill="#0D466A" opacity="1.000000" stroke="none" 
	d="
M84.885475,86.188354 
	C85.496513,85.942131 85.926682,85.924538 87.037529,85.833450 
	C88.479469,83.827011 89.240730,81.894081 90.001999,79.961143 
	C90.001999,79.961143 90.472809,79.959732 90.859421,80.160110 
	C91.461418,80.607056 91.708199,80.816635 91.986374,80.989235 
	C91.986374,80.989235 91.999313,81.000488 91.976540,81.380417 
	C91.613693,83.667419 91.273621,85.574486 90.933548,87.481552 
	C89.531708,88.044617 88.129860,88.607674 86.881577,89.432007 
	C85.679817,89.730278 84.324486,89.767288 82.572983,89.754646 
	C82.047440,88.740524 81.918076,87.776047 81.787231,86.800598 
	C82.669907,86.684532 83.687256,86.550751 84.885475,86.188354 
z"/>
<path fill="#054877" opacity="1.000000" stroke="none" 
	d="
M92.676514,43.861183 
	C93.324600,47.000633 93.665245,50.001175 93.648994,53.482567 
	C92.567757,53.993237 91.843414,54.023060 91.119072,54.052879 
	C90.883408,51.907795 90.787323,49.734249 90.358032,47.628643 
	C90.113228,46.427879 89.324860,45.337933 88.474045,44.133602 
	C89.567581,43.953506 90.968330,43.837894 92.676514,43.861183 
z"/>
<path fill="#035E9E" opacity="1.000000" stroke="none" 
	d="
M99.345627,84.985031 
	C98.985992,82.752037 98.993851,80.531624 99.336761,77.832352 
	C100.120712,77.260323 100.569603,77.167152 101.243141,77.119400 
	C101.467781,77.164825 101.923523,77.213943 102.153511,77.365738 
	C102.913956,77.645020 103.444405,77.772522 103.974861,77.900017 
	C103.976440,79.627068 103.978020,81.354111 103.965317,83.510056 
	C102.538391,84.291847 101.125755,84.644737 99.345627,84.985031 
z"/>
<path fill="#0994C8" opacity="1.000000" stroke="none" 
	d="
M78.087753,52.254906 
	C77.947250,53.469482 77.164749,54.466831 76.224258,55.742764 
	C75.146667,56.833488 74.227058,57.645626 73.168793,58.733902 
	C72.229675,59.638638 71.429230,60.267231 70.345551,61.015640 
	C69.848190,60.570938 69.634064,60.006420 69.215469,58.948856 
	C68.981018,58.280960 68.951050,58.106110 68.933823,57.940773 
	C68.946571,57.950287 68.959915,57.963394 69.211472,57.897087 
	C69.629211,57.540257 69.795380,57.249725 69.980774,56.979599 
	C70.000000,56.999996 69.958603,56.962307 70.207649,56.892189 
	C70.617432,56.528648 70.778168,56.235229 70.911896,55.940376 
	C70.884880,55.938942 70.859375,55.891403 71.170441,55.800568 
	C73.037071,54.355022 74.592644,53.000317 76.148216,51.645607 
	C76.580734,51.776295 77.013245,51.906990 78.087753,52.254906 
z"/>
<path fill="#A1831F" opacity="1.000000" stroke="none" 
	d="
M76.074127,90.687012 
	C74.203697,90.717880 72.381294,90.392570 70.145004,90.022034 
	C70.954468,89.611664 72.177803,89.246506 73.168373,88.950829 
	C73.420372,87.660217 73.372841,86.207840 74.041359,85.261047 
	C74.335106,84.845016 76.087395,85.458832 77.177437,85.605049 
	C76.825676,87.180313 76.473907,88.755577 76.074127,90.687012 
z"/>
<path fill="#0E4B76" opacity="1.000000" stroke="none" 
	d="
M91.220779,87.462219 
	C91.273621,85.574486 91.613693,83.667419 91.978928,81.388664 
	C92.691460,82.537178 93.378830,84.057381 94.100006,85.976959 
	C93.258545,86.731842 92.383278,87.087357 91.220779,87.462219 
z"/>
<path fill="#079346" opacity="1.000000" stroke="none" 
	d="
M78.067581,45.013783 
	C79.221886,44.734253 80.376198,44.454723 81.891747,44.242432 
	C80.866608,45.923992 79.480225,47.538319 77.660675,49.178127 
	C77.227501,49.203609 76.903549,48.922619 76.970474,48.588249 
	C77.380791,47.173847 77.724190,46.093815 78.067581,45.013783 
z"/>
<path fill="#079346" opacity="1.000000" stroke="none" 
	d="
M76.329338,51.378185 
	C74.592644,53.000317 73.037071,54.355022 71.211678,55.460289 
	C72.929085,53.114769 74.916321,51.018692 76.903549,48.922619 
	C76.903549,48.922619 77.227501,49.203609 77.386795,49.350426 
	C77.200882,50.035080 76.855675,50.572922 76.329338,51.378185 
z"/>
<path fill="#2D1207" opacity="1.000000" stroke="none" 
	d="
M50.999695,70.998779 
	C51.499664,71.251732 51.999638,71.504677 52.900406,72.088737 
	C53.553848,72.649361 53.806496,72.878868 54.059143,73.108376 
	C53.282429,73.998482 52.505711,74.888588 51.458698,75.896835 
	C50.907883,75.808022 50.627365,75.601044 50.232979,74.858124 
	C50.412643,73.214378 50.706169,72.106583 50.999695,70.998779 
z"/>
<path fill="#451A09" opacity="1.000000" stroke="none" 
	d="
M57.299629,70.029465 
	C58.059883,68.831726 59.116081,67.491585 60.499340,66.079155 
	C59.749458,67.300270 58.672520,68.593666 57.299629,70.029465 
z"/>
<path fill="#016FBB" opacity="1.000000" stroke="none" 
	d="
M104.052032,46.577301 
	C103.026260,46.596844 101.848679,46.332626 100.326309,45.961803 
	C101.287758,46.001308 102.593994,46.147423 104.052032,46.577301 
z"/>
<path fill="#079346" opacity="1.000000" stroke="none" 
	d="
M85.827866,38.405823 
	C85.847641,37.605968 85.899597,37.132114 85.999405,36.304321 
	C86.197044,37.221935 86.346840,38.493492 86.162277,39.904236 
	C85.838631,39.606220 85.849335,39.169022 85.827866,38.405823 
z"/>
<path fill="#CE970F" opacity="1.000000" stroke="none" 
	d="
M72.352554,106.785385 
	C72.775703,106.454132 73.491684,106.193115 74.501465,105.951202 
	C74.078644,106.265419 73.362015,106.560516 72.352554,106.785385 
z"/>
<path fill="#04983D" opacity="1.000000" stroke="none" 
	d="
M85.060867,31.803896 
	C84.862022,32.140686 84.684044,32.119179 84.244598,31.687723 
	C83.961349,30.534399 83.939560,29.791029 83.917770,29.047657 
	C83.917770,29.047657 84.124176,28.895779 84.228287,28.818851 
	C84.582184,29.643150 84.831955,30.544374 85.060867,31.803896 
z"/>
<path fill="#079346" opacity="1.000000" stroke="none" 
	d="
M65.314728,62.071587 
	C65.037743,62.013863 65.026146,61.813969 65.180046,61.100891 
	C65.755287,60.225422 66.165016,59.863125 66.717941,59.664917 
	C66.861130,59.828999 67.150856,60.154221 67.150856,60.154221 
	C66.627281,60.745953 66.103699,61.337685 65.314728,62.071587 
z"/>
<path fill="#04983D" opacity="1.000000" stroke="none" 
	d="
M86.067490,35.643810 
	C85.716454,35.107033 85.374619,34.201336 85.052895,32.908859 
	C85.407570,33.439686 85.742126,34.357288 86.067490,35.643810 
z"/>
<path fill="#843310" opacity="1.000000" stroke="none" 
	d="
M35.638031,42.786194 
	C35.528198,43.157131 35.065495,43.531578 34.064713,43.982056 
	C33.526638,44.058083 33.039429,44.073235 33.039429,44.073235 
	C33.039429,44.073235 32.820332,43.810722 32.711868,43.678139 
	C33.497326,43.293606 34.391247,43.041653 35.638031,42.786194 
z"/>
<path fill="#048738" opacity="1.000000" stroke="none" 
	d="
M41.878944,40.935104 
	C42.033024,41.139660 41.992359,41.261646 41.983246,41.289867 
	C41.685135,41.123875 41.396137,40.929665 40.777992,40.329483 
	C40.874184,40.192524 41.299526,40.461533 41.878944,40.935104 
z"/>
<path fill="#451A09" opacity="1.000000" stroke="none" 
	d="
M54.314751,73.005341 
	C53.806496,72.878868 53.553848,72.649361 53.152679,72.210648 
	C53.486027,71.994957 53.967899,71.988487 54.812275,71.991165 
	C54.973309,72.300972 54.771835,72.601631 54.314751,73.005341 
z"/>
<path fill="#079346" opacity="1.000000" stroke="none" 
	d="
M68.152428,59.159435 
	C68.036438,59.471924 67.843399,59.725815 67.362076,60.037666 
	C67.150856,60.154221 66.861130,59.828999 66.881439,59.506008 
	C67.116676,58.967381 67.337158,58.757576 67.710693,58.704872 
	C67.858200,58.856140 68.152428,59.159435 68.152428,59.159435 
z"/>
<path fill="#079346" opacity="1.000000" stroke="none" 
	d="
M68.921074,57.931259 
	C68.951050,58.106110 68.981018,58.280960 69.013107,58.721588 
	C69.015228,58.987366 68.581726,59.065922 68.367081,59.112679 
	C68.152428,59.159435 67.858200,58.856140 67.910400,58.542130 
	C68.282097,58.129169 68.601585,58.030212 68.921074,57.931259 
z"/>
<path fill="#079346" opacity="1.000000" stroke="none" 
	d="
M82.455574,44.155544 
	C82.375801,43.938644 82.555077,43.653370 82.977516,43.277100 
	C83.051994,43.486458 82.883308,43.786812 82.455574,44.155544 
z"/>
<path fill="#079346" opacity="1.000000" stroke="none" 
	d="
M83.453659,43.154022 
	C83.373413,42.936398 83.552673,42.651119 83.975151,42.274963 
	C84.049973,42.484848 83.881577,42.785610 83.453659,43.154022 
z"/>
<path fill="#079346" opacity="1.000000" stroke="none" 
	d="
M84.458740,42.067909 
	C84.344681,41.861904 84.502701,41.537777 84.869965,41.033466 
	C84.963081,41.218781 84.846954,41.584282 84.458740,42.067909 
z"/>
<path fill="#2E6588" opacity="1.000000" stroke="none" 
	d="
M103.994003,77.543503 
	C103.444405,77.772522 102.913956,77.645020 102.362747,77.152031 
	C102.546600,76.241005 102.751213,75.695480 102.955833,75.149948 
	C103.122887,75.129333 103.289932,75.108727 103.707848,75.064445 
	C103.976868,75.756172 103.995010,76.471573 103.994003,77.543503 
z"/>
<path fill="#D4D1CE" opacity="1.000000" stroke="none" 
	d="
M30.930857,64.005280 
	C27.282270,62.477283 26.774097,60.333466 30.032633,57.244743 
	C30.405346,56.965393 30.859957,56.951496 31.196770,57.016853 
	C32.758362,59.219364 37.030479,54.904175 37.013618,59.670341 
	C37.434059,60.485077 37.728947,61.403809 38.300289,62.093548 
	C39.611122,63.676037 41.725819,64.934555 42.290169,66.713005 
	C43.127579,69.351952 41.795330,71.548447 38.407715,72.050751 
	C38.135071,72.065872 38.036816,71.867332 37.880463,71.701454 
	C37.507095,71.319153 37.262859,71.139793 37.008213,70.596771 
	C37.080143,69.130295 37.135269,68.064545 37.281635,66.885605 
	C37.474731,66.468292 37.400066,66.212280 36.962803,65.678864 
	C34.828102,64.903976 32.879478,64.454628 30.930857,64.005280 
z"/>
<path fill="#361406" opacity="1.000000" stroke="none" 
	d="
M50.844170,70.635590 
	C50.706169,72.106583 50.412643,73.214378 50.059982,74.661392 
	C48.840652,74.166847 46.737484,73.400253 46.672539,72.488487 
	C46.234444,66.337608 46.203266,60.156342 46.113277,53.983849 
	C46.101879,53.202030 46.514893,52.414017 47.196037,51.403347 
	C49.010891,52.713486 50.360977,54.249153 51.486931,55.886749 
	C51.024288,56.133656 50.785774,56.278641 50.547264,56.423626 
	C50.572132,56.464359 50.597004,56.505093 50.621876,56.545826 
	C50.990971,56.322296 51.360069,56.098766 51.812313,55.815727 
	C51.895462,55.756218 52.052029,55.887779 52.052029,55.887779 
	C51.597569,60.682652 51.143108,65.477524 50.844170,70.635590 
z"/>
<path fill="#0BA1D2" opacity="1.000000" stroke="none" 
	d="
M51.711063,55.784821 
	C50.360977,54.249153 49.010891,52.713486 47.354202,51.030403 
	C46.236698,49.964485 45.425800,49.045986 44.275753,47.778152 
	C43.936604,47.428818 43.671474,47.047516 43.519386,46.705757 
	C43.202278,46.177391 43.037254,45.990784 43.360020,45.564713 
	C44.897690,45.561367 45.947567,45.797493 46.998764,46.026257 
	C47.000084,46.018898 47.004139,46.015697 47.091309,46.244949 
	C47.373325,46.763401 47.643120,46.934277 47.988670,46.998390 
	C47.989475,47.009964 48.012619,47.008591 48.105213,47.242783 
	C48.484020,47.633671 48.770229,47.790371 49.027538,47.964104 
	C48.998634,47.981136 49.064682,47.972061 49.127640,48.213821 
	C49.382645,48.766773 49.661469,48.926537 50.020508,48.960533 
	C50.013939,48.986187 50.065144,48.972645 50.128311,49.213997 
	C50.383438,49.765949 50.661945,49.925392 51.033863,49.962135 
	C51.040714,49.990601 51.093937,49.965733 51.093937,49.965733 
	C53.397839,53.112183 55.701744,56.258636 57.929657,59.759266 
	C56.121967,58.795471 54.390270,57.477493 52.355301,56.023651 
	C52.052029,55.887779 51.895462,55.756218 51.792561,55.799507 
	C51.689659,55.842796 51.711063,55.784821 51.711063,55.784821 
z"/>
<path fill="#501C07" opacity="1.000000" stroke="none" 
	d="
M43.671474,47.047516 
	C43.671474,47.047516 43.936604,47.428818 43.991783,47.654335 
	C43.531261,50.526989 43.015568,53.174118 41.893478,55.792755 
	C40.526905,55.461987 39.766731,55.159714 39.006557,54.857437 
	C39.798496,51.907337 37.047016,48.026318 41.724548,45.949848 
	C42.114128,45.905010 42.037132,45.918461 42.181183,46.132488 
	C42.773979,46.580181 43.222725,46.813850 43.671474,47.047516 
z"/>
<path fill="#DCDAD8" opacity="1.000000" stroke="none" 
	d="
M38.583458,54.930305 
	C39.766731,55.159714 40.526905,55.461987 41.569218,55.903694 
	C41.892544,56.776382 41.933735,57.509644 41.698914,58.533539 
	C40.944546,59.146999 40.466187,59.469822 39.987831,59.792648 
	C39.239456,59.816418 38.491085,59.840187 37.378166,59.767151 
	C37.030479,54.904175 32.758362,59.219364 31.252682,56.662437 
	C31.653793,55.770512 32.335808,55.298355 33.017818,54.826199 
	C34.731998,54.885189 36.446175,54.944183 38.583458,54.930305 
z"/>
<path fill="#672F17" opacity="1.000000" stroke="none" 
	d="
M31.954449,76.743324 
	C31.396429,75.371437 30.838409,73.999542 30.580624,72.313904 
	C33.266178,71.955872 35.651497,71.911598 38.036816,71.867332 
	C38.036816,71.867332 38.135071,72.065872 38.043732,72.128510 
	C37.952389,72.191154 37.958832,72.597214 37.630768,72.824059 
	C36.533440,73.689560 35.764175,74.328217 35.010178,75.112831 
	C35.025448,75.258789 35.073250,75.548393 34.791473,75.386055 
	C33.657948,75.730247 32.806198,76.236786 31.954449,76.743324 
z"/>
<path fill="#9E867B" opacity="1.000000" stroke="none" 
	d="
M40.073326,77.589226 
	C38.484432,77.914665 37.062847,77.976372 35.329094,77.718460 
	C35.035698,76.782021 35.054474,76.165207 35.073250,75.548393 
	C35.073250,75.548393 35.025448,75.258789 35.431576,75.184479 
	C37.544548,75.116447 39.251392,75.122726 40.958237,75.129013 
	C40.719036,75.861176 40.479836,76.593330 40.073326,77.589226 
z"/>
<path fill="#5A1F06" opacity="1.000000" stroke="none" 
	d="
M40.867180,74.802750 
	C39.251392,75.122726 37.544548,75.116447 35.416306,75.038513 
	C35.764175,74.328217 36.533440,73.689560 37.632080,73.027115 
	C38.899677,73.494377 39.837898,73.985428 40.867180,74.802750 
z"/>
<path fill="#D4D1CE" opacity="1.000000" stroke="none" 
	d="
M40.297771,59.867779 
	C40.466187,59.469822 40.944546,59.146999 41.621712,58.893257 
	C41.416248,59.289196 41.011982,59.616055 40.297771,59.867779 
z"/>
<path fill="#1D96B4" opacity="1.000000" stroke="none" 
	d="
M31.587528,86.964767 
	C32.152882,95.056160 32.284271,103.200340 32.218849,111.716331 
	C31.280956,111.403587 29.908066,110.729759 29.896225,110.032799 
	C29.773605,102.814796 29.847878,95.592705 29.959410,88.373184 
	C29.966484,87.915260 30.737793,87.469147 31.587528,86.964767 
z"/>
<path fill="#2994A4" opacity="1.000000" stroke="none" 
	d="
M70.330368,100.526581 
	C70.329468,97.439194 70.329468,94.772469 70.329468,92.105751 
	C71.014236,92.108124 71.699013,92.110497 72.383781,92.112869 
	C72.383781,96.144623 72.383781,100.176369 72.383781,104.208122 
	C72.025475,104.306259 71.667175,104.404388 71.308868,104.502525 
	C70.983002,103.317436 70.657143,102.132347 70.330368,100.526581 
z"/>
<path fill="#DDDFDE" opacity="1.000000" stroke="none" 
	d="
M91.068436,54.424839 
	C91.843414,54.023060 92.567757,53.993237 93.649071,53.898674 
	C94.671066,54.856453 95.828545,55.841366 95.910027,56.908443 
	C96.168503,60.293354 96.025406,63.708931 96.112244,67.575462 
	C96.085381,69.180466 95.983818,70.322670 95.858948,71.727036 
	C94.436653,71.727036 93.030350,71.727036 90.456924,71.727036 
	C90.644913,66.052757 90.831360,60.424778 91.068436,54.424839 
z"/>
<path fill="#0E4B76" opacity="1.000000" stroke="none" 
	d="
M92.226044,79.842255 
	C91.414978,79.120033 90.891792,78.277679 90.139236,77.241257 
	C91.216965,76.807945 92.524055,76.568710 93.975250,76.104553 
	C94.119354,75.879631 94.541862,75.902634 94.934189,76.067581 
	C95.559395,76.460365 95.725060,76.729553 95.823532,77.040085 
	C94.720329,77.934090 93.617126,78.828102 92.226044,79.842255 
z"/>
<path fill="#D9DAD9" opacity="1.000000" stroke="none" 
	d="
M55.963963,31.000702 
	C56.021591,30.272284 56.079224,29.543865 56.402245,28.424774 
	C56.979210,27.801998 57.290783,27.569895 57.602356,27.337793 
	C57.141567,27.198545 56.680782,27.059296 56.219994,26.920048 
	C56.174553,26.491777 56.129112,26.063507 56.012508,25.319958 
	C55.941345,25.004681 56.181980,24.585279 56.527039,24.353199 
	C57.267208,23.840935 57.662319,23.560749 58.057430,23.280563 
	C58.778641,23.264454 59.499855,23.248346 60.715439,23.635098 
	C61.367283,24.218796 61.524761,24.399635 61.693295,24.954865 
	C61.746761,29.894173 61.789165,34.459091 61.650078,39.190987 
	C61.278042,39.806675 61.087505,40.255386 60.499416,40.736427 
	C58.772877,40.702648 57.443890,40.636532 56.114899,40.570419 
	C56.148994,39.634766 56.183090,38.699108 56.376709,37.296097 
	C56.451054,36.529575 56.365871,36.230415 56.280689,35.931252 
	C56.280689,35.931252 56.169884,35.452644 56.162663,34.913200 
	C56.195526,33.936668 56.235611,33.499580 56.378868,32.938156 
	C56.567680,32.464317 56.480724,32.174603 56.181259,31.702042 
	C56.141342,31.459402 55.963963,31.000702 55.963963,31.000702 
z"/>
<path fill="#DDE0DE" opacity="1.000000" stroke="none" 
	d="
M63.101658,23.299477 
	C64.460449,23.348513 65.819244,23.397549 67.633270,23.746628 
	C68.088509,24.046671 68.379242,24.150469 68.379242,24.150469 
	C68.379242,24.150469 68.685486,24.111837 68.685486,24.111837 
	C69.230812,24.668022 69.776146,25.224209 70.643326,26.223370 
	C71.056198,27.094530 71.147209,27.522720 71.183136,28.404980 
	C71.116211,30.499609 71.012672,32.145645 71.110252,33.779671 
	C71.370560,38.138596 69.384277,40.499004 64.931732,40.538414 
	C64.840294,39.746246 64.851471,39.287025 65.069199,38.472588 
	C66.281921,33.162437 67.263397,28.211826 62.955841,23.994432 
	C63.070679,23.781801 63.101658,23.299477 63.101658,23.299477 
z"/>
<path fill="#038133" opacity="1.000000" stroke="none" 
	d="
M71.238220,27.950909 
	C71.147209,27.522720 71.056198,27.094530 70.912224,26.339962 
	C75.057404,26.802588 79.975449,23.956711 83.673599,28.775398 
	C83.939560,29.791029 83.961349,30.534399 83.978256,31.650620 
	C80.192017,31.525227 76.410652,31.026985 72.288086,30.000786 
	C71.710655,28.965523 71.474434,28.458216 71.238220,27.950909 
z"/>
<path fill="#9ABAA5" opacity="1.000000" stroke="none" 
	d="
M57.774948,23.189590 
	C57.662319,23.560749 57.267208,23.840935 56.625092,24.132210 
	C56.749546,23.795071 57.121006,23.446842 57.774948,23.189590 
z"/>
<path fill="#9ABAA5" opacity="1.000000" stroke="none" 
	d="
M62.742950,23.202259 
	C63.101658,23.299477 63.070679,23.781801 62.764343,24.069210 
	C62.229370,24.535011 61.970779,24.609629 61.682236,24.580473 
	C61.524761,24.399635 61.367283,24.218796 61.069324,23.706902 
	C61.413975,23.285580 61.899109,23.195311 62.742950,23.202259 
z"/>
<path fill="#9ABAA5" opacity="1.000000" stroke="none" 
	d="
M68.628418,23.945210 
	C68.685486,24.111837 68.379242,24.150469 68.379242,24.150469 
	C68.379242,24.150469 68.088509,24.046671 68.005615,23.916260 
	C68.136894,23.601139 68.353096,23.598717 68.628418,23.945210 
z"/>
<path fill="#732504" opacity="1.000000" stroke="none" 
	d="
M33.101349,54.436607 
	C32.335808,55.298355 31.653793,55.770512 30.915869,56.597084 
	C30.859957,56.951496 30.405346,56.965393 30.184483,56.911091 
	C29.643822,55.261368 29.533291,53.586445 28.963293,52.086079 
	C27.506248,48.250797 28.572277,45.744152 32.763329,44.274277 
	C33.039429,44.073235 33.526638,44.058083 33.770515,44.058643 
	C33.737885,47.388474 33.461380,50.717743 33.101349,54.436607 
z"/>
<path fill="#CEC5C0" opacity="1.000000" stroke="none" 
	d="
M37.880463,71.701454 
	C35.651497,71.911598 33.266178,71.955872 30.433285,72.029541 
	C29.985710,72.058937 29.656757,71.859734 29.464542,71.849976 
	C27.202858,69.119133 25.463760,66.508766 31.531578,66.686508 
	C33.635937,68.333359 35.313671,69.665428 36.991409,70.997490 
	C37.262859,71.139793 37.507095,71.319153 37.880463,71.701454 
z"/>
<path fill="#61260D" opacity="1.000000" stroke="none" 
	d="
M37.008209,70.596771 
	C35.313671,69.665428 33.635937,68.333359 31.883884,66.680740 
	C31.599491,65.769402 31.389416,65.178596 31.055099,64.296539 
	C32.879478,64.454628 34.828102,64.903976 36.919094,65.929688 
	C37.104443,66.670303 37.147419,66.834549 37.190395,66.998795 
	C37.135269,68.064545 37.080143,69.130295 37.008209,70.596771 
z"/>
<path fill="#8FADC2" opacity="1.000000" stroke="none" 
	d="
M102.627518,75.098915 
	C102.751213,75.695480 102.546600,76.241005 102.132751,77.000244 
	C101.923523,77.213943 101.467781,77.164825 101.217079,76.779800 
	C100.957756,75.943497 100.949135,75.492218 100.940514,75.040939 
	C100.940514,75.040939 101.011070,75.006859 100.995079,74.971085 
	C101.419128,74.972832 101.859169,75.010361 102.627518,75.098915 
z"/>
<path fill="#2D1207" opacity="1.000000" stroke="none" 
	d="
M52.831020,65.419579 
	C52.639660,65.556076 52.389172,65.572334 52.138680,65.588585 
	C52.349751,65.492165 52.560818,65.395752 52.831020,65.419579 
z"/>
<path fill="#082E15" opacity="1.000000" stroke="none" 
	d="
M68.933823,57.940773 
	C68.601585,58.030212 68.282097,58.129169 67.762894,58.390862 
	C67.337158,58.757576 67.116676,58.967381 66.738243,59.341927 
	C66.165016,59.863125 65.755287,60.225422 65.173355,60.800621 
	C62.219818,58.756897 59.424377,56.517349 56.662434,54.237232 
	C55.003777,52.867947 53.397388,51.435349 51.430725,49.998466 
	C51.093937,49.965733 51.040714,49.990601 50.973564,49.718826 
	C50.625992,49.288918 50.345570,49.130783 50.065144,48.972645 
	C50.065144,48.972645 50.013939,48.986187 49.959438,48.717480 
	C49.624851,48.289867 49.344769,48.130962 49.064682,47.972061 
	C49.064682,47.972061 48.998634,47.981136 49.111519,47.736496 
	C49.224403,47.491859 49.305962,47.013680 49.710125,47.018486 
	C56.702408,49.039692 62.815613,48.165230 68.391609,44.020687 
	C68.734123,44.049057 69.076645,44.077427 69.593384,44.422310 
	C70.054817,45.383476 70.342033,46.028130 70.629257,46.672783 
	C70.877655,46.121357 71.126053,45.569931 71.374458,45.018509 
	C73.323936,45.018948 75.273422,45.019390 77.645241,45.016808 
	C77.724190,46.093815 77.380791,47.173847 76.970474,48.588249 
	C74.916321,51.018692 72.929085,53.114769 70.900620,55.551125 
	C70.859375,55.891403 70.884880,55.938942 70.648537,55.991997 
	C70.260994,56.350807 70.109802,56.656555 69.958603,56.962307 
	C69.958603,56.962307 70.000000,56.999996 69.715546,57.025558 
	C69.274025,57.355209 69.116966,57.659302 68.959915,57.963394 
	C68.959915,57.963394 68.946571,57.950287 68.933823,57.940773 
M66.983437,45.275318 
	C67.212105,45.780674 67.440773,46.286030 67.669449,46.791386 
	C67.676376,46.080662 67.683304,45.369942 66.983437,45.275318 
z"/>
<path fill="#17502B" opacity="1.000000" stroke="none" 
	d="
M68.365150,43.689045 
	C62.815613,48.165230 56.702408,49.039692 49.385864,47.003609 
	C48.442501,46.992153 48.227558,47.000374 48.012619,47.008591 
	C48.012619,47.008591 47.989475,47.009964 47.882774,46.783981 
	C47.579506,46.290768 47.322197,46.110001 47.004139,46.015697 
	C47.004139,46.015697 47.000084,46.018898 46.916725,45.752800 
	C46.547043,44.992855 46.260715,44.499001 45.974388,44.005150 
	C47.295586,43.067387 48.499855,41.708858 49.968254,41.300800 
	C51.714314,40.815578 53.687313,41.147003 55.838440,40.847492 
	C57.443890,40.636532 58.772877,40.702648 60.903656,40.840302 
	C62.815083,40.898350 63.924713,40.884853 65.034348,40.871357 
	C69.384277,40.499004 71.370560,38.138596 71.110252,33.779671 
	C71.012672,32.145645 71.116211,30.499609 71.183136,28.404980 
	C71.474434,28.458216 71.710655,28.965523 72.005219,29.749226 
	C72.050674,32.043022 72.037788,34.060425 72.038994,36.507500 
	C70.814957,39.077248 69.576828,41.217327 68.365150,43.689045 
z"/>
<path fill="#C0CFC5" opacity="1.000000" stroke="none" 
	d="
M71.172897,44.788380 
	C71.126053,45.569931 70.877655,46.121357 70.629257,46.672783 
	C70.342033,46.028130 70.054817,45.383476 69.848648,44.378349 
	C70.276909,44.197998 70.624123,44.378124 71.172897,44.788380 
z"/>
<path fill="#046F2C" opacity="1.000000" stroke="none" 
	d="
M55.613129,31.059341 
	C55.963963,31.000702 56.141342,31.459402 56.095383,31.986324 
	C56.124847,32.696331 56.200272,32.879414 56.275696,33.062492 
	C56.235611,33.499580 56.195526,33.936668 56.061272,34.689468 
	C51.916920,35.010143 47.866737,35.015114 43.399467,35.009666 
	C43.359787,30.141956 47.394165,31.813049 50.024498,31.202291 
	C51.687302,30.816193 53.510845,31.122330 55.613129,31.059341 
z"/>
<path fill="#048738" opacity="1.000000" stroke="none" 
	d="
M45.702576,43.842495 
	C46.260715,44.499001 46.547043,44.992855 46.915405,45.760162 
	C45.947567,45.797493 44.897690,45.561367 43.217712,45.558479 
	C42.376198,45.710911 42.192703,45.753159 42.037132,45.918461 
	C42.037132,45.918461 42.114128,45.905010 42.115223,45.866730 
	C41.733921,44.411964 41.351524,42.995483 41.368538,41.322186 
	C42.988884,41.936859 44.209824,42.808350 45.702576,43.842495 
z"/>
<path fill="#9ABAA5" opacity="1.000000" stroke="none" 
	d="
M56.201656,36.214363 
	C56.365871,36.230415 56.451054,36.529575 56.410080,36.945763 
	C56.230156,36.874355 56.176392,36.685917 56.201656,36.214363 
z"/>
<path fill="#A99389" opacity="1.000000" stroke="none" 
	d="
M34.791473,75.386055 
	C35.054474,76.165207 35.035698,76.782021 35.008095,77.709534 
	C33.628971,77.792458 32.258671,77.564667 30.925026,76.891731 
	C31.115795,76.534492 31.269913,76.622406 31.689240,76.726822 
	C32.806198,76.236786 33.657948,75.730247 34.791473,75.386055 
z"/>
<path fill="#9ABAA5" opacity="1.000000" stroke="none" 
	d="
M56.153076,27.211624 
	C56.680782,27.059296 57.141567,27.198545 57.602356,27.337793 
	C57.290783,27.569895 56.979210,27.801998 56.445259,28.059891 
	C56.177307,27.891518 56.131729,27.697357 56.153076,27.211624 
z"/>
<path fill="#2E6588" opacity="1.000000" stroke="none" 
	d="
M100.583878,74.997169 
	C100.949135,75.492218 100.957756,75.943497 100.992439,76.734375 
	C100.569603,77.167152 100.120712,77.260323 99.334885,77.420609 
	C98.206871,77.373390 97.415771,77.259064 96.224106,77.092407 
	C95.725060,76.729553 95.559395,76.460365 95.145660,76.073700 
	C96.718948,75.594383 98.473091,75.273888 100.583878,74.997169 
z"/>
<path fill="#0E4B76" opacity="1.000000" stroke="none" 
	d="
M91.981247,80.730568 
	C91.708199,80.816635 91.461418,80.607056 91.094696,80.167992 
	C91.110062,79.970055 91.276764,79.964622 91.692993,79.957375 
	C91.953705,80.127670 91.964905,80.299789 91.981247,80.730568 
z"/>
<path fill="#08416A" opacity="1.000000" stroke="none" 
	d="
M89.693741,79.849579 
	C89.240730,81.894081 88.479469,83.827011 87.359581,85.809563 
	C87.925156,83.869179 84.890129,80.336845 89.693741,79.849579 
z"/>
<path fill="#079346" opacity="1.000000" stroke="none" 
	d="
M69.211472,57.897087 
	C69.116966,57.659302 69.274025,57.355209 69.696320,57.005157 
	C69.795380,57.249725 69.629211,57.540257 69.211472,57.897087 
z"/>
<path fill="#079346" opacity="1.000000" stroke="none" 
	d="
M70.207649,56.892189 
	C70.109802,56.656555 70.260994,56.350807 70.675552,55.993431 
	C70.778168,56.235229 70.617432,56.528648 70.207649,56.892189 
z"/>
<path fill="#CEC5C0" opacity="1.000000" stroke="none" 
	d="
M37.281635,66.885605 
	C37.147419,66.834549 37.104443,66.670303 37.105171,66.255226 
	C37.400066,66.212280 37.474731,66.468292 37.281635,66.885605 
z"/>
<path fill="#291006" opacity="1.000000" stroke="none" 
	d="
M51.486931,55.886749 
	C51.711063,55.784821 51.689659,55.842796 51.709412,55.859016 
	C51.360069,56.098766 50.990971,56.322296 50.621876,56.545826 
	C50.597004,56.505093 50.572132,56.464359 50.547264,56.423626 
	C50.785774,56.278641 51.024288,56.133656 51.486931,55.886749 
z"/>
<path fill="#60270E" opacity="1.000000" stroke="none" 
	d="
M42.181183,46.132488 
	C42.192703,45.753159 42.376198,45.710911 42.729927,45.797947 
	C43.037254,45.990784 43.202278,46.177391 43.519386,46.705757 
	C43.222725,46.813850 42.773979,46.580181 42.181183,46.132488 
z"/>
<path fill="#077534" opacity="1.000000" stroke="none" 
	d="
M47.091309,46.244949 
	C47.322197,46.110001 47.579506,46.290768 47.881966,46.772408 
	C47.643120,46.934277 47.373325,46.763401 47.091309,46.244949 
z"/>
<path fill="#077534" opacity="1.000000" stroke="none" 
	d="
M48.105213,47.242783 
	C48.227558,47.000374 48.442501,46.992153 48.981705,46.998802 
	C49.305962,47.013680 49.224403,47.491859 49.140423,47.719467 
	C48.770229,47.790371 48.484020,47.633671 48.105213,47.242783 
z"/>
<path fill="#077534" opacity="1.000000" stroke="none" 
	d="
M49.127640,48.213821 
	C49.344769,48.130962 49.624851,48.289867 49.966003,48.691826 
	C49.661469,48.926537 49.382645,48.766773 49.127640,48.213821 
z"/>
<path fill="#077534" opacity="1.000000" stroke="none" 
	d="
M50.128311,49.213997 
	C50.345570,49.130783 50.625992,49.288918 50.966713,49.690365 
	C50.661945,49.925392 50.383438,49.765949 50.128311,49.213997 
z"/>
<path fill="#0F7034" opacity="1.000000" stroke="none" 
	d="
M61.693295,24.954865 
	C61.970779,24.609629 62.229370,24.535011 62.649506,24.281841 
	C67.263397,28.211826 66.281921,33.162437 64.691765,38.524380 
	C63.349049,38.962261 62.590309,38.993137 61.831570,39.024010 
	C61.789165,34.459091 61.746761,29.894173 61.693295,24.954865 
z"/>
<path fill="#9ABAA5" opacity="1.000000" stroke="none" 
	d="
M61.650078,39.190990 
	C62.590309,38.993137 63.349049,38.962261 64.485214,38.879593 
	C64.851471,39.287025 64.840294,39.746246 64.931732,40.538414 
	C63.924713,40.884853 62.815083,40.898350 61.301208,40.807972 
	C61.087505,40.255386 61.278042,39.806675 61.650078,39.190990 
z"/>
<path fill="#9ABAA5" opacity="1.000000" stroke="none" 
	d="
M56.378872,32.938156 
	C56.200272,32.879414 56.124847,32.696331 56.135300,32.228966 
	C56.480724,32.174603 56.567680,32.464317 56.378872,32.938156 
z"/>
<path fill="#738B7B" opacity="1.000000" stroke="none" 
	d="
M67.336838,44.967270 
	C67.683304,45.369942 67.676376,46.080662 67.669449,46.791386 
	C67.440773,46.286030 67.212105,45.780674 67.336838,44.967270 
z"/>
</svg>