<?xml version="1.0" standalone="no"?>
<!DOCTYPE svg PUBLIC "-//W3C//DTD SVG 20010904//EN"
 "http://www.w3.org/TR/2001/REC-SVG-20010904/DTD/svg10.dtd">
<svg version="1.0" xmlns="http://www.w3.org/2000/svg"
 width="259.000000pt" height="285.000000pt" viewBox="0 0 259.000000 285.000000"
 preserveAspectRatio="xMidYMid meet">
<metadata>
Created by potrace 1.10, written by Peter Selinger 2001-2011
</metadata>
<g transform="translate(0.000000,285.000000) scale(0.100000,-0.100000)"
fill="#000000" stroke="none">
<path d="M832 2393 c-17 -60 -36 -126 -41 -148 -5 -22 -24 -87 -41 -144 -17
-57 -30 -110 -28 -117 2 -6 124 -130 271 -275 l268 -262 59 59 c32 32 149 153
260 268 198 205 202 210 197 245 -4 29 -29 128 -52 211 -18 63 -58 220 -62
243 l-5 27 -398 0 -397 0 -31 -107z m803 22 c12 -38 48 -192 79 -334 15 -67 7
-111 -20 -111 -7 0 -16 -9 -19 -20 -3 -11 -10 -20 -14 -20 -9 0 -61 -46 -61
-53 0 -10 -59 -67 -69 -67 -6 0 -11 -7 -11 -15 0 -8 -7 -15 -15 -15 -8 0 -18
-12 -21 -26 -4 -16 -12 -23 -20 -20 -8 3 -14 0 -14 -7 0 -18 -58 -67 -64 -53
-3 6 -8 1 -11 -11 -4 -13 -11 -23 -16 -23 -5 0 -9 -7 -9 -16 0 -8 -5 -12 -10
-9 -6 3 -14 -5 -20 -19 -7 -18 -14 -24 -26 -19 -12 4 -15 3 -10 -5 4 -7 2 -12
-3 -12 -6 0 -11 -8 -11 -17 0 -15 -2 -16 -10 -3 -5 8 -10 11 -10 6 0 -5 -10 4
-22 20 -13 16 -27 31 -32 33 -5 2 -26 19 -45 37 -20 19 -57 54 -83 79 -30 27
-48 53 -48 67 0 17 -3 19 -9 9 -7 -10 -18 -4 -50 28 -22 22 -46 41 -51 41 -5
0 -10 6 -10 13 -1 6 -11 20 -23 29 -64 50 -87 71 -83 76 3 3 -1 10 -9 16 -16
11 -11 44 16 101 5 11 10 32 11 48 1 15 5 27 8 27 3 0 6 10 7 23 2 28 19 107
26 127 3 8 8 31 11 52 3 20 11 48 17 62 l12 26 365 -2 365 -3 12 -40z m-130
-687 c-119 -123 -224 -227 -233 -232 -23 -12 -35 -25 212 229 121 124 224 225
229 225 5 0 -89 -100 -208 -222z m-320 -160 c38 -37 67 -69 64 -72 -3 -3 -79
70 -169 162 -91 92 -120 124 -65 71 55 -52 131 -125 170 -161z"/>
<path d="M1075 2367 c-25 -22 -25 -22 -26 -210 -1 -169 1 -190 16 -201 18 -13
13 -36 -6 -36 -18 0 -36 -24 -31 -42 2 -10 -1 -25 -8 -33 -21 -25 32 -59 92
-60 27 -1 51 3 54 7 3 5 11 5 17 1 19 -12 57 -11 57 1 0 8 3 8 8 0 4 -8 43
-11 112 -10 101 2 105 3 117 26 18 36 16 68 -8 93 -16 18 -31 22 -74 21 -40 0
-52 3 -48 13 3 7 9 10 14 7 13 -8 49 20 70 55 16 26 18 49 16 165 -2 119 -4
138 -23 163 -37 50 -76 62 -206 62 -108 0 -120 -2 -143 -22z m294 -26 c38 -21
51 -69 50 -183 -2 -181 -9 -188 -202 -196 l-135 -5 0 200 1 200 131 -2 c81 -1
140 -7 155 -14z m-261 -450 c9 -1 12 -13 10 -38 -3 -35 -6 -38 -35 -41 -32 -3
-33 -2 -33 36 0 44 4 51 28 47 9 -2 23 -4 30 -4z m173 -35 c1 -16 3 -14 8 8 5
24 12 29 43 32 21 2 40 -1 43 -7 4 -5 -4 -9 -17 -9 -22 -1 -22 -1 -4 -15 11
-8 14 -15 8 -15 -7 0 -12 -4 -12 -10 0 -5 9 -10 20 -10 16 0 20 7 20 33 0 29
3 33 23 31 12 -1 27 -3 33 -3 17 -1 14 -81 -2 -81 -14 0 -19 17 -16 53 1 9 -3
17 -8 17 -6 0 -10 -15 -10 -33 0 -32 -2 -34 -40 -35 -39 -2 -40 -1 -40 34 0
21 -4 33 -10 29 -5 -3 -10 -19 -10 -36 0 -24 -4 -29 -24 -29 -18 0 -25 7 -30
31 -3 17 -6 38 -6 46 0 25 30 -5 31 -31z m-83 -6 c0 -22 -3 -40 -8 -40 -11 0
-23 37 -15 49 3 5 1 12 -5 16 -6 4 -10 -8 -10 -29 0 -25 -4 -36 -15 -36 -11 0
-15 11 -15 40 0 39 1 40 34 40 33 0 34 -1 34 -40z m42 0 c0 -29 -4 -40 -15
-40 -11 0 -15 11 -15 40 0 29 4 40 15 40 11 0 15 -11 15 -40z"/>
<path d="M1210 2339 c0 -2 -2 -79 -3 -172 l-2 -167 36 0 c55 0 59 10 59 145 0
120 0 122 -27 146 -35 32 -63 53 -63 48z m52 -192 c2 -52 0 -93 -4 -91 -3 2
-9 -2 -11 -8 -3 -7 -6 41 -6 107 0 145 17 138 21 -8z"/>
<path d="M445 1886 l-240 -61 -3 -395 c-2 -308 1 -395 10 -402 12 -7 30 -13
171 -53 l59 -17 -25 -26 c-111 -119 -114 -423 -5 -547 52 -60 145 -70 210 -24
54 39 108 183 108 291 0 64 -26 183 -47 215 -17 26 -17 26 4 21 18 -5 46 19
160 136 76 77 194 198 263 269 l126 127 -269 263 c-148 144 -272 263 -275 263
-4 1 -115 -26 -247 -60z m242 -2 c12 -3 25 -14 28 -24 3 -9 17 -22 31 -29 14
-6 22 -16 19 -21 -3 -6 -2 -10 3 -10 6 0 41 -30 78 -68 38 -37 80 -75 94 -85
13 -9 19 -17 13 -17 -7 0 -10 -6 -7 -14 3 -8 13 -12 24 -9 12 3 20 -2 25 -16
3 -12 14 -21 23 -21 15 0 15 -2 2 -10 -13 -8 -11 -11 8 -16 12 -4 22 -10 22
-15 0 -5 7 -9 15 -9 8 0 12 -6 9 -14 -4 -10 2 -16 18 -18 16 -2 22 -9 20 -22
-2 -11 1 -15 7 -11 6 3 11 1 11 -4 0 -6 8 -11 18 -12 10 0 12 -3 4 -6 -6 -2
-10 -9 -6 -14 3 -5 -2 -9 -10 -9 -9 0 -16 -7 -16 -15 0 -8 -5 -15 -11 -15 -14
0 -39 -26 -32 -34 7 -7 -48 -52 -59 -49 -4 2 -5 -6 -3 -17 2 -11 -2 -20 -9
-20 -13 0 -56 -45 -56 -59 0 -5 -11 -12 -25 -15 -14 -4 -23 -11 -20 -16 4 -6
-1 -13 -9 -16 -9 -3 -16 -10 -16 -16 0 -5 -27 -36 -60 -69 -33 -32 -57 -59
-54 -59 3 0 -8 -11 -24 -25 -17 -14 -35 -25 -42 -25 -6 0 -8 -5 -5 -10 8 -14
-7 -13 -44 3 -17 7 -28 16 -24 20 3 4 -5 7 -20 7 -14 0 -38 5 -53 11 -22 8
-36 6 -66 -7 -30 -14 -40 -14 -53 -4 -8 7 -13 16 -10 20 2 4 -30 15 -73 25
-125 29 -113 -18 -110 403 l3 367 35 8 c19 5 109 26 200 47 187 43 177 42 207
34z m388 -596 c-168 -174 -201 -207 -178 -176 34 45 286 308 291 303 3 -3 -48
-60 -113 -127z m-473 -335 c92 -55 136 -281 87 -447 -17 -55 -31 -80 -64 -113
-38 -38 -47 -43 -89 -43 -77 0 -112 26 -152 114 -21 46 -28 80 -32 152 -8 155
26 267 100 329 36 30 105 34 150 8z"/>
<path d="M490 1686 c-46 -15 -80 -66 -80 -122 0 -43 26 -114 42 -114 15 0 8
-19 -18 -45 -23 -23 -26 -32 -21 -68 4 -33 14 -49 43 -74 l38 -31 -40 -8 c-67
-12 -89 -75 -36 -106 32 -19 220 -25 252 -8 12 6 21 7 25 0 4 -6 15 -5 30 2
19 8 28 8 40 -2 12 -10 20 -9 40 4 14 9 25 22 26 29 0 6 2 25 3 40 2 34 -4 39
-58 42 -69 4 -72 5 -39 20 18 7 38 23 45 34 7 12 20 21 28 21 9 0 11 3 5 8
-10 6 -12 23 -5 37 7 14 5 31 -5 37 -7 5 -6 8 1 8 9 0 12 38 4 48 -2 1 -3 6
-4 11 0 5 -12 19 -25 30 -14 12 -18 21 -11 21 7 0 11 3 7 6 -3 4 0 13 8 21 17
17 21 103 4 103 -5 0 -7 5 -4 10 3 6 1 10 -5 10 -6 0 -9 4 -6 8 3 5 -19 16
-49 26 -61 19 -180 20 -235 2z m222 -32 c36 -7 58 -39 58 -84 l0 -35 -55 0
c-44 0 -55 3 -55 17 0 9 -23 35 -50 58 l-51 43 3 -68 c3 -77 -1 -73 112 -95
38 -8 68 -21 84 -37 22 -22 24 -31 20 -85 -4 -49 -9 -64 -29 -79 -50 -37 -248
-34 -287 5 -9 8 -16 34 -16 57 l-1 41 55 1 c44 0 56 -4 58 -17 4 -16 73 -87
93 -94 12 -5 11 135 -1 143 -5 3 -44 13 -87 21 -101 19 -115 33 -116 114 0 73
13 90 75 101 42 7 136 3 190 -7z m104 -466 c-9 -12 -16 -30 -16 -40 0 -31 -25
-19 -36 17 -9 28 -8 35 2 35 8 0 14 -6 14 -12 0 -9 3 -10 8 -2 6 9 23 19 40
23 2 1 -4 -9 -12 -21z m-346 2 c0 -5 -8 -10 -17 -10 -17 -1 -17 -1 0 -11 25
-15 21 -39 -7 -39 -14 0 -28 5 -32 12 -5 8 0 9 14 6 12 -4 22 -2 22 3 0 5 -6
9 -14 9 -8 0 -18 5 -21 10 -10 16 4 30 31 30 13 0 24 -4 24 -10z m50 -12 l9
-23 0 23 c1 37 21 25 21 -13 0 -39 -21 -48 -39 -17 -10 16 -10 16 -11 0 0 -10
-4 -18 -10 -18 -5 0 -10 16 -10 35 0 41 25 49 40 13z m90 -2 c0 -14 5 -28 10
-31 6 -4 10 6 10 24 l0 31 57 -3 c47 -2 58 -5 61 -20 3 -12 -4 -20 -17 -24
-12 -3 -21 -9 -21 -14 0 -18 -19 -8 -22 12 l-3 20 -22 -20 c-25 -24 -53 -27
-71 -9 -9 9 -12 9 -12 0 0 -7 -4 -12 -10 -12 -11 0 -13 30 -4 54 10 26 44 20
44 -8z"/>
<path d="M496 928 c-14 -19 -16 -62 -16 -271 0 -152 4 -256 10 -268 14 -25 65
-26 74 -2 4 10 7 135 6 278 0 231 -2 261 -17 273 -24 18 -40 15 -57 -10z m62
-253 c1 -137 0 -260 -3 -273 -4 -17 -12 -22 -28 -20 -22 3 -22 3 -25 263 -1
143 0 266 3 273 3 7 15 12 27 10 l23 -3 3 -250z"/>
<path d="M1541 1681 l-262 -259 69 -68 c37 -38 128 -133 202 -211 74 -78 141
-145 149 -148 10 -4 9 1 -5 16 l-19 22 28 -18 c15 -9 27 -19 27 -21 0 -2 -17
-12 -37 -22 -29 -13 -38 -23 -38 -42 0 -24 3 -25 60 -25 33 -1 68 -5 78 -9 11
-5 34 -4 55 2 55 17 86 26 97 28 6 1 66 19 135 39 69 21 145 42 170 47 25 6
51 15 58 20 9 8 12 101 12 404 l0 394 -22 0 c-13 0 -54 10 -93 21 -38 11 -108
28 -155 38 -47 10 -109 26 -139 35 -101 30 -83 41 -370 -243z m394 213 l40
-14 -41 5 c-23 3 -56 12 -75 20 l-34 16 35 -7 c19 -4 53 -13 75 -20z m-355
-214 c-129 -126 -239 -230 -245 -230 -5 0 51 60 125 133 150 148 342 327 350
326 3 0 -101 -103 -230 -229z m333 189 c27 -5 52 -11 55 -13 4 -2 32 -6 62 -9
55 -6 55 -6 20 8 -48 18 -30 18 44 -1 33 -9 64 -21 68 -27 3 -6 26 -12 50 -14
80 -7 78 2 78 -388 0 -313 -1 -343 -17 -357 -19 -16 -198 -68 -236 -68 -12 0
-33 -6 -47 -13 -33 -17 -97 -35 -139 -40 -29 -3 -39 1 -59 24 -13 16 -31 29
-39 29 -8 0 -13 6 -10 13 3 8 -7 18 -24 26 -16 7 -27 17 -23 22 3 5 0 9 -5 9
-6 0 -11 7 -11 15 0 8 -7 15 -15 15 -8 0 -15 7 -15 15 0 8 -6 15 -14 15 -8 0
-18 9 -21 20 -3 11 -13 20 -21 20 -8 0 -12 5 -9 10 3 6 2 10 -4 10 -5 0 -12 9
-16 20 -3 11 -12 19 -18 17 -7 -1 -11 4 -9 11 1 6 -4 12 -12 12 -7 0 -20 8
-27 17 -12 15 -12 16 1 8 8 -5 4 3 -10 18 -14 15 -31 27 -37 27 -7 0 -13 7
-13 15 0 8 -5 15 -11 15 -5 0 -8 4 -5 9 3 5 -4 11 -17 15 -18 5 -20 8 -7 16
13 8 13 10 -1 10 -25 0 -31 38 -7 46 11 3 17 8 14 12 -3 3 3 11 14 19 11 8 20
21 20 30 0 9 3 14 6 10 8 -8 44 25 44 40 0 7 7 13 15 13 8 0 15 5 15 10 0 6 8
10 17 10 9 0 14 3 11 6 -6 6 35 54 46 54 4 0 14 7 22 15 9 8 12 15 9 15 -8 0
69 75 98 95 12 8 16 15 9 15 -7 0 13 23 44 51 38 34 61 48 72 44 10 -3 39 -11
65 -16z m-358 -699 c52 -56 56 -62 17 -25 -30 28 -99 100 -154 160 -90 98 -92
101 -18 25 46 -47 116 -119 155 -160z m224 -204 c16 -19 -9 -43 -54 -52 -61
-11 -78 26 -22 50 42 19 62 19 76 2z"/>
<path d="M1844 1680 c-18 -23 -20 -40 -19 -212 0 -212 2 -216 80 -219 56 -2
67 1 88 18 15 14 17 38 17 209 l0 193 -27 20 c-38 31 -111 26 -139 -9z m136
-205 l0 -195 -60 0 -60 0 0 195 0 195 60 0 60 0 0 -195z"/>
<path d="M1731 1232 c-27 -4 -53 -26 -44 -36 4 -3 1 -6 -6 -6 -8 0 -7 -9 5
-30 l18 -29 215 -1 c225 0 241 3 241 45 0 43 -26 53 -140 53 -58 0 -120 3
-137 6 -21 4 -33 2 -33 -4 0 -6 -5 -8 -11 -4 -14 9 -76 12 -108 6z m35 -39
c11 -14 13 -15 9 -2 -5 12 2 16 28 17 31 1 34 -1 35 -28 0 -23 -4 -30 -19 -30
-10 0 -19 5 -19 11 0 5 5 7 10 4 6 -3 10 -2 10 3 0 6 -7 12 -15 16 -10 4 -15
-1 -15 -14 0 -25 -30 -27 -31 -2 -1 16 -2 16 -6 0 -2 -10 -13 -18 -24 -18 -14
0 -19 7 -19 30 0 24 4 30 21 30 12 0 28 -8 35 -17z m127 10 c-7 -2 -13 -16
-13 -29 0 -34 -17 -30 -22 6 -4 27 -2 30 21 29 14 0 20 -3 14 -6z m58 -23 l7
-25 1 28 c1 34 21 36 21 2 0 -14 5 -25 10 -25 6 0 10 11 10 25 0 14 5 25 10
25 6 0 10 -11 10 -25 0 -14 5 -25 10 -25 6 0 10 11 10 26 0 24 3 25 46 22 43
-3 47 -5 50 -30 3 -30 -5 -35 -24 -16 -9 9 -12 9 -12 0 0 -10 -26 -12 -100
-11 -55 1 -100 4 -100 8 1 51 38 66 51 21z"/>
<path d="M1113 982 c-13 -4 -32 -15 -43 -25 -17 -14 -18 -21 -10 -37 19 -36
117 -22 139 19 21 38 -25 60 -86 43z m67 -27 c0 -19 -63 -50 -84 -42 -23 9
-20 36 7 47 36 14 77 12 77 -5z"/>
<path d="M1467 973 c-12 -12 -7 -50 8 -63 26 -22 16 -30 -35 -30 -59 0 -97
-17 -133 -60 -64 -75 -61 -207 5 -277 12 -13 17 -23 11 -23 -5 0 -22 -11 -37
-25 -33 -31 -36 -88 -5 -121 l21 -23 -21 -13 c-29 -18 -27 -54 6 -75 39 -26
202 -25 260 1 65 29 84 101 39 153 -23 27 -29 28 -134 33 -61 3 -114 8 -118
12 -4 4 -1 14 6 23 10 12 24 14 60 9 61 -8 108 8 148 49 37 38 52 81 52 149 0
60 -14 95 -52 135 l-31 32 27 31 c29 35 31 43 16 71 -8 14 -21 19 -49 19 -21
0 -41 -3 -44 -7z m70 -29 c12 -19 11 -25 -13 -53 l-26 -31 31 -35 c57 -65 73
-128 49 -196 -29 -87 -81 -123 -172 -121 -63 2 -86 -9 -86 -39 0 -23 18 -27
130 -32 111 -4 140 -21 140 -82 0 -66 -49 -98 -136 -87 l-49 7 59 5 c62 5 85
22 73 54 -10 25 -192 24 -206 -1 -15 -28 5 -53 42 -54 30 0 31 -1 10 -11 -29
-14 -82 0 -97 25 -9 15 -7 22 13 38 l24 20 -23 24 c-34 36 -31 81 8 116 18 16
32 31 32 35 0 3 -12 21 -27 41 -56 73 -39 215 34 270 28 21 46 27 91 28 64 1
76 17 48 59 -11 18 -12 26 -3 35 16 16 37 10 54 -15z m-11 -615 c13 -21 -18
-34 -89 -37 -77 -3 -104 6 -94 32 5 13 23 16 91 16 50 0 88 -4 92 -11z"/>
<path d="M1406 821 c-14 -15 -16 -38 -14 -146 3 -109 6 -129 21 -139 12 -8 22
-8 35 0 14 10 17 30 20 144 3 131 -3 160 -33 160 -6 0 -19 -8 -29 -19z m49
-23 c3 -13 5 -72 3 -133 -3 -98 -5 -110 -22 -113 -10 -2 -22 2 -27 10 -14 21
-11 232 3 246 19 19 37 14 43 -10z"/>
<path d="M767 866 c-3 -7 1 -26 9 -42 12 -22 14 -66 11 -223 -2 -108 -8 -211
-12 -228 l-7 -33 91 0 c89 0 91 0 91 24 0 13 -7 29 -15 36 -21 18 -22 360 -1
360 8 0 16 -7 20 -15 7 -19 40 -19 56 0 16 19 16 84 1 113 -13 25 -52 30 -70
8 -6 -7 -17 -31 -25 -52 l-15 -39 0 53 -1 52 -64 0 c-45 0 -65 -4 -69 -14z
m243 -61 c0 -52 -24 -71 -50 -40 -7 9 -19 14 -27 11 -7 -3 -13 -1 -13 5 0 15
31 73 44 81 15 10 46 -28 46 -57z m-142 49 c18 -5 22 -13 22 -43 0 -20 4 -41
9 -46 5 -6 11 -100 12 -210 l2 -200 -59 0 c-57 0 -59 1 -55 25 10 66 10 407 0
432 -18 44 6 58 69 42z"/>
<path d="M1044 858 c-4 -14 -1 -25 10 -33 14 -11 16 -39 16 -216 -1 -159 -4
-208 -15 -222 -27 -37 -9 -47 86 -47 80 0 89 2 89 19 0 10 -7 24 -15 31 -13
10 -15 51 -15 251 l0 239 -74 0 c-68 0 -75 -2 -82 -22z m133 -10 c4 -7 9 -111
10 -232 1 -138 5 -222 12 -229 32 -32 -84 -53 -125 -22 -12 9 -14 14 -6 15 11
0 13 47 10 240 l-3 240 47 0 c26 0 50 -5 55 -12z"/>
<path d="M1647 873 c-11 -10 -8 -53 3 -53 14 0 14 -417 0 -425 -5 -3 -10 -17
-10 -31 0 -24 1 -24 90 -24 79 0 90 2 90 18 0 9 -7 26 -16 37 -12 16 -14 59
-14 242 1 123 -1 227 -5 233 -7 11 -128 14 -138 3z m133 -247 c0 -142 5 -234
11 -242 14 -17 -19 -34 -68 -34 -52 0 -68 12 -54 38 15 29 15 424 0 439 -21
21 2 34 56 32 l54 -2 1 -231z"/>
<path d="M1853 864 c-3 -9 -1 -25 5 -35 15 -24 17 -425 2 -434 -5 -3 -10 -17
-10 -31 0 -24 2 -24 85 -24 83 0 85 0 85 24 0 14 -4 28 -10 31 -6 4 -10 80
-10 195 0 174 2 190 18 199 38 20 42 -3 42 -219 0 -147 3 -209 12 -218 7 -7
39 -12 75 -12 60 0 63 1 63 24 0 14 -4 28 -10 31 -6 4 -10 89 -10 221 0 215 0
215 -25 239 -32 33 -81 33 -129 0 l-36 -24 0 24 c0 24 -2 25 -70 25 -56 0 -72
-3 -77 -16z m304 -26 c16 -18 18 -43 20 -222 2 -110 5 -210 7 -220 7 -27 -11
-46 -43 -46 -59 0 -60 6 -63 227 -3 175 -5 205 -20 219 -14 15 -22 16 -43 6
l-26 -12 3 -216 c3 -211 3 -215 -18 -220 -11 -3 -38 -4 -58 -2 l-38 3 -1 253
-2 253 57 -3 c53 -3 58 -5 58 -25 0 -29 4 -29 43 1 52 39 91 40 124 4z"/>
</g>
</svg>
