<svg xmlns="http://www.w3.org/2000/svg" width="105" height="105" viewBox="0 0 105 105"><title>Logo</title><g fill="#fff"><path d="M91.72 47.7a2.61 2.61 0 0 0-2.36 1.21c-.94-.59-3.49-1.83-4.48-2.34l-.36-.18a.23.23 0 0 0-.18 0v-.06a2 2 0 0 0 0-.22c1-20.58-19.83-36.57-40-30.38a31.64 31.64 0 0 0-20.57 20.59 36.5 36.5 0 0 0-1.3 9.19l-.76.3-.55.23c-1 .44-2 .91-3 1.42s-2 1-2.91 1.63a.31.31 0 0 0-.12.39.32.32 0 0 0 .41.15c1-.46 2-.87 3-1.25s2.05-.72 3.09-1h.06c.5-.15 1-.28 1.51-.41l.78-.18h.09l.7-.15c1.05-.23 2.11-.37 3.17-.5h.12a1.09 1.09 0 1 0-.51-2.11c-1 .24-2 .5-2.91.81l.19-.06a33.6 33.6 0 0 1 1.19-8.19 29.25 29.25 0 0 1 19-19 30 30 0 0 1 2.43-.63c.79-.17 3.95-.62.5 1.31a26.34 26.34 0 0 0-12 14.94c-1 3.23-1.39 9.6-.69 14.49.22 1.53-.3 1.83-1.25 2.23-2 .85-5.5 2.39-7.3 4.57-.7.84-1 0-1.17-.6a30.7 30.7 0 0 1-.64-5 .49.49 0 0 0-.61-.45c-.49.12-1 .24-1.46.4a.49.49 0 0 0-.33.48c.28 6.43 1.91 12.41 5.81 12.22a.52.52 0 0 0 .47-.63 3 3 0 0 1-1.35-1.5c-1.29-3.86 10.67-8.91 26-11.2 14.08-2.11 26.17-1.15 28.27 2.06.434.55.482 1.31.12 1.91a9.5 9.5 0 0 1-3.81 3.75.58.58 0 0 0-.18.82.57.57 0 0 0 .74.2 11.1 11.1 0 0 0 4.7-4.36 11.9 11.9 0 0 0 1-4.48c1 .31 3.64 1.37 4.65 1.78H89a3 3 0 0 0-.08.51 2.9 2.9 0 0 0 2.62 3 2.63 2.63 0 0 0 2.75-2.53 2.88 2.88 0 0 0-2.57-3.05zM72 41.2a1.37 1.37 0 0 1-1.44 1.42 53.3 53.3 0 0 0-10.1.18 1.37 1.37 0 0 1-1.48-1.41v-1.18a.64.64 0 0 1 .5-.62 39.2 39.2 0 0 1 12-.14.6.6 0 0 1 .5.61zm7.06-3.35a.52.52 0 0 1-.63.2c-8.72-3.31-22.33-1.44-22.33-1.44a55.4 55.4 0 0 0-13.66 3.14 1.54 1.54 0 0 1-2.09-1.48 25 25 0 0 1 .36-3.57 18.16 18.16 0 0 1 3.77-8.83c.12-.14.24-.28.37-.41a.4.4 0 0 1 .08-.1l.06-.07.15-.16.07-.07c5.93-6.2 16.36-6.91 23.68-2.87a23.26 23.26 0 0 1 8.78 8.72c.32.6 2.34 5.27 1.39 6.94"/><path d="M74.42 30.09a15.15 15.15 0 0 0-7.19-6.3 22 22 0 0 0-10.65-1.62 14 14 0 0 0-3.77.83.51.51 0 0 0 .13 1 31.2 31.2 0 0 1 8.21.22c10 2 13.2 6.81 13.55 7 .1.05.22-.05.17-.15a11 11 0 0 0-.44-1M29.7 47.54a1 1 0 0 0 1.53.12 2.84 2.84 0 0 0 .71-1.2 5.63 5.63 0 0 0-.21-3.51 3.4 3.4 0 0 0-1.47-1.69.54.54 0 0 0-.41-.07 1.93 1.93 0 0 0-1 .77.33.33 0 0 0 .09.49 3 3 0 0 1 1.55 2.11 3.24 3.24 0 0 1-.79 2.55.33.33 0 0 0 0 .43M11 49a3.24 3.24 0 0 0-3.5 3 3.46 3.46 0 0 0 3.28 3.51 3.24 3.24 0 0 0 3.46-2.94A3.44 3.44 0 0 0 11 49"/><path d="M104.69 52.5c.002-24.442-16.938-45.62-40.783-50.988S15.68 8.022 5.209 30.107.972 78.585 20.22 93.65l1 .79c.34.26.69.51 1 .76a52.1 52.1 0 0 0 17.81 8.1h.15l.89.21.27.05.84.18.33.06.82.15.32.06q.81.13 1.62.24l.32.05.61.07.62.07.58.06.67.06h8.25l.57-.05.73-.06.6-.07.7-.08.61-.08.67-.1.62-.1.65-.1.63-.12.64-.12.63-.14.62-.13.63-.15.61-.15.77-.11.58-.16.65-.18.57-.17.64-.21q.285-.075.56-.18l.65-.22.54-.19.65-.24.52-.2.64-.25.5-.2.66-.28.49-.21.66-.3.47-.22.66-.32.45-.23.66-.33.44-.24c.23-.11.45-.23.66-.35l.43-.24.66-.38.4-.24.67-.4.38-.24.67-.42.36-.24.67-.45.34-.23.68-.48.31-.23.69-.51.28-.21.7-.54.25-.21.71-.57.21-.19.73-.61.17-.15.75-.68.11-.09.79-.75a52.1 52.1 0 0 0 16.11-37.74M68.35 70c-.07-.58-.14-1.17-.23-1.75s-.17-1.16-.28-1.73-.2-1.15-.31-1.72-.25-1.15-.39-1.67a.78.78 0 0 1 1.48-.47c.22.62.37 1.18.53 1.78s.3 1.17.43 1.76c.25 1.19.45 2.37.64 3.56.24 1.56.4 3.13.53 4.69 1 .05 2.07.12 3.1.22a40 40 0 0 1 8.22 1.73.71.71 0 0 1-.34 1.37h-.05c-1.34-.23-2.64-.55-4-.7l-1-.15-.5-.07h-.5l-2-.19c-.34-.05-.68 0-1-.07l-1-.06h-.74v.51l.08 1.79v5.4c0 1.2-.09 2.39-.13 3.58s-.17 2.39-.28 3.58a.78.78 0 0 1-1.55-.07c0-1.18 0-2.36.06-3.54s0-2.37 0-3.55 0-2.36-.06-3.53L69 78.93v-2.6h-3.34c-.68 0-1.36.06-2 .08s-1.36.07-2 .13c-1.36.09-2.72.22-4.07.37-2.71.31-5.43.7-8.08 1.22a.72.72 0 0 1-.84-.56.72.72 0 0 1 .51-.82c1.37-.37 2.71-.66 4.08-.93s2.73-.49 4.11-.7c.68-.11 1.38-.18 2.07-.27s1.38-.16 2.07-.22 1.38-.13 2.08-.16 1.39-.1 2.09-.11c1.1-.05 2.2-.06 3.31 0-.12-1.47-.26-2.93-.44-4.38m-26.7-7.09c-.5 1.66-1.67 5.66-2.4 8.79a252 252 0 0 0-4.09 27.62 49.3 49.3 0 0 1-12.59-6.86 113 113 0 0 1 3.85-17.78 29 29 0 0 1 2.62-6.05 8.5 8.5 0 0 1 3.52-2.94l.26-.12.43-.24.55-.28c.38-.18.75-.36 1.12-.52l.57-.25.56-.23 1.14-.44c1-.37 2.7-.89 3.76-1.2.55-.16.84 0 .7.5m44.54 14c-1.56-5.81-3.67-14.91-9.9-17-6.64-2.26-13.78-2.51-20.68-2.07a65.4 65.4 0 0 0-14.49 2.59c-2.09.61-8.79 3.18-10.12 3.86a9.13 9.13 0 0 0-3.77 3.15 31 31 0 0 0-2.81 6.48 124 124 0 0 0-3.85 17c-1.17-1-2.31-2-3.4-3.11-19.41-19.404-19.498-50.844-.196-70.356S67.915-2.33 87.528 16.87c19.612 19.2 20.029 50.637.932 70.35a81 81 0 0 0-2.07-10.32"/></g></svg>