<svg xmlns="http://www.w3.org/2000/svg" xml:space="preserve" id="svg18" width="66.1" height="74" x="0" y="0" viewBox="0 0 66.1 74"><style id="style1" type="text/css">.st4{fill:#a5de37}.st6{fill:#c8f178}</style><g id="Ebene_1"><g id="g18"><path id="path13" d="M34.5 64.3V72c1.2-.2 2.4-.6 3.4-1.2L60 58.2c3.1-1.8 5-5 5-8.6V24.5q0-1.65-.6-3.3l-6.7 3.9-18.5 10.6c-3.8 2.7-4.6 5.2-4.7 8.2z" class="st4"/><path id="path14" d="m56.2 22.4 6.7-3.9c-.8-1.1-1.8-2-2.9-2.6L37.9 3.3c-3.1-1.8-6.9-1.7-9.9 0L6 15.9q-1.8 1.05-3 2.7l6.7 3.9 18.5 10.6c2.2 1.4 3.7 2.8 4.7 4.4 1-1.6 2.5-3 4.7-4.4z" class="st4"/><path id="path15" d="m8.3 25.2-6.8-3.9c-.4 1-.6 2.1-.6 3.2v25.2c0 3.5 1.9 6.8 5 8.6l22 12.6c1 .6 2.2 1 3.4 1.2V43.9c-.1-3-.9-5.5-4.7-8.2z" class="st4"/><path id="path16" d="m64.4 21.2-6.7 3.9c.2.7.4 1.5.4 2.3v19.4c0 2.8-1.5 5.5-4 6.9l-17 9.7c-.8.4-1.6.7-2.5.9V72c1.2-.2 2.4-.6 3.4-1.2l22-12.6c3.1-1.8 5-5 5-8.6V24.5q0-1.65-.6-3.3" class="st6"/><path id="path17" d="m12 20.5 16.9-9.7c2.5-1.4 5.6-1.4 8 0l17 9.7c.9.5 1.6 1.2 2.2 1.9l6.7-3.9c-.8-1.1-1.8-2-2.9-2.6l-22-12.6c-3.1-1.8-6.9-1.7-9.9 0L6 15.9q-1.8 1.05-3 2.7l6.7 3.9c.7-.8 1.4-1.5 2.3-2" class="st6"/><path id="path18" d="M28.9 63.4 12 53.7c-2.5-1.4-4-4.1-4-6.9V27.4c0-.8.1-1.5.3-2.2l-6.8-3.9c-.4 1-.6 2.1-.6 3.2v25.2c0 3.5 1.9 6.8 5 8.6l22 12.6c1 .6 2.2 1 3.4 1.2v-7.7c-.8-.3-1.6-.6-2.4-1" class="st6"/></g></g></svg>