<svg xmlns="http://www.w3.org/2000/svg" width="48" height="48" viewBox="0 0 48 48"><linearGradient id="a" x1=".234" x2="45.28" y1="24.966" y2="24.966" gradientUnits="userSpaceOnUse"><stop offset="0" stop-color="#489fd8"/><stop offset="1" stop-color="#2e75bb"/></linearGradient><path fill="url(#a)" d="M39.826 22.392c2.015-.173 2.974-.326 3.581-1.45.63-1.166-.914-3.852-4.851-5.942 1.419-2.729 2.549-5.46 3.2-7.965.07-.271.048-.622-.08-.981-1.007 2.924-2.43 5.726-4.145 8.434-2.144-.976-4.896-1.75-8.257-2.091.011-.01.025-.013.035-.024-1.077-2.28-5.377-10.726-10.149-9.894-2.039.356-3.455 3.397-3.572 8.295-.727-1.055-2.427-3.098-3.992-1.824-1.029.837-1.873 3.27-1.787 6.623-3.227.207-6.272.712-7.955 1.132-1.405.351-1.62.997-1.62.997 2.551-.703 6.251-.938 9.654-.809.223 2.38.916 5.134 2.27 8.056-.257.381-6.844 10.248-3.323 13.753 1.858 1.849 4.962 1.154 8.327-.698-.453 1.058-.969 2.9.529 3.666 1.463.748 3.812 1.024 7.356-1.434 1.421 2.455 2.73 5.296 6.144 7.274-2.234-2.681-3.788-5.428-5.146-8.017 1.436-1.136 3.048-2.692 4.859-4.813a26 26 0 0 0 2.138-2.878c-.221.372-.642 1.044-1.124 1.607 11.273.457 13.047-2.449 13.284-3.588.169-.811.581-3.909-5.376-7.429m.397-2.049c-.109 1.149-1.266 1.148-2.087 1.129-.8-.403-1.683-.809-2.669-1.216a62 62 0 0 0 1.972-3.217c1.898 1.241 2.858 2.53 2.784 3.304m-20.8-9.766c.863-3.324 3.745-5.006 7.61 1.666-.274-.01-.531-.034-.812-.039-3.087-.051-5.499.698-7.333 1.852.095-1.403.297-2.564.535-3.479m-6.184 1.077c1.256-.905 2.187.571 2.362.876q.051 1.441.243 3.047a46 46 0 0 0-3.628-.12c.075-2.068.527-3.445 1.023-3.803m-1.244 22.357c-2.09-1.628 1.085-7.245 1.085-7.245l-.008-.015c.181.329.352.657.55.989 1.589 2.658 3.364 4.336 5.131 5.342-2.984 1.468-5.509 1.902-6.758.929m7.42 4.978c-.908-.437-.565-1.551-.28-2.18a43 43 0 0 0 2.63-1.875 62 62 0 0 0 1.979 3.333c-2.108 1.119-3.6 1.073-4.329.722m10.245-5.792c-2.287 2.641-4.275 4.195-5.899 5.061q.6-.321 1.266-.776a72 72 0 0 1-1.423-3.116c2.293-.026 4.181-.891 5.067-1.695a11.14 11.14 0 0 1-5.25.939 70 70 0 0 0 6.048-5.678 53 53 0 0 0 3.683-4.392 6.9 6.9 0 0 0-1.616-1.137 97 97 0 0 1-3.208 3.47c-2.763 2.853-5.815 5.165-8.572 6.682-1.8-.967-3.519-2.666-4.856-5.51-1.789-3.805-2.512-7.255-2.661-9.935q1.701.121 3.348.314c-1.144 1.936-1.491 4.035-1.142 5.599 0 0 .21-2.524 1.775-4.949.693 3.885 1.98 8.331 4.026 13.159.606-.255.989-.383 1.628-.734-2.412-6.557-3.087-11.527-3.038-15.126 1.61-1.09 3.8-1.812 6.788-1.685 4.599.196 8.188 1.343 10.663 2.674q-.951 1.37-1.996 2.707c-.915-1.487-2.259-2.757-4.007-3.729 1.085 1.049 2.518 2.4 3.407 4.223a70 70 0 0 0-5.027-1.638c-3.139-.901-6.011-1.509-8.66-1.901-.083.459-.209 1.293-.193 2.022 3.038.54 5.786 1.229 7.992 1.986 2.404.824 4.745 1.878 6.709 3.018.013 2.626-1.211 5.931-4.852 10.147m9.861-3.974c-1.003 2.276-4.893 2.438-6.367 2.415 1.761-2.813 2.536-5.491 2.485-7.897 2.859 1.86 4.592 3.873 3.882 5.482"/></svg>