<svg xmlns="http://www.w3.org/2000/svg" xmlns:xlink="http://www.w3.org/1999/xlink" height="800" width="1200" viewBox="-43.47015 -62.992 376.7413 377.952"><defs><linearGradient xlink:href="#a" id="z" x1="33.431" y1="31.965" x2="21.748" y2="11.781" gradientUnits="userSpaceOnUse"/><linearGradient gradientUnits="userSpaceOnUse" y2="26.357" x2="23.688" y1="11.319" x1="23.688" id="x" xlink:href="#b"/><linearGradient gradientUnits="userSpaceOnUse" y2="47.621" x2="44.096" y1="4.433" x1="12.378" id="y" xlink:href="#c"/><linearGradient gradientUnits="userSpaceOnUse" y2="33.759" x2="12.222" y1="37.206" x1="12.277" id="w" xlink:href="#d"/><linearGradient gradientUnits="userSpaceOnUse" y2="40.944" x2="36.183" y1="28.481" x1="7.605" id="t" xlink:href="#e"/><linearGradient gradientTransform="translate(.795 -1.326)" y2="35.281" x2="24.688" y1="35.281" x1="7.063" gradientUnits="userSpaceOnUse" id="v" xlink:href="#f"/><linearGradient id="f"><stop offset="0" stop-color="#838383"/><stop offset="1" stop-color="#bbb" stop-opacity="0"/></linearGradient><linearGradient id="e"><stop offset="0" stop-color="#bbb"/><stop offset="1" stop-color="#9f9f9f"/></linearGradient><linearGradient id="d"><stop offset="0" stop-color="#eee"/><stop offset="1" stop-color="#eee" stop-opacity="0"/></linearGradient><linearGradient id="m"><stop offset="0" stop-color="#e4e4e4"/><stop offset="1" stop-color="#d3d3d3"/></linearGradient><linearGradient id="c"><stop offset="0" stop-color="#fff"/><stop offset="1" stop-color="#fff" stop-opacity="0"/></linearGradient><linearGradient id="b"><stop offset="0" stop-color="#fff" stop-opacity=".255"/><stop offset="1" stop-color="#fff"/></linearGradient><linearGradient id="a"><stop offset="0" stop-color="#fff"/><stop offset=".5" stop-color="#e6e6e6"/><stop offset=".75" stop-color="#fff"/><stop offset=".842" stop-color="#e1e1e1"/><stop offset="1" stop-color="#fff"/></linearGradient><linearGradient xlink:href="#g" id="q" gradientUnits="userSpaceOnUse" gradientTransform="matrix(2.77439 0 0 1.9697 -1892.179 -872.885)" x1="302.857" y1="366.648" x2="302.857" y2="609.505"/><linearGradient id="g"><stop offset="0" stop-opacity="0"/><stop offset=".5"/><stop offset="1" stop-opacity="0"/></linearGradient><linearGradient id="n"><stop offset="0"/><stop offset="1" stop-opacity="0"/></linearGradient><linearGradient xlink:href="#h" id="C" x1="9.562" y1="6.953" x2="14.767" y2="14.2" gradientUnits="userSpaceOnUse"/><linearGradient xlink:href="#i" id="J" x1="11.997" y1="19.592" x2="17.774" y2="16.235" gradientUnits="userSpaceOnUse" gradientTransform="matrix(1.0149 0 0 1.00592 -.332 -.14)"/><linearGradient xlink:href="#j" id="K" x1="10.615" y1="28.123" x2="2.007" y2="27.235" gradientUnits="userSpaceOnUse" gradientTransform="translate(-.82 -5.307) scale(1.1767)"/><linearGradient xlink:href="#k" id="B" x1="12.233" y1="12.363" x2="16.871" y2="17.111" gradientUnits="userSpaceOnUse" gradientTransform="matrix(.96593 .2621 -.25882 .97818 2.957 -5.94)"/><linearGradient xlink:href="#l" id="I" gradientUnits="userSpaceOnUse" gradientTransform="matrix(.86603 -.5 .86149 1.49214 -17.88 -13.91)" x1="16.929" y1="34.011" x2="14.045" y2="29"/><linearGradient xlink:href="#l" id="H" gradientUnits="userSpaceOnUse" gradientTransform="matrix(.86603 -.5 .8013 1.3879 -12.818 -11.145)" x1="14.045" y1="37.576" x2="14.045" y2="29"/><linearGradient xlink:href="#l" id="G" gradientUnits="userSpaceOnUse" gradientTransform="matrix(.86603 -.5 .84348 1.46095 -19.74 -11.134)" x1="15.097" y1="36.968" x2="14.045" y2="29"/><linearGradient xlink:href="#l" id="F" gradientUnits="userSpaceOnUse" gradientTransform="matrix(.86603 -.5 .79796 1.38211 -15.73 -9.277)" x1="19.616" y1="39.253" x2="18.486" y2="29.909"/><linearGradient xlink:href="#l" id="E" gradientUnits="userSpaceOnUse" gradientTransform="matrix(.86603 -.5 .7975 1.3813 -15.7 -9.225)" x1="9.105" y1="38.828" x2="10.147" y2="30.141"/><linearGradient id="l"><stop offset="0" stop-color="#c4a000"/><stop offset="1" stop-color="#c4a000" stop-opacity="0"/></linearGradient><linearGradient id="k"><stop offset="0" stop-color="#c17d10"/><stop offset="1" stop-color="#9b650c"/></linearGradient><linearGradient id="j"><stop offset="0" stop-color="#b30000"/><stop offset=".5" stop-color="#ff5c5c"/><stop offset="1" stop-color="#c30000"/></linearGradient><linearGradient id="p"><stop offset="0"/><stop offset="1" stop-opacity="0"/></linearGradient><linearGradient id="i"><stop offset="0" stop-color="#dac203"/><stop offset=".5" stop-color="#fdec69"/><stop offset="1" stop-color="#fdef7e"/></linearGradient><linearGradient id="o"><stop offset="0" stop-color="#fef088"/><stop offset=".5" stop-color="#fde63a"/><stop offset="1" stop-color="#dac203"/></linearGradient><linearGradient id="h"><stop offset="0" stop-color="#fff"/><stop offset="1" stop-color="#fff" stop-opacity="0"/></linearGradient><radialGradient gradientUnits="userSpaceOnUse" gradientTransform="matrix(1.28624 .7817 -.71078 1.16955 -2.354 -4.877)" r="20.936" fy="2.959" fx="15.571" cy="2.959" cx="15.571" id="u" xlink:href="#m"/><radialGradient xlink:href="#n" id="r" gradientUnits="userSpaceOnUse" gradientTransform="matrix(2.77439 0 0 1.9697 -1891.633 -872.885)" cx="605.714" cy="486.648" fx="605.714" fy="486.648" r="117.143"/><radialGradient xlink:href="#n" id="s" gradientUnits="userSpaceOnUse" gradientTransform="matrix(-2.77439 0 0 1.9697 112.762 -872.885)" cx="605.714" cy="486.648" fx="605.714" fy="486.648" r="117.143"/><radialGradient xlink:href="#o" id="D" cx="20.764" cy="19.541" fx="20.764" fy="19.541" r="14.8" gradientTransform="matrix(.4494 -.2165 .56442 1.17162 -1.432 2.546)" gradientUnits="userSpaceOnUse"/><radialGradient xlink:href="#p" id="A" cx="22.571" cy="30.857" fx="22.571" fy="30.857" r="15.571" gradientTransform="matrix(1 0 0 .65138 0 10.758)" gradientUnits="userSpaceOnUse"/></defs><g transform="translate(5.968 1.796) scale(5.81915)"><g color="#000"><path style="marker:none" overflow="visible" opacity=".402" fill="url(#q)" d="M-1559.252-150.697h1339.633V327.66h-1339.633z" transform="matrix(.02453 0 0 .02087 45.69 36.154)"/><path style="marker:none" d="M-219.619-150.68v478.33c142.874.9 345.4-107.17 345.4-239.196S-33.655-150.68-219.619-150.68z" overflow="visible" opacity=".402" fill="url(#r)" transform="matrix(.02453 0 0 .02087 45.69 36.154)"/><path d="M-1559.252-150.68v478.33c-142.875.9-345.4-107.17-345.4-239.196s159.436-239.134 345.4-239.134z" style="marker:none" overflow="visible" opacity=".402" fill="url(#s)" transform="matrix(.02453 0 0 .02087 45.69 36.154)"/></g><path d="M11.286 7.963c-.625 0-1.032.29-1.282.843L3.536 25.91s-.25.671-.25 1.781v9.65c0 1.083.657 1.625 1.656 1.625h38.562c.985 0 1.594-.718 1.594-1.844v-9.65s.106-.77-.094-1.312L38.286 8.963c-.185-.512-.637-.988-1.125-1z" fill="none" stroke="#535353" stroke-width="2" stroke-linecap="round" stroke-linejoin="round"/><path d="M3.274 26.997l.764-.692 37.61.062 3.462.317v10.439c0 1.125-.607 1.843-1.592 1.843H4.935c-.998 0-1.661-.542-1.661-1.624z" fill="url(#t)" fill-rule="evenodd"/><path d="M3.55 25.914c-.715 1.465-.002 2.393 1.035 2.393h39c1.119-.024 1.845-1.012 1.428-2.143L38.3 8.954c-.184-.512-.655-.988-1.143-1H11.3c-.625 0-1.036.303-1.286.857L3.55 25.914z" fill="url(#u)" fill-rule="evenodd"/><path style="marker:none" color="#000" overflow="visible" fill="url(#v)" fill-rule="evenodd" d="M7.858 31.174h17.625v5.563H7.858z"/><path d="M7.858 36.737v-4.012c1.836 3.18 8.296 4.012 12.937 4.012H7.858z" opacity=".811" fill="url(#w)" fill-rule="evenodd"/><path d="M44.796 25.629c.064 1.25-.414 2.316-1.322 2.343H5.355c-1.289 0-1.867-.325-2.084-.868.092.945.826 1.65 2.084 1.65h38.119c1.076-.033 1.753-1.424 1.352-2.995l-.03-.13z" fill="#fff" fill-rule="evenodd"/><path d="M10.969 10.156c-.046.2-.188.387-.188.594 0 .949.591 1.79 1.344 2.594.24-.154.365-.355.625-.5-.94-.816-1.553-1.717-1.781-2.688zm26.656 0c-.229.97-.842 1.873-1.781 2.688.274.153.404.368.656.531.757-.807 1.313-1.673 1.313-2.625 0-.207-.142-.393-.188-.594zm2.188 8.438c-.614 4.04-7.3 7.25-15.532 7.25-8.212 0-14.86-3.193-15.5-7.219-.032.197-.125.392-.125.594 0 4.318 6.99 7.844 15.625 7.843 8.636 0 15.656-3.525 15.657-7.843 0-.213-.09-.418-.126-.625z" style="marker:none" color="#000" overflow="visible" opacity=".691" fill="url(#x)" fill-rule="evenodd"/><ellipse ry="1.016" rx="1.37" cy="25.594" cx="7.204" transform="translate(.088 .177)" style="marker:none" color="#000" overflow="visible" fill="#fff" fill-opacity=".458" fill-rule="evenodd"/><ellipse ry="1.016" rx="1.37" cy="25.594" cx="7.204" style="marker:none" transform="translate(33.967 .088)" color="#000" overflow="visible" fill="#fff" fill-opacity=".458" fill-rule="evenodd"/><path d="M11.643 8.416c-.602 0-.993.28-1.234.812l-6.415 16.59s-.24.647-.24 1.716v9.29c0 1.354.443 1.627 1.594 1.627h37.687c1.323 0 1.534-.317 1.534-1.838v-9.29s.102-.742-.09-1.264L37.886 9.253c-.178-.492-.551-.826-1.02-.837z" fill="none" stroke="url(#y)" stroke-linecap="round" stroke-linejoin="round"/><path d="M40.5 31.43v5.02m-2-4.961v5.02m-2-5.02v5.02m-2-5.02v5.02m-2-5.02v5.02m-2-5.02v5.02" fill="none" stroke="#fff" stroke-linecap="square" stroke-opacity=".424"/><path d="M39.5 31.48v5.02m-2-4.961v5.02m-2-5.02v5.02m-2-5.02v5.02m-2-5.02v5.02" opacity=".097" fill="none" stroke="#000" stroke-linecap="square"/><path d="M7.875 31.188v5.53h12.563l-12.22-.343z" opacity=".44" fill="#fff" fill-rule="evenodd"/><ellipse ry="6.688" rx="14.875" cy="19.563" cx="25" style="marker:none" transform="matrix(1.03781 0 0 1.06075 -1.633 -2.095)" color="#000" overflow="visible" opacity=".206" fill="url(#z)" fill-rule="evenodd"/></g><g transform="translate(-22.764 -4.82) scale(5.20483)"><ellipse ry="10.143" rx="15.571" cy="30.857" cx="22.571" style="marker:none" transform="matrix(1.43578 0 0 .8257 -5.05 13.432)" color="#000" overflow="visible" opacity=".474" fill="url(#A)"/><path d="M6.916 1.778c1.73-.878 4.126.004 5.012 1.557l4.17 9.485c.886 1.554.634 3.37-.566 4.07-1.2.702-2.878.016-3.764-1.538L5.85 6.996c-.886-1.554-.63-4.357 1.066-5.218z" fill="url(#B)" fill-rule="evenodd" stroke="#8f5902" stroke-width="1.006" stroke-linecap="round"/><path d="M7.446 2.736c1.422-.786 2.821-.193 3.696 1.34l4.448 10.086-2.432 1.42-6.296-8.82c-.875-1.533-.877-3.219.584-4.026z" opacity=".423" fill="none" stroke="url(#C)" stroke-width="1.006" stroke-linecap="round"/><path d="M14.78 22.794c-.795 4.286.635 13.952 6.26 19.694 4.347.14 13.99-3.418 20.531-10.197-9.236-4.517-15.536-15.723-20.435-13.283z" fill="url(#D)" fill-rule="evenodd" stroke="#c4a000"/><path d="M16.338 24.367c2.35 6.27 2.49 12.789 7.184 17.92" fill="none" stroke="url(#E)" stroke-linecap="round"/><path d="M15.919 23.414c-.912.508-.16 12.52 5.584 18 7.386-.186 15.524-6.396 18.393-8.837-9.5-5.984-14.925-14.762-18.48-12.574z" opacity=".462" fill="none" stroke="#fff"/><path d="M23.848 22.273c.867-.749 5.75 6.088 14.999 12.382" fill="none" stroke="url(#F)" stroke-linecap="round"/><path d="M18.013 22.864c3.712 5.347 2.963 12.424 8.84 18.081" fill="none" stroke="url(#G)" stroke-linecap="round"/><path d="M22.984 22.776S31.16 35.847 34.166 37.88" fill="none" stroke="url(#H)" stroke-linecap="round"/><path d="M19.3 22.2c3.447 2.918 8.703 14.164 11.31 17.478" fill="none" stroke="url(#I)" stroke-linecap="round"/><path d="M8.509 18.062l11.462-6.559c.598 2.383-.342 3.24 1.796 7.148l-7.91 4.526c-1.454-3.477-3.566-3.41-5.348-5.115z" fill="url(#J)" fill-rule="evenodd" stroke="#c4a000" stroke-width="1.01" stroke-linecap="round" stroke-linejoin="round"/><path d="M14.043 21.246c-.814-1.422-2.562-2.237-3.679-3.128l8.758-4.933c-.02 1.48.566 3.088.875 4.518z" opacity=".247" fill="none" stroke="#fff"/><rect width="13.015" height="3.46" x="-1.413" y="24.175" rx="1" ry="1" transform="rotate(-30)" fill="url(#K)" fill-rule="evenodd" stroke="#690000" stroke-linecap="round"/><circle r="2.147" cy="4.084" cx="-19.319" transform="rotate(15 -9.364 80.275) scale(.60414)" fill="#fff" fill-rule="evenodd" stroke="#8f5902" stroke-width="1.655" stroke-linecap="round" stroke-linejoin="round"/><path d="M27.735 40.555s1.506-.5 2.176-.942c-1.238-1.944-3.403-5.895-5.403-8.875 1.193 6.54 3.227 9.817 3.227 9.817zm3.407-1.497l2.026-1.085c-1.945-1.856-7.469-10.116-7.469-10.116zm4.517-2.67l2.436-1.744c-3.182-1.326-11.587-9.88-11.587-9.88 2.383 3.012 6.768 8.612 9.15 11.624zm3.495-2.471l1.692-1.41c-3.315-1.502-12.496-9.911-12.496-9.911s6.075 9.2 10.804 11.321zm-14.778 7.655s1.197-.28 2.044-.456c-1.459-1.237-3.801-4.437-5.094-8.61.53 6.894 3.05 9.066 3.05 9.066zm-3.006.398l1.249-.014c-2.298-2.52-3.138-5.366-4.431-9.406-.133 4.684 3.183 9.42 3.183 9.42z" opacity=".317" fill="#fff" fill-rule="evenodd"/></g></svg>