<svg xmlns="http://www.w3.org/2000/svg" aria-labelledby="title desc" style="--c1:#2563EB;--c2:#0F172A;--c3:#38BDF8;--bg:transparent" viewBox="0 0 256 256"><title>BrowserBench — Logo Mark</title><desc>Speed dial with pixel grid, representing browser benchmarks.</desc><defs><style>.grid{fill:var(--c2);opacity:.06}</style></defs><rect width="256" height="256" rx="28" ry="28" style="fill:var(--bg)"/><g transform="translate(16 16)"><rect width="10" height="10" class="grid" rx="2"/><rect width="10" height="10" x="20" y="16" class="grid" rx="2"/><rect width="10" height="10" x="40" y="32" class="grid" rx="2"/><rect width="10" height="10" x="60" y="48" class="grid" rx="2"/><rect width="10" height="10" y="64" class="grid" rx="2"/><rect width="10" height="10" x="20" y="80" class="grid" rx="2"/></g><circle cx="128" cy="128" r="84" style="fill:none;stroke:var(--c1);stroke-width:12;stroke-linecap:round"/><path d="M128 44v20m42-8.746-8 13.856M200.746 86l-13.856 8M212 128h-16m4.746 42-13.856-8M170 200.746l-8-13.856" style="stroke:var(--c1);stroke-width:8;stroke-linecap:round"/><g transform="rotate(-24 365.096 -237.096)"><path d="M0 0v-58" style="stroke:var(--c3);stroke-width:12;stroke-linecap:round"/><circle r="9" style="fill:var(--c3)"/></g></svg>