<?xml version="1.0" encoding="UTF-8"?>
<svg width="256" height="256" viewBox="0 0 256 256" xmlns="http://www.w3.org/2000/svg">
  <defs>
    <linearGradient id="bgGradient" x1="0" y1="0" x2="1" y2="1">
      <stop offset="0" stop-color="#1f2937" />
      <stop offset="1" stop-color="#111827" />
    </linearGradient>
    <linearGradient id="arcGradient" x1="0" y1="0" x2="1" y2="0">
      <stop offset="0" stop-color="#34d399" />
      <stop offset="0.5" stop-color="#fbbf24" />
      <stop offset="1" stop-color="#ef4444" />
    </linearGradient>
  </defs>
  <rect width="256" height="256" rx="56" fill="url(#bgGradient)" />
  <g>
    <circle cx="128" cy="172" r="96" fill="none" stroke="#ffffff" stroke-opacity="0.08" stroke-width="18" />
    <circle cx="128" cy="172" r="72" fill="none" stroke="#ffffff" stroke-opacity="0.1" stroke-width="6" />
    <path d="M55.3 130 A 84 84 0 0 1 200.7 130" fill="none" stroke="url(#arcGradient)" stroke-width="18" stroke-linecap="round" />
    <g stroke="#f3f4f6" stroke-linecap="round" stroke-width="6">
      <line x1="128" y1="96" x2="128" y2="112" />
      <line x1="187.4" y1="112.6" x2="177.5" y2="122.5" stroke-width="5" />
      <line x1="212" y1="172" x2="198" y2="172" />
      <line x1="187.4" y1="231.4" x2="177.5" y2="221.5" stroke-width="5" />
      <line x1="128" y1="248" x2="128" y2="234" />
    </g>
    <line x1="128" y1="172" x2="162" y2="113.1" stroke="#38bdf8" stroke-width="10" stroke-linecap="round" />
    <circle cx="128" cy="172" r="24" fill="#0f172a" stroke="#38bdf8" stroke-width="6" />
    <circle cx="128" cy="172" r="8" fill="#38bdf8" />
    <circle cx="128" cy="120" r="22" fill="#2563eb" opacity="0.7" />
    <circle cx="128" cy="120" r="10" fill="#60a5fa" opacity="0.85" />
  </g>
</svg>
