<svg xmlns="http://www.w3.org/2000/svg" width="640" height="200" aria-labelledby="t d" style="--fg:#f1f5f9;--fg-muted:#94a3b8;--acc:#22d3ee;--ring:#475569" viewBox="0 0 640 200"><title id="t">byGOG Lab - Logo (Icons Tagline)</title><desc id="d">Two-line wordmark with badge and icon-accented tagline; light/dark-aware.</desc><style>.tag{fill:var(--fg-muted);font:600 17px/1.3&quot;Outfit&quot;,&quot;Inter&quot;,&quot;Segoe UI&quot;,system-ui,-apple-system,sans-serif;letter-spacing:.26px}.ico{fill:none;stroke:var(--fg-muted);stroke-width:2;stroke-linecap:round;stroke-linejoin:round}</style><defs><symbol id="badge" viewBox="0 0 136 136"><circle cx="68" cy="68" r="56" style="fill:none;stroke:var(--ring);stroke-width:6;stroke-linecap:round;stroke-linejoin:round"/><path d="M114 68a46 46 0 1 1-46-46m18 70h40" style="fill:none;stroke:var(--fg);stroke-width:10;stroke-linecap:round;stroke-linejoin:round"/><circle cx="112" cy="26" r="6" fill="var(--acc)"/></symbol><symbol id="ico-fast" viewBox="0 0 24 24"><path d="M3 6h8m-8 6h14M3 18h10" class="ico"/></symbol><symbol id="ico-shield" viewBox="0 0 24 24"><path d="m12 3 7 3v6c0 6-5 9-7 9s-7-3-7-9V6z" class="ico"/></symbol><symbol id="ico-bulb" viewBox="0 0 24 24"><circle cx="12" cy="10" r="4" class="ico"/><path d="M10 14h4m-3.5 2h3M11 18h2" class="ico"/></symbol></defs><use width="160" height="160" href="#badge" transform="translate(40 20)"/><g transform="translate(240 88)"><text style="fill:var(--fg);font:800 44px/1.1&quot;Outfit&quot;,&quot;Inter&quot;,&quot;Segoe UI&quot;,system-ui,-apple-system,sans-serif;letter-spacing:.3px">byGOG</text><text y="44" style="fill:var(--acc);font:800 44px/1.1&quot;Outfit&quot;,&quot;Inter&quot;,&quot;Segoe UI&quot;,system-ui,-apple-system,sans-serif;letter-spacing:.3px">Lab</text><rect width="164" height="4" x="2" y="54" fill="var(--acc)" opacity=".65" rx="2"/><g transform="translate(0 84)"><use width="16" height="16" y="-12" href="#ico-fast"/><text x="24" class="tag">Hızlı</text><use width="16" height="16" x="112" y="-12" href="#ico-shield"/><text x="136" class="tag">Güvenli</text><use width="16" height="16" x="232" y="-12" href="#ico-bulb"/><text x="256" class="tag">Yenilikçi</text></g></g></svg>