<svg xmlns="http://www.w3.org/2000/svg" xml:space="preserve" viewBox="0 0 31.7 28.4"><path fill="#924716" d="M27.6 27.2H5.7V1h21.9v5.9z"/><path fill="#793812" d="M27.6 1v26.2h-1.9V2.6z"/><path fill="#9f5326" d="M25.4 2.6H3.5V1h23.8z"/><path fill="#80b5e3" d="M27.6 27.2H3.7V1h4.8l4.1 3.2 4-1.6 2.5 3.1 4.7-.8 1.9 5.8 1.9 7.4 2.9 3-1.5 2.5 2.7 4.8zm-23.9 0V1L0 0l1.9 4.2L0 7.5l1.9 3.3L0 14.1l1.9 3.2L0 20.6l1.9 3.3L0 28.4z"/><path fill="#fff" d="M10.4 2.6h-5L3.5 1h4.8z" opacity=".2"/><g fill="#924716"><path d="M18.3 13.7c-.7.6-2.5 1.9-4.4 2.3-2.3.5-3.6-1.4-3.1-3.2.5-2.1 2.8-3.7 4.8-3 .9.3.6 1.5.3 2.1-.8 1.5.3 1.7.8 1.2 1.5-1.6 2.4-4.3-.2-5.3-4-1.5-7.3 2.2-8.4 5.2-1.7 4.8 2.4 9 7.1 5.8 1.2-.8 2.6-2.2 3.5-3.4.8-1.2.3-2.3-.4-1.7"/><ellipse cx="22.4" cy="11.5" rx="1.6" ry="1.1" transform="rotate(-45.008 22.435 11.482)"/><ellipse cx="21.9" cy="15.8" rx="1.6" ry="1.1" transform="rotate(-45.008 21.873 15.833)"/></g><path fill="#fff" d="m5.7 25.5-2 1.7V1l2 1.6z" opacity=".2"/><path fill="#342565" d="M27.6 27.2H3.7l2-1.7h20zm0 0-1.9-1.7V10.7l1.9 7.4z" opacity=".2"/></svg>