<svg xmlns="http://www.w3.org/2000/svg" width="64" height="64"><path d="M7.468 4.246a3.27 3.27 0 1 1-6.54 0 3.27 3.27 0 1 1 6.54 0z" style="fill:none;stroke:#000;stroke-width:4.37255669;stroke-linecap:butt;stroke-linejoin:round;stroke-miterlimit:4;stroke-opacity:1;stroke-dasharray:none;stroke-dashoffset:0" transform="matrix(-2.74439 0 0 2.74439 56.004 6.895)"/><path d="M8.218 1043.189c-5.831 3.167-2.358 7.37-2.358 7.37 1.055-2.125 3.6-6.272 3.6-6.272s-.921-.753-1.242-1.099z" style="fill:#fff;fill-opacity:1;stroke:#000;stroke-width:1.29999995;stroke-miterlimit:4;stroke-opacity:1;stroke-dasharray:none" transform="matrix(4 0 0 4 .003 -4144.827)"/><path d="M7.468 4.246a3.27 3.27 0 1 1-6.54 0 3.27 3.27 0 1 1 6.54 0z" style="fill:none;stroke:#000;stroke-width:4.37255669;stroke-linecap:butt;stroke-linejoin:round;stroke-miterlimit:4;stroke-opacity:1;stroke-dasharray:none;stroke-dashoffset:0" transform="translate(7.994 6.895)scale(2.74439)"/><path d="M8.218 1043.189c-5.831 3.167-2.358 7.37-2.358 7.37 1.055-2.125 3.6-6.272 3.6-6.272s-.921-.753-1.242-1.099" style="fill:#e6e6e6;fill-opacity:1;stroke:none" transform="matrix(4 0 0 4 .003 -4144.827)"/><path d="M7.78 1043.189c5.83 3.167 2.358 7.37 2.358 7.37-1.055-2.125-3.6-6.272-3.6-6.272s.92-.753 1.242-1.099z" style="fill:#fff;fill-opacity:1;stroke:#000;stroke-width:1.29999995;stroke-miterlimit:4;stroke-opacity:1;stroke-dasharray:none" transform="matrix(4 0 0 4 .003 -4144.827)"/><path d="M7.468 4.246a3.27 3.27 0 1 1-6.54 0 3.27 3.27 0 1 1 6.54 0z" style="fill:none;stroke:#7fca9b;stroke-width:2.67028236;stroke-linecap:butt;stroke-linejoin:round;stroke-miterlimit:4;stroke-opacity:1;stroke-dasharray:none;stroke-dashoffset:0" transform="matrix(-2.74439 0 0 2.74439 56.004 6.895)"/><path d="M7.78 1043.189c5.83 3.167 2.358 7.37 2.358 7.37-1.055-2.125-3.6-6.272-3.6-6.272s.92-.753 1.242-1.099" style="fill:#e6e6e6;fill-opacity:1;stroke:none" transform="matrix(4 0 0 4 .003 -4144.827)"/><path d="M7.468 4.246a3.27 3.27 0 1 1-6.54 0 3.27 3.27 0 1 1 6.54 0z" style="fill:none;stroke:#7fca9b;stroke-width:2.67028236;stroke-linecap:butt;stroke-linejoin:round;stroke-miterlimit:4;stroke-opacity:1;stroke-dasharray:none;stroke-dashoffset:0" transform="translate(7.994 6.895)scale(2.74439)"/></svg>