<svg xmlns="http://www.w3.org/2000/svg" viewBox="0 0 32 32"><defs><linearGradient id="a" x1="7.579" x2="7.433" y1="13.474" y2="20.898" gradientUnits="userSpaceOnUse"><stop offset="0%" stop-color="#141e24"/><stop offset="100%" stop-color="#e96c4c"/></linearGradient><linearGradient id="b" x1="7.579" x2="7.55" y1="13.474" y2="17.696" gradientUnits="userSpaceOnUse"><stop offset="0%" stop-color="#141e24"/><stop offset="100%" stop-color="#e96c4c"/></linearGradient><linearGradient id="c" x1="24.408" x2="24.554" y1="13.476" y2="20.901" gradientUnits="userSpaceOnUse"><stop offset="0%" stop-color="#141e24"/><stop offset="100%" stop-color="#e96c4c"/></linearGradient><linearGradient id="d" x1="24.408" x2="24.437" y1="13.476" y2="17.698" gradientUnits="userSpaceOnUse"><stop offset="0%" stop-color="#141e24"/><stop offset="100%" stop-color="#e96c4c"/></linearGradient><linearGradient id="e" x1="7.579" x2="7.439" y1="13.658" y2="20.758" gradientUnits="userSpaceOnUse"><stop offset="0%" stop-color="#141e24"/><stop offset="100%" stop-color="#e96c4c"/></linearGradient><linearGradient id="f" x1="7.579" x2="7.551" y1="13.658" y2="17.696" gradientUnits="userSpaceOnUse"><stop offset="0%" stop-color="#141e24"/><stop offset="100%" stop-color="#e96c4c"/></linearGradient><linearGradient id="g" x1="24.408" x2="24.547" y1="13.66" y2="20.76" gradientUnits="userSpaceOnUse"><stop offset="0%" stop-color="#141e24"/><stop offset="100%" stop-color="#e96c4c"/></linearGradient><linearGradient id="h" x1="24.408" x2="24.436" y1="13.66" y2="17.698" gradientUnits="userSpaceOnUse"><stop offset="0%" stop-color="#141e24"/><stop offset="100%" stop-color="#e96c4c"/></linearGradient></defs><path fill="transparent" d="M0 0h32v32H0z"/><path fill="#316e7d" d="M3.368 30.316V13.474c0-6.802 5.23-11.383 11.79-11.79 7.402-.458 13.474 4.387 13.474 11.79v16.842z"/><path fill="#141e24" d="M5.053 30.316V13.474c0-3.052 1.33-5.763 3.543-7.667a10 10 0 0 1 6.562-2.439c-1.692.457-3.114 1.416-4.214 2.706-1.675 1.963-2.523 4.583-2.523 7.4v6.736c2.056-1.631 4.336-2.86 6.737-3.368a12.2 12.2 0 0 1 5.053 0c2.4.507 4.68 1.737 6.736 3.369v10.105z"/><path fill="#8bbcc7" d="M10.105 28.07c0-.67.48-1.123 1.072-1.123s1.072.452 1.072 1.123v1.123c0 .67-.48 1.123-1.072 1.123s-1.072-.452-1.072-1.123zm3.215 0c0-.67.48-1.123 1.072-1.123s1.072.452 1.072 1.123v1.123c0 .67-.479 1.123-1.072 1.123-.592 0-1.071-.452-1.071-1.123zm3.216 0c0-.67.479-1.123 1.072-1.123s1.071.452 1.071 1.123v1.123c0 .67-.478 1.123-1.071 1.123s-1.072-.452-1.072-1.123zm3.215 0c0-.67.48-1.123 1.072-1.123s1.072.452 1.072 1.123v1.123c0 .67-.48 1.123-1.072 1.123s-1.072-.452-1.072-1.123z"/><g fill="#e96c4c"><path d="M11.79 15.63c1.228-1.043 2.682-1.608 4.21-1.608 1.527 0 2.982.565 4.21 1.608v3.738c-1.24-1.008-2.692-1.551-4.21-1.551s-2.97.543-4.21 1.551z" opacity=".25"/><path d="M11.79 16.168c1.228-1.044 2.682-1.609 4.21-1.609 1.527 0 2.982.565 4.21 1.609v2.73c-1.24-1.01-2.692-1.552-4.21-1.552s-2.97.543-4.21 1.551z" opacity=".25"/><path d="M0 17.684a7.555 7.555 0 0 1 7.579-7.579 7.573 7.573 0 0 1 7.579 7.58 7.573 7.573 0 0 1-7.579 7.578A7.556 7.556 0 0 1 0 17.684" opacity=".25"/><path d="M.81 17.671a6.735 6.735 0 0 1 6.756-6.755 6.75 6.75 0 0 1 6.756 6.755 6.75 6.75 0 0 1-6.756 6.756A6.735 6.735 0 0 1 .811 17.67m16.031.014a7.555 7.555 0 0 1 7.58-7.579A7.573 7.573 0 0 1 32 17.685a7.573 7.573 0 0 1-7.579 7.578 7.556 7.556 0 0 1-7.579-7.579" opacity=".25"/><path d="M17.653 17.688a6.75 6.75 0 0 1 6.772-6.772 6.767 6.767 0 0 1 6.773 6.772 6.767 6.767 0 0 1-6.773 6.773 6.75 6.75 0 0 1-6.772-6.773" opacity=".25"/></g><path fill="url(#a)" d="M3.368 17.684a4.197 4.197 0 0 1 4.21-4.21 4.207 4.207 0 0 1 4.212 4.21 4.207 4.207 0 0 1-4.211 4.21 4.197 4.197 0 0 1-4.21-4.21"/><path fill="url(#b)" d="M11.79 17.684c-.021 1.182-.484 2.243-1.27 3.015a4.12 4.12 0 0 1-2.941 1.196c-1.365-.024-2.646-.767-3.612-1.983.553-2.201 1.872-3.788 3.79-4.111 1.586-.267 3.05.434 4.033 1.883"/><path fill="url(#c)" d="M28.618 17.687a4.2 4.2 0 0 0-4.21-4.211 4.207 4.207 0 0 0-4.21 4.21 4.207 4.207 0 0 0 4.21 4.211 4.2 4.2 0 0 0 4.21-4.21"/><path fill="url(#d)" d="M20.197 17.687c.02 1.182.484 2.242 1.27 3.014a4.12 4.12 0 0 0 2.94 1.196c1.366-.023 2.647-.767 3.613-1.982-.42-2.108-1.624-3.655-3.49-4.06-1.67-.364-3.232.338-4.333 1.831"/><path fill="#fff" d="M11.79 16.675c1.202-1.04 2.637-1.602 4.143-1.613 1.545-.01 3.024.56 4.278 1.613v1.962c-1.204-1.149-2.675-1.78-4.24-1.775-1.547.005-3 .633-4.181 1.776z"/><path fill="#fff" d="M1.684 17.684A5.876 5.876 0 0 1 7.58 11.79a5.89 5.89 0 0 1 5.895 5.895A5.89 5.89 0 0 1 7.58 23.58a5.876 5.876 0 0 1-5.895-5.895m16.841-.001a5.876 5.876 0 0 1 5.895-5.895 5.89 5.89 0 0 1 5.895 5.895 5.89 5.89 0 0 1-5.895 5.895 5.876 5.876 0 0 1-5.895-5.895"/><path fill="url(#e)" d="M3.553 17.684a4.014 4.014 0 0 1 4.026-4.026 4.023 4.023 0 0 1 4.026 4.026 4.023 4.023 0 0 1-4.026 4.027 4.014 4.014 0 0 1-4.026-4.027"/><path fill="url(#f)" d="M11.605 17.684c-.02 1.13-.462 2.145-1.213 2.883a3.94 3.94 0 0 1-2.813 1.144c-1.305-.023-2.53-.734-3.454-1.896.53-2.105 1.79-3.623 3.625-3.932 1.516-.255 2.917.416 3.855 1.801"/><path fill="url(#g)" d="M28.434 17.687a4.014 4.014 0 0 0-4.026-4.027 4.023 4.023 0 0 0-4.026 4.027 4.023 4.023 0 0 0 4.026 4.026 4.014 4.014 0 0 0 4.026-4.026"/><path fill="url(#h)" d="M20.382 17.687c.02 1.13.462 2.144 1.213 2.882a3.94 3.94 0 0 0 2.813 1.144c1.305-.023 2.53-.734 3.454-1.896-.402-2.016-1.553-3.494-3.337-3.882-1.597-.348-3.09.323-4.143 1.752"/><path fill="#141e24" d="M8.421 15.158a1.68 1.68 0 0 1 1.684 1.684 1.683 1.683 0 1 1-3.368 0 1.68 1.68 0 0 1 1.684-1.684m15.158 0a1.68 1.68 0 0 1 1.684 1.684 1.683 1.683 0 1 1-3.368 0 1.68 1.68 0 0 1 1.684-1.684" opacity=".1"/></svg>