<svg xmlns="http://www.w3.org/2000/svg" width="54" height="68" fill="none" viewBox="0 0 54 68"><path fill="#0f2b46" d="M.188 17.274v26.81c0 1.393.73 2.67 1.921 3.367l23.063 13.386a3.8 3.8 0 0 0 3.844 0L52.078 47.45A3.89 3.89 0 0 0 54 44.085v-26.81c0-1.394-.73-2.67-1.922-3.367L29.016.522a3.8 3.8 0 0 0-3.844 0L2.109 13.947a3.87 3.87 0 0 0-1.921 3.327"/><path fill="#0f2b46" d="m36.703 67.53-.038-5.803.038-5.339-13.453 3.327"/><path fill="#142c46" d="m36.088 55.924 2.537-.658-.961.542a1.95 1.95 0 0 0-.961 1.663v1.084z"/><path fill="#fff" d="M17.79 18.474a3.95 3.95 0 0 1 5.535 0 4.016 4.016 0 0 1 0 5.804 3.95 3.95 0 0 1-5.535 0 4.016 4.016 0 0 1 0-5.804m17.297 10.098a3.95 3.95 0 0 1 5.535 0 4.016 4.016 0 0 1 0 5.803 3.95 3.95 0 0 1-5.535 0 4.016 4.016 0 0 1 0-5.803M17.79 39.25a3.95 3.95 0 0 1 5.535 0 4.016 4.016 0 0 1 0 5.803 3.95 3.95 0 0 1-5.535 0 4.016 4.016 0 0 1 0-5.803"/><path fill="#fff" d="m22.48 23.542 11.532 6.693 1.922-1.083-11.532-6.732zm12.3 11.606-10.378 6.035-1.922-1.121 10.379-5.997z"/></svg>