<svg xmlns="http://www.w3.org/2000/svg" width="279" height="279" fill="none" viewBox="0 0 279 279"><path fill="#a238ff" fill-rule="evenodd" d="M232.97 42.874c2.569-14.89 6.339-24.254 10.515-24.271h.008c7.787.026 14.099 32.498 14.099 72.59 0 40.091-6.321 72.589-14.116 72.589-3.196 0-6.145-5.518-8.519-14.765-3.752 33.85-11.538 57.119-20.552 57.119-6.974 0-13.233-13.978-17.435-36.022-2.869 41.924-10.09 71.669-18.53 71.669-5.297 0-10.126-11.787-13.701-30.979-4.299 39.617-14.231 67.376-25.813 67.376s-21.532-27.75-25.813-67.376c-3.549 19.192-8.378 30.979-13.701 30.979-8.44 0-15.643-29.745-18.53-71.669-4.202 22.044-10.444 36.022-17.435 36.022-9.005 0-16.8-23.261-20.552-57.119-2.357 9.274-5.323 14.765-8.519 14.765-7.795 0-14.116-32.498-14.116-72.59 0-40.09 6.32-72.59 14.116-72.59 4.184 0 7.928 9.39 10.523 24.272C49.057 17.199 55.81.51 63.447.51c9.066 0 16.923 23.6 20.64 57.87 3.637-24.942 9.154-40.843 15.334-40.843 8.66 0 16.022 31.274 18.75 74.898 5.129-22.367 12.554-36.398 20.773-36.398s15.643 14.04 20.763 36.398c2.737-43.624 10.09-74.898 18.751-74.898 6.17 0 11.679 15.9 15.334 40.843C197.5 24.11 205.357.51 214.423.51c7.61 0 14.389 16.697 18.547 42.363M.09 84.053c0-17.922 3.583-32.454 8.006-32.454s8.007 14.532 8.007 32.454c0 17.921-3.584 32.454-8.007 32.454S.09 101.974.09 84.053m261.653 0c0-17.922 3.584-32.454 8.007-32.454 4.422 0 8.007 14.532 8.007 32.454 0 17.921-3.585 32.454-8.007 32.454-4.423 0-8.007-14.533-8.007-32.454" clip-rule="evenodd"/></svg>