<svg xmlns="http://www.w3.org/2000/svg" width="440.278" height="440.278" viewBox="-316.049 -3.586 440.278 440.278"><rect width="439.278" height="439.278" x="-315.549" y="-3.086" rx="42.428" ry="42.428" style="fill:#db2424;stroke:#000"/><path d="M0 12.1C47.8 4.4 112.3 0 178.9 0c107.9 0 175.6 17.5 231.5 55.9 62 42.8 101.9 112.9 101.9 216.3 0 114.6-43.4 189.1-98.3 231.9-61.9 48.1-154.1 69.4-264.1 69.4-72.2 0-121.1-4.8-149.9-9.2zm150.5 442.6c7.9 1.7 21.7 1.7 31.9 1.7 97.7 1.3 169.9-52.4 169.9-179.3 0-110-65.5-161.8-155.9-161.8-23.6 0-38.2 1.9-45.9 3.8z" class="cls-1" style="fill:#fff" transform="translate(-212.687 73.478)scale(.4973)"/></svg>