<?xml version="1.0" encoding="UTF-8" standalone="no"?>
<svg
   viewBox="-316.049 -3.586 440.278 440.27802"
   version="1.1"
   id="svg8"
   sodipodi:docname="logo-dpal.svg"
   width="440.27802"
   height="440.27802"
   inkscape:export-filename="logo-dpal.png"
   inkscape:export-xdpi="96"
   inkscape:export-ydpi="96"
   xmlns:inkscape="http://www.inkscape.org/namespaces/inkscape"
   xmlns:sodipodi="http://sodipodi.sourceforge.net/DTD/sodipodi-0.dtd"
   xmlns="http://www.w3.org/2000/svg"
   xmlns:svg="http://www.w3.org/2000/svg">
  <defs
     id="defs8" />
  <sodipodi:namedview
     id="namedview8"
     pagecolor="#ffffff"
     bordercolor="#999999"
     borderopacity="1"
     inkscape:showpageshadow="2"
     inkscape:pageopacity="0"
     inkscape:pagecheckerboard="0"
     inkscape:deskcolor="#d1d1d1"
     showgrid="false">
    <inkscape:page
       x="0"
       y="0"
       width="440.27802"
       height="440.27802"
       id="page2"
       margin="0"
       bleed="0" />
  </sodipodi:namedview>
  <rect
     x="-315.54901"
     y="-3.086"
     width="439.27802"
     height="439.27802"
     rx="42.428001"
     ry="42.428001"
     style="fill:#db2424;stroke:#000000"
     id="rect1" />
  <g
     id="Page-1"
     transform="matrix(0.497298,0,0,0.497298,-212.68701,73.4775)">
    <path
       class="cls-1"
       d="M 0,12.1 C 47.8,4.4 112.3,0 178.9,0 c 107.9,0 175.6,17.5 231.5,55.9 62,42.8 101.9,112.9 101.9,216.3 0,114.6 -43.4,189.1 -98.3,231.9 -61.9,48.1 -154.1,69.4 -264.1,69.4 -72.2,0 -121.1,-4.8 -149.9,-9.2 z m 150.5,442.6 c 7.9,1.7 21.7,1.7 31.9,1.7 97.7,1.3 169.9,-52.4 169.9,-179.3 0,-110 -65.5,-161.8 -155.9,-161.8 -23.6,0 -38.2,1.9 -45.9,3.8 z"
       style="fill:#ffffff"
       id="path1" />
  </g>
</svg>
