<svg xmlns="http://www.w3.org/2000/svg" id="Layer_1" width="141.15" height="78.19" data-name="Layer 1" viewBox="0 0 141.15 78.19"><defs id="defs1"><style id="style1">.cls-1{fill:#e50914}</style></defs><title id="title1">Fast_Logo_Stacked_Black_RGB</title><path id="path1" d="M70.62 40.57v9.5A19.78 19.78 0 0 1 91 70.51h9.47a29.24 29.24 0 0 0-29.85-29.94m35.85-5.91a49.53 49.53 0 0 0-35.23-14.65h-.59v10.16a39.66 39.66 0 0 1 40.21 40.33h10.16v-.59a49.53 49.53 0 0 0-14.55-35.25" class="cls-1"/><path id="path2" d="M0 70.48a70.575 70.575 0 0 1 141.15 0v7.38h-19v-7.3h9.39v-.08a61 61 0 0 0-121.91 0v.08h9.39v7.3h-19v-7.38z" class="cls-1"/><path id="path3" d="m75.69 64.36-5-54.66-5 54.66a8 8 0 1 0 10 0"/></svg>