<?xml version="1.0" encoding="UTF-8"?>
<svg version="1.1" xmlns="http://www.w3.org/2000/svg" width="1024" height="1024">
<path d="M0 0 C337.92 0 675.84 0 1024 0 C1024 337.92 1024 675.84 1024 1024 C686.08 1024 348.16 1024 0 1024 C0 686.08 0 348.16 0 0 Z " fill="#111211" transform="translate(0,0)"/>
<path d="M0 0 C337.92 0 675.84 0 1024 0 C1024 168.96 1024 337.92 1024 512 C686.08 512 348.16 512 0 512 C0 343.04 0 174.08 0 0 Z " fill="#1181BE" transform="translate(0,0)"/>
<path d="M0 0 C39.6 0 79.2 0 120 0 C120 117.81 120 235.62 120 357 C80.4 357 40.8 357 0 357 C0 239.19 0 121.38 0 0 Z " fill="#FEFEFE" transform="translate(273,83)"/>
<path d="M0 0 C39.6 0 79.2 0 120 0 C120 104.61 120 209.22 120 317 C42.2006689 317 42.2006689 317 17 292 C13.98226649 288.51650698 11.42019557 284.91841187 9 281 C8.28070313 279.87078125 8.28070313 279.87078125 7.546875 278.71875 C-1.22059911 263.29644615 -0.56385631 244.86341315 -0.45410156 227.73193359 C-0.45297093 225.23669961 -0.45361114 222.7414643 -0.45587158 220.24623108 C-0.45677631 214.9114815 -0.44558645 209.57697623 -0.42292023 204.2422905 C-0.390172 196.52962798 -0.37997013 188.81705964 -0.37496826 181.10433514 C-0.36625102 168.5857787 -0.33973334 156.06732753 -0.30175781 143.54882812 C-0.2649446 131.40072135 -0.23672461 119.2526435 -0.21972656 107.10449219 C-0.21865457 106.34588788 -0.21758258 105.58728356 -0.21647811 104.80569124 C-0.20815861 98.87138766 -0.20033154 92.93708346 -0.19265985 87.00277901 C-0.15504257 58.00175599 -0.07454205 29.00099705 0 0 Z " fill="#FEFEFE" transform="translate(273,559)"/>
<path d="M0 0 C39.6 0 79.2 0 120 0 C120.0806627 62.83624185 120.0806627 62.83624185 120.09765625 89.08984375 C120.10157182 95.09879568 120.10561274 101.10774751 120.10986328 107.11669922 C120.11039078 107.86979335 120.11091828 108.62288748 120.11146176 109.39880264 C120.12015351 121.54702346 120.13591736 133.69522529 120.15430559 145.84343486 C120.17302776 158.31655884 120.18412162 170.78967289 120.18817699 183.26281035 C120.19091724 190.95552577 120.19956313 198.64818753 120.21583293 206.34088643 C120.22768337 212.24584914 120.22890549 218.1507845 120.22621536 224.05575943 C120.22676483 226.47362345 120.23073299 228.89148954 120.23841095 231.30934143 C120.24839631 234.61648839 120.24595567 237.92340782 120.24050903 241.2305603 C120.24633472 242.18195086 120.2521604 243.13334141 120.25816262 244.11356199 C120.17653441 262.51587166 112.9560313 279.27473417 100.3984375 292.625 C72.31435903 320.43464122 38.87906382 317 0 317 C0 212.39 0 107.78 0 0 Z " fill="#FEFEFE" transform="translate(638,559)"/>
<path d="M0 0 C38.94 0 77.88 0 118 0 C118.12099405 63.38743695 118.12099405 63.38743695 118.14648438 89.91210938 C118.15235737 95.98266626 118.15841864 102.05322292 118.16479492 108.1237793 C118.16558617 108.88455149 118.16637741 109.64532368 118.16719264 110.42914957 C118.18021578 122.6871513 118.20385348 134.94511052 118.23145839 147.2030871 C118.25958214 159.79714508 118.27619094 172.39118092 118.28226548 184.98526901 C118.28636752 192.74709521 118.29929044 200.50880124 118.3237494 208.27059042 C118.34158632 214.23742323 118.34334813 220.2041542 118.33932304 226.17101669 C118.34014435 228.60774789 118.34605771 231.0444839 118.35761642 233.48118782 C118.45762751 255.66378548 117.29085321 275.12388136 101.11254883 291.94506836 C99.75543679 293.31050482 98.37825095 294.65590396 97 296 C96.34257813 296.66644531 95.68515625 297.33289063 95.0078125 298.01953125 C69.54547759 322.22514148 32.30761389 317 0 317 C0 212.39 0 107.78 0 0 Z " fill="#FDFDFD" transform="translate(446,559)"/>
<path d="M0 0 C54.73038043 0 54.73038043 0 68.75 6.1875 C69.80392944 6.63923584 69.80392944 6.63923584 70.87915039 7.10009766 C89.35987634 15.30860078 104.24629987 29.24028783 112 48 C116.49514682 61.64285804 116.14330256 75.68558886 116.11352539 89.8737793 C116.1132429 91.76700336 116.11340245 93.66022754 116.1139679 95.55345154 C116.11425347 100.66421712 116.10839563 105.77495897 116.10139394 110.88571906 C116.09512034 116.23751691 116.09455344 121.58931537 116.09336853 126.94111633 C116.09026699 137.06263867 116.08206953 147.18415014 116.07201904 157.3056677 C116.0587253 170.99197719 116.05334848 184.67828967 116.04751682 198.364604 C116.03812881 219.90974413 116.01820203 241.45486133 116 263 C77.72 263 39.44 263 0 263 C0 176.21 0 89.42 0 0 Z " fill="#FEFEFE" transform="translate(447,177)"/>
<path d="M0 0 C4.88872979 3.17736767 9.02551978 6.8834601 13.11328125 11.0234375 C13.6753125 11.56355469 14.23734375 12.10367187 14.81640625 12.66015625 C25.07375266 23.37638394 29.62452664 38.99619508 29.53759766 53.46826172 C28.95003975 71.23301578 21.22247679 86.37326038 8.61328125 98.6484375 C4.78385403 101.84722492 0.54088605 104.08649431 -3.88671875 106.3359375 C-4.55123047 106.67383301 -5.21574219 107.01172852 -5.90039062 107.35986328 C-19.07033831 113.75382756 -35.08833565 114.30217695 -49.01171875 109.9609375 C-65.3108581 103.61547104 -77.97879461 92.69862021 -85.390625 76.796875 C-91.02738407 63.59625975 -92.70057158 47.11688724 -88.26171875 33.2109375 C-87.52246337 31.4587232 -86.73191584 29.72707929 -85.88671875 28.0234375 C-85.28537109 26.67185547 -85.28537109 26.67185547 -84.671875 25.29296875 C-76.68688863 8.88324313 -62.72921483 -0.92027119 -45.88671875 -6.9765625 C-30.67712446 -11.3670013 -13.3750772 -7.59255879 0 0 Z " fill="#FEFEFE" transform="translate(727.88671875,325.9765625)"/>
</svg>
