<svg xmlns="http://www.w3.org/2000/svg" fill="none" viewBox="0 0 1024 1024"><rect width="1019" height="1019" x="2.5" y="2.5" fill="url(#a)" stroke="url(#b)" stroke-width="5" rx="137.5"/><g fill="#fff" filter="url(#c)"><path d="M326.057 242.984c-19.52 0-35.342 15.825-35.342 35.342s15.825 35.342 35.342 35.342 35.342-15.825 35.342-35.342-15.82-35.342-35.342-35.342m24.725 388.746h-49.476c-5.856 0-10.604-4.746-10.604-10.604V341.932c0-5.856 4.746-10.604 10.604-10.604h49.48c5.856 0 10.604 4.746 10.604 10.604v279.196c-.004 5.856-4.75 10.602-10.608 10.602m201.452-244.037v-49.48c0-5.855 4.746-10.604 10.604-10.604h155.503c5.856 0 10.604 4.746 10.604 10.604v49.48c0 5.856-4.746 10.604-10.604 10.604H562.838c-5.854-.004-10.604-4.75-10.604-10.604"/><path d="M551.342 398.291c43.846 0 79.516 35.672 79.516 79.516s-35.673 79.516-79.516 79.516-79.517-35.672-79.517-79.516 35.671-79.516 79.517-79.516m0-70.682c-82.953 0-150.202 67.248-150.202 150.202 0 82.955 67.247 150.202 150.202 150.202 82.954 0 150.202-67.247 150.202-150.202 0-82.954-67.246-150.202-150.202-150.202m.003 385.244c35.899 0 65.635 26.903 70.102 61.605.673 5.223 5.208 9.081 10.474 9.081h49.763c6.108 0 11.067-5.16 10.588-11.248-5.729-72.819-66.638-130.119-140.925-130.119s-135.191 57.3-140.925 130.119c-.479 6.09 4.478 11.248 10.588 11.248h49.763c5.266 0 9.801-3.858 10.474-9.081 4.467-34.704 34.201-61.605 70.098-61.605"/></g><defs><linearGradient id="a" x1="43.39" x2="987.119" y1="84.61" y2="1028.34" gradientUnits="userSpaceOnUse"><stop stop-color="#002c63"/><stop offset=".576" stop-color="#0087c4"/><stop offset=".899" stop-color="#00bbc7"/></linearGradient><linearGradient id="b" x1="0" x2="1024" y1="0" y2="1024" gradientUnits="userSpaceOnUse"><stop stop-color="#1b1f54"/><stop offset="1" stop-color="#18b8b8"/></linearGradient><filter id="c" width="448.243" height="550.554" x="285.702" y="238.984" color-interpolation-filters="sRGB" filterUnits="userSpaceOnUse"><feFlood flood-opacity="0" result="BackgroundImageFix"/><feColorMatrix in="SourceAlpha" values="0 0 0 0 0 0 0 0 0 0 0 0 0 0 0 0 0 0 127 0"/><feOffset dy="1"/><feGaussianBlur stdDeviation="2.5"/><feColorMatrix values="0 0 0 0 0 0 0 0 0 0 0 0 0 0 0 0 0 0 0.2 0"/><feBlend in2="BackgroundImageFix" result="effect1_dropShadow"/><feBlend in="SourceGraphic" in2="effect1_dropShadow" result="shape"/></filter></defs></svg>