<svg xmlns="http://www.w3.org/2000/svg" viewBox="0 0 120 64" aria-label="IMDb icon">
  <rect x="4" y="6" width="112" height="52" rx="12" fill="#f5c518" stroke="#b38600" stroke-width="4"/>
  <g fill="#0f0f0f">
    <path d="M20 20h8v24h-8z"/>
    <path d="M34 44V20h9l7.5 17.5L58 20h9v24h-7V30.8l-7.2 16.4h-.4L43.2 30.8V44z"/>
    <path d="M72 20h12.2c8.6 0 13 6.3 13 12s-4.4 12-13 12H72zm11.8 18.2c3.5 0 5.6-2.6 5.6-6.2s-2.1-6.2-5.6-6.2H79v12.4z"/>
    <path d="M100 20h13.4c5.8 0 10.2 3.3 10.2 8.3 0 3.4-1.9 5.9-4.8 7.1 3.4 1.3 5.5 4.1 5.5 7.7 0 5.5-4.1 10-10.8 10H100zm11.8 10.6c1.7 0 3-1.1 3-2.9s-1.3-2.9-3-2.9h-4.6v5.8zm.5 17c2.1 0 3.7-1.4 3.7-3.6s-1.6-3.6-3.7-3.6h-4.2v7.2z"/>
  </g>
</svg>
