<svg xmlns="http://www.w3.org/2000/svg" xml:space="preserve" viewBox="0 0 345.7 340.6"><path d="M0 0h345.7v340.6H0z" style="fill:#00c7fd"/><path d="M43 134.5h19v19H43z" style="fill:#0068b5"/><path d="M61.5 233.3V165h-18v68.3zm119.3.7v-16.7c-2.6 0-4.9-.1-6.5-.4-1.9-.3-3.3-.9-4.3-1.9-.9-.9-1.6-2.3-1.9-4s-.4-3.9-.4-6.6v-23.9h13V165h-13v-26.7h-18v66.1c0 5.6.5 10.3 1.4 14.1.9 3.7 2.6 6.7 4.8 9s5.2 3.9 8.8 4.9 8.2 1.5 13.7 1.5h2.4zm103.1-.7V133.1h-18v100.2zm-151.5-61.6c-5-5.4-12-8.1-20.9-8.1-4.3 0-8.2.9-11.8 2.6-3.5 1.8-6.5 4.2-8.9 7.3l-1 1.3V165H72v68.3h17.9V197v2.5-1.2c.2-6.4 1.8-11.1 4.7-14.2 3.2-3.2 7-4.9 11.4-4.9 5.2 0 9.2 1.6 11.8 4.7s3.9 7.5 3.9 13.1v36.2h18.2v-38.7c.1-9.7-2.5-17.4-7.5-22.8M256.6 199c0-4.9-.9-9.5-2.6-13.8-1.8-4.3-4.2-8-7.2-11.3-3.1-3.2-6.8-5.7-11.1-7.6-4.3-1.8-9.1-2.7-14.3-2.7-4.9 0-9.6.9-13.9 2.8s-8.1 4.4-11.3 7.6-5.7 7-7.6 11.3-2.8 9-2.8 13.9.9 9.6 2.6 13.9c1.8 4.3 4.3 8.1 7.4 11.3s7 5.7 11.4 7.6c4.5 1.9 9.4 2.8 14.6 2.8 15.3 0 24.7-7 30.4-13.4l-13-9.9c-2.7 3.2-9.2 7.6-17.3 7.6-5.1 0-9.2-1.1-12.4-3.5-3.2-2.3-5.3-5.5-6.5-9.5l-.2-.6h53.7zm-53.5-6.2c0-5 5.7-13.7 18.1-13.8 12.4 0 18.2 8.7 18.2 13.7zm101.4 31.6c-.3-.8-.8-1.5-1.4-2.1s-1.3-1.1-2.1-1.4-1.7-.5-2.6-.5-1.8.2-2.6.5-1.5.8-2.1 1.4-1.1 1.3-1.4 2.1-.5 1.7-.5 2.6.2 1.8.5 2.6.8 1.5 1.4 2.1 1.3 1.1 2.1 1.4 1.7.5 2.6.5 1.8-.2 2.6-.5 1.5-.8 2.1-1.4 1.1-1.3 1.4-2.1.5-1.7.5-2.6-.2-1.8-.5-2.6m-1.1 4.7c-.3.7-.7 1.3-1.1 1.8s-1.1.9-1.8 1.1-1.3.4-2.2.4c-.7 0-1.5-.1-2.2-.4s-1.3-.7-1.8-1.1-.9-1.1-1.1-1.8c-.3-.7-.4-1.3-.4-2.2 0-.7.1-1.5.4-2.2s.7-1.3 1.1-1.8c.5-.5 1.1-.9 1.8-1.1s1.3-.4 2.2-.4c.7 0 1.5.1 2.2.4s1.3.7 1.8 1.1.9 1.1 1.1 1.8c.3.7.4 1.3.4 2.2s-.2 1.6-.4 2.2m-3.8-1.6c.5-.1.9-.3 1.3-.6s.5-.8.5-1.5-.2-1.3-.7-1.7c-.4-.4-1.1-.6-2-.6h-3v7.6h1.4v-3.1h1l1.9 3.1h1.5zm-.7-1.1h-1.7v-2.2h1.7c.2 0 .4.1.6.1.2.1.3.2.4.3s.1.3.1.6-.1.5-.1.6c-.1.1-.3.3-.4.3-.2.3-.4.3-.6.3" style="fill:#fff"/></svg>