<svg xmlns="http://www.w3.org/2000/svg" width="96" height="96" fill="none" viewBox="0 -21.5 167 167"><style>path{fill:#242422}@media (prefers-color-scheme:dark){path{fill:#fff}}</style><path d="M57.536 53.314a9.745 9.745 0 0 0-9.747 9.748v60.818h6.207V63.062a3.56 3.56 0 0 1 3.557-3.557 3.56 3.56 0 0 1 3.557 3.557v60.818h6.208V63.062a9.745 9.745 0 0 0-9.748-9.748zm51.585 0a9.745 9.745 0 0 0-9.748 9.748v60.818h6.208V63.062a3.56 3.56 0 0 1 3.557-3.557 3.56 3.56 0 0 1 3.557 3.557v60.818h6.207V63.062a9.745 9.745 0 0 0-9.747-9.748zm-25.792 0a9.745 9.745 0 0 0-9.748 9.748v60.818h6.208V63.062a3.56 3.56 0 0 1 3.556-3.557 3.56 3.56 0 0 1 3.557 3.557v60.818h6.208V63.062a9.745 9.745 0 0 0-9.748-9.748z"/><path d="m143.782 28.035 4.295-7.466h9.983L166.667 0H0l8.607 20.57h9.982l4.279 7.465c-8.339 2.852-15.2 10.1-15.2 21.022s7.885 20.167 19.696 20.167c2.584 0 4.983-.537 7.114-1.477v56.154h6.19V62.798c1.947-2.634 3.087-5.923 3.171-9.647 0-.05.017-.118.017-.185 0-.05-.017-.084-.017-.134 0-.034.017-.067.017-.1 0-.051-.017-.101-.017-.168-.067-2.517-.738-4.866-1.912-6.862h82.813c-1.174 1.996-1.846 4.345-1.913 6.862 0 .067-.016.117-.016.167v.235s.016.134.016.185c.084 3.724 1.225 7.013 3.171 9.647V123.9h6.191V67.747c2.131.94 4.513 1.477 7.114 1.477 11.794 0 19.696-9.647 19.696-20.167s-6.878-18.17-15.217-21.022M12.734 14.362 9.311 6.208h148.044l-3.422 8.153zm128.196 6.207-3.439 5.99H29.176l-3.44-5.99zm-1.627 42.447c-6.057 0-10.218-4.094-10.285-10.117.034-4.261 2.785-7.114 6.778-7.164h.118c2.5 0 4.546 2.064 4.546 4.228v.1a2.303 2.303 0 0 1-2.315 2.232 3.11 3.11 0 0 0-3.104 3.104 3.11 3.11 0 0 0 3.104 3.104c4.698 0 8.54-3.809 8.54-8.54 0-.15-.034-.302-.051-.436-.251-5.553-4.798-9.983-10.804-9.983H83.317l-.403-.016h-.42l-51.657.016c-6.006 0-10.553 4.43-10.805 9.983-.017.134-.05.285-.05.436 0 4.731 3.842 8.54 8.54 8.54a3.107 3.107 0 0 0 3.103-3.104 3.11 3.11 0 0 0-3.103-3.104c-1.259 0-2.265-.973-2.332-2.231 0-.034.016-.067.016-.1 0-2.165 2.03-4.229 4.547-4.229h.1c4.01.05 6.762 2.903 6.795 7.164-.067 6.023-4.244 10.117-10.284 10.117-7.953 0-13.49-6.426-13.49-13.959 0-10.167 7.97-16.308 17.819-16.308h103.281c9.848 0 17.818 6.141 17.818 16.308 0 7.533-5.537 13.959-13.489 13.959"/></svg>