<?xml version="1.0" encoding="UTF-8"?>
<svg version="1.1" xmlns="http://www.w3.org/2000/svg" width="1024" height="1024">
<path d="M0 0 C1.93929634 -0.01045349 1.93929634 -0.01045349 3.91777039 -0.02111816 C8.07669482 -0.04043338 12.23556686 -0.04529469 16.39453125 -0.046875 C17.45506588 -0.04775871 17.45506588 -0.04775871 18.53702545 -0.04866028 C48.56808855 -0.06634397 77.57626653 1.89619075 107.20703125 7.203125 C108.56605186 16.24337773 109.68925782 25.26939352 110.53564453 34.37133789 C110.65297943 35.60405426 110.77031433 36.83677063 110.89120483 38.10684204 C111.20761017 41.43866289 111.52106257 44.77073382 111.83296824 48.10297704 C112.16178949 51.60949933 112.49410218 55.11569107 112.82589722 58.62193298 C113.3812235 64.49602792 113.93388293 70.37036897 114.48486328 76.24487305 C115.1210713 83.02775821 115.76135302 89.81024947 116.40381825 96.59254462 C117.02431589 103.14374454 117.64216018 109.695192 118.25872421 116.24676323 C118.52025632 119.02542331 118.78267563 121.80399746 119.0458107 124.58250618 C119.41234867 128.45456968 119.77498518 132.32699313 120.13720703 136.19946289 C120.2462738 137.34703568 120.35534058 138.49460846 120.4677124 139.67695618 C120.56579193 140.73219482 120.66387146 141.78743347 120.7649231 142.87464905 C120.89376483 144.24527292 120.89376483 144.24527292 121.02520943 145.64358616 C121.20490323 148.17316842 121.23935582 150.66812963 121.20703125 153.203125 C121.80644531 153.326875 122.40585937 153.450625 123.0234375 153.578125 C149.21289233 159.53874061 175.01124809 170.87861837 198.390625 183.98828125 C201.52481386 185.34019905 202.1240596 185.32870673 205.20703125 184.203125 C207.0691391 182.98810881 207.0691391 182.98810881 208.859375 181.4296875 C209.54700928 180.85750488 210.23464355 180.28532227 210.94311523 179.69580078 C211.66958252 179.07946777 212.3960498 178.46313477 213.14453125 177.828125 C214.27580444 176.88235596 214.27580444 176.88235596 215.42993164 175.91748047 C217.69545192 174.02024202 219.95260135 172.11352161 222.20703125 170.203125 C222.83480469 169.67203125 223.46257813 169.1409375 224.109375 168.59375 C226.32278145 166.72048841 228.53543834 164.8463793 230.74389648 162.96728516 C234.63730908 159.66085301 238.60992782 156.46836278 242.61328125 153.296875 C245.68782474 150.81501459 248.69882169 148.26463987 251.70703125 145.703125 C256.27628439 141.81236884 260.90875697 138.02383579 265.61328125 134.296875 C268.68782474 131.81501459 271.69882169 129.26463987 274.70703125 126.703125 C279.27628439 122.81236884 283.90875697 119.02383579 288.61328125 115.296875 C291.68786478 112.81498227 294.69786306 110.26356142 297.70703125 107.703125 C299.34960381 106.31386774 300.99288958 104.92545763 302.63623047 103.53710938 C304.13717802 102.26244705 305.6274634 100.9752615 307.1171875 99.6875 C307.99246094 98.95015625 308.86773438 98.2128125 309.76953125 97.453125 C310.91615234 96.47085938 310.91615234 96.47085938 312.0859375 95.46875 C314.20703125 94.203125 314.20703125 94.203125 316.1315918 94.48242188 C318.28724103 95.23097811 319.72164004 96.09500347 321.53515625 97.46875 C322.16180176 97.93990234 322.78844727 98.41105469 323.43408203 98.89648438 C324.10165527 99.41017578 324.76922852 99.92386719 325.45703125 100.453125 C326.51059814 101.25459961 326.51059814 101.25459961 327.58544922 102.07226562 C335.26230578 107.94833583 342.7739769 114.02259663 350.20703125 120.203125 C350.79693848 120.69248535 351.3868457 121.1818457 351.99462891 121.68603516 C369.09063594 135.92869114 386.17350902 151.28902357 400.578125 168.29296875 C402.52940841 170.5811644 404.55520812 172.7941156 406.58203125 175.015625 C413.93372184 183.18279724 420.70218135 191.79283535 427.45703125 200.453125 C428.34297974 201.58814453 428.34297974 201.58814453 429.24682617 202.74609375 C432.67498142 207.16113483 435.99014049 211.63175393 439.20703125 216.203125 C437.54873479 220.14872693 434.8600017 223.13738453 432.08203125 226.328125 C431.09265715 227.47953059 430.10438708 228.63188571 429.1171875 229.78515625 C428.62750488 230.3570166 428.13782227 230.92887695 427.63330078 231.51806641 C424.3996291 235.33847071 421.30413141 239.27184887 418.20703125 243.203125 C412.418303 242.09916028 406.6949693 240.85710236 400.98486328 239.40112305 C344.69743971 225.25044084 284.17742526 233.21190062 233.90917969 262.54394531 C213.97213057 274.59304646 195.37369631 289.62087603 181.20703125 308.203125 C180.39878906 309.20730469 179.59054687 310.21148437 178.7578125 311.24609375 C172.44618073 319.12926727 167.15892222 327.41071769 162.20703125 336.203125 C161.84834961 336.83541016 161.48966797 337.46769531 161.12011719 338.11914062 C156.35404578 346.57967354 152.4273979 355.02198354 149.20703125 364.203125 C144.45254145 364.203125 144.04197566 363.52882106 140.64453125 360.453125 C101.72955967 327.65556639 50.65838873 316.36796917 0.89501953 319.40527344 C-48.96304358 323.80280605 -95.78228509 349.61987505 -128.25292969 387.34716797 C-162.73030633 428.89710729 -177.21920576 481.87522922 -172.33203125 535.29296875 C-166.49793711 584.94512858 -140.2140574 632.77394396 -100.98046875 663.890625 C-88.45286192 673.54750607 -75.13016081 681.55814161 -60.79296875 688.203125 C-59.70242188 688.72390625 -58.611875 689.2446875 -57.48828125 689.78125 C-22.20727811 705.85652721 21.21883371 710.90362203 59.20703125 702.203125 C60.08182129 702.01508301 60.95661133 701.82704102 61.85791016 701.63330078 C107.43690072 691.6641358 150.32000997 664.70799498 177.20703125 626.203125 C178.28791016 624.66398438 178.28791016 624.66398438 179.390625 623.09375 C188.91238332 608.90446309 197.27453735 593.24155328 203.20703125 577.203125 C205.95170146 578.4962616 208.31197551 579.92349425 210.7109375 581.77734375 C211.36449219 582.27717773 212.01804687 582.77701172 212.69140625 583.29199219 C213.3771875 583.81954102 214.06296875 584.34708984 214.76953125 584.890625 C221.06308057 589.67982044 227.42558206 594.12276151 234.20703125 598.203125 C233.62308123 604.13605721 230.06579194 608.69010005 226.9765625 613.61328125 C220.88191234 623.59124832 217.26693577 634.80944767 219.9609375 646.46484375 C222.52965988 655.29923405 225.40940246 660.90288369 232.20703125 667.203125 C233.25890625 668.193125 233.25890625 668.193125 234.33203125 669.203125 C248.50074813 679.0596237 263.68132847 678.50229522 280.20703125 678.203125 C280.84016802 682.29168621 281.10658051 685.75242958 278.86816406 689.36230469 C276.94378556 691.54423627 274.93410741 693.56687352 272.83203125 695.578125 C271.36034823 697.0647787 269.88899385 698.5517578 268.41796875 700.0390625 C267.69706055 700.7515918 266.97615234 701.46412109 266.23339844 702.19824219 C256.97783401 711.35567533 250.16372509 718.21722467 249.70703125 731.703125 C249.9820764 741.17795612 252.64847926 747.34645701 259.20703125 754.203125 C260.36340589 755.23560236 261.53123061 756.25532571 262.70703125 757.265625 C266.68432899 760.68349551 270.50213614 764.24451322 274.26953125 767.890625 C274.86636719 768.44951416 275.46320312 769.00840332 276.078125 769.58422852 C277.7421875 771.21484375 277.7421875 771.21484375 280.20703125 774.203125 C279.77999056 777.63270764 278.58896211 779.13730546 276.08203125 781.453125 C272.82759772 784.56779758 269.83772519 787.81151229 266.90625 791.23046875 C265.80349727 792.51067594 264.68190634 793.77498234 263.5390625 795.01953125 C263.01699219 795.59574219 262.49492188 796.17195312 261.95703125 796.765625 C261.498125 797.26191406 261.03921875 797.75820313 260.56640625 798.26953125 C256.22686901 804.44214888 255.73989356 810.03986955 255.73828125 817.37890625 C255.72686096 818.82670723 255.72686096 818.82670723 255.71520996 820.30375671 C255.70444458 822.33846461 255.7015413 824.37322761 255.70605469 826.40795898 C255.70702516 829.49623378 255.66540023 832.58200626 255.62109375 835.66992188 C255.61588438 837.65624488 255.6131986 839.64257642 255.61328125 841.62890625 C255.59688599 842.53965408 255.58049072 843.45040192 255.56359863 844.38874817 C255.65917788 853.4027299 259.06917042 860.63675216 265.43269348 866.99526978 C265.93185776 867.46862762 266.43102203 867.94198547 266.9453125 868.4296875 C267.47094284 868.9482431 267.99657318 869.46679871 268.53813171 870.00106812 C270.18704308 871.62243446 271.85258949 873.22532432 273.51953125 874.828125 C274.65415633 875.93761547 275.78762978 877.04828495 276.91992188 878.16015625 C279.66921441 880.85491104 282.43355932 883.53327169 285.20703125 886.203125 C279.05668956 894.64959425 279.05668956 894.64959425 275.20703125 898.203125 C267.10634776 891.97471042 259.22602757 885.56928047 251.53930664 878.83569336 C247.35803468 875.17919422 243.09520375 871.66324754 238.73046875 868.2265625 C235.67325135 865.77510954 232.68993608 863.24405406 229.70703125 860.703125 C224.29067963 856.09398399 218.78438223 851.61666278 213.20703125 847.203125 C211.33127633 845.70406914 209.45626164 844.20408651 207.58203125 842.703125 C206.32519531 841.69765625 206.32519531 841.69765625 205.04296875 840.671875 C204.43710937 840.1871875 203.83125 839.7025 203.20703125 839.203125 C202.27246094 839.67621094 201.33789062 840.14929688 200.375 840.63671875 C196.77837015 842.45131012 193.17282557 844.24748292 189.56298828 846.03564453 C188.04192452 846.78939862 186.52198214 847.54542187 185.00341797 848.30419922 C136.97918957 872.203125 136.97918957 872.203125 121.20703125 872.203125 C121.15988511 872.84529779 121.11273897 873.48747059 121.06416416 874.14910316 C119.7855753 891.44513189 118.28211086 908.71151313 116.640625 925.9765625 C116.39914586 928.53055799 116.15777955 931.08456416 115.91651917 933.63858032 C115.41633948 938.92765705 114.91449714 944.21657341 114.41137695 949.50537109 C113.83093696 955.60738167 113.25450613 961.70976209 112.67993397 967.81232774 C112.12204282 973.73611413 111.56073179 979.65957299 110.99803352 985.58290482 C110.76065639 988.08590374 110.52423322 990.58899333 110.28878593 993.09217453 C109.96165832 996.56613103 109.63063765 1000.03969497 109.29858398 1003.51318359 C109.20246323 1004.54264099 109.10634247 1005.57209839 109.00730896 1006.63275146 C108.91626892 1007.57671783 108.82522888 1008.5206842 108.73143005 1009.49325562 C108.6538317 1010.31122305 108.57623335 1011.12919048 108.49628353 1011.97194481 C108.21883902 1014.11204442 107.77667072 1016.12362195 107.20703125 1018.203125 C103.31293613 1018.83925467 99.41647425 1019.45970186 95.51953125 1020.078125 C94.45541016 1020.25214844 93.39128906 1020.42617188 92.29492188 1020.60546875 C88.60489605 1021.18640576 84.90963003 1021.71033168 81.20703125 1022.203125 C80.18825394 1022.34303864 80.18825394 1022.34303864 79.14889526 1022.48577881 C61.65797529 1024.79114381 44.02791717 1024.57797147 26.4206543 1024.57373047 C22.92988071 1024.57356919 19.43963909 1024.58728062 15.94897461 1024.61474609 C-11.91775509 1024.83051112 -39.36862005 1023.53889703 -66.79296875 1018.203125 C-68.15198936 1009.16287227 -69.27519532 1000.13685648 -70.12158203 991.03491211 C-70.23891693 989.80219574 -70.35625183 988.56947937 -70.47714233 987.29940796 C-70.79354767 983.96758711 -71.10700007 980.63551618 -71.41890574 977.30327296 C-71.74772699 973.79675067 -72.08003968 970.29055893 -72.41183472 966.78431702 C-72.967161 960.91022208 -73.51982043 955.03588103 -74.07080078 949.16137695 C-74.7070088 942.37849179 -75.34729052 935.59600053 -75.98975575 928.81370538 C-76.61025339 922.26250546 -77.22809768 915.711058 -77.84466171 909.15948677 C-78.10619382 906.38082669 -78.36861313 903.60225254 -78.6317482 900.82374382 C-78.99828617 896.95168032 -79.36092268 893.07925687 -79.72314453 889.20678711 C-79.8322113 888.05921432 -79.94127808 886.91164154 -80.0536499 885.72929382 C-80.15172943 884.67405518 -80.24980896 883.61881653 -80.3508606 882.53160095 C-80.43675508 881.61785171 -80.52264957 880.70410246 -80.61114693 879.76266384 C-80.79084073 877.23308158 -80.82529332 874.73812037 -80.79296875 872.203125 C-81.4271875 872.06777344 -82.06140625 871.93242188 -82.71484375 871.79296875 C-110.49797444 865.38442894 -136.89768776 852.78854925 -161.79296875 839.203125 C-166.12926692 841.98380051 -170.08359664 845.01778214 -173.98046875 848.390625 C-175.12956971 849.37444432 -176.27931912 850.35750671 -177.4296875 851.33984375 C-177.9973584 851.82501465 -178.5650293 852.31018555 -179.14990234 852.81005859 C-181.50486027 854.806699 -183.89691045 856.75610838 -186.29296875 858.703125 C-190.35627355 862.00936574 -194.36596184 865.37128929 -198.35546875 868.765625 C-202.90442291 872.63436172 -207.51803973 876.4009085 -212.19921875 880.109375 C-215.27376224 882.59123541 -218.28475919 885.14161013 -221.29296875 887.703125 C-225.86222189 891.59388116 -230.49469447 895.38241421 -235.19921875 899.109375 C-238.27376224 901.59123541 -241.28475919 904.14161013 -244.29296875 906.703125 C-248.85211981 910.58527915 -253.465461 914.37545908 -258.17578125 918.07421875 C-260.21841242 919.73576202 -262.19370671 921.42739672 -264.16015625 923.17578125 C-265.03220703 923.94245117 -265.03220703 923.94245117 -265.921875 924.72460938 C-267.06665301 925.73493359 -268.20249108 926.75549899 -269.328125 927.78710938 C-270.91015625 929.17578125 -270.91015625 929.17578125 -273.79296875 931.203125 C-276.90071447 930.85300011 -278.87795001 929.63282911 -281.33203125 927.76171875 C-281.98969482 927.26470459 -282.6473584 926.76769043 -283.32495117 926.25561523 C-284.01564697 925.72266846 -284.70634277 925.18972168 -285.41796875 924.640625 C-286.13509033 924.09414307 -286.85221191 923.54766113 -287.59106445 922.98461914 C-301.36576707 912.45376199 -314.60250515 901.37540254 -327.3046875 889.578125 C-328.80300904 888.19384894 -330.31165775 886.82181773 -331.82421875 885.453125 C-340.61103617 877.49272047 -349.23447325 869.37714471 -356.93359375 860.33984375 C-358.78794837 858.20889422 -360.70531718 856.14571524 -362.63647461 854.08447266 C-368.60191963 847.69551314 -374.00881815 840.98135721 -379.34423828 834.06347656 C-382.39321003 830.14821456 -385.5232925 826.29654891 -388.64624023 822.44018555 C-390.04267647 820.70526297 -391.41822544 818.95525847 -392.79296875 817.203125 C-393.28700195 816.60226074 -393.78103516 816.00139648 -394.29003906 815.38232422 C-396.29112995 812.82889915 -397.74830935 810.96586048 -397.94140625 807.66796875 C-396.3252814 804.19934705 -393.9710123 801.56478305 -391.41796875 798.765625 C-390.31260963 797.51783034 -389.20980344 796.26777017 -388.109375 795.015625 C-387.55137207 794.38140625 -386.99336914 793.7471875 -386.41845703 793.09375 C-383.95792032 790.23187011 -381.6559433 787.25653952 -379.35546875 784.265625 C-374.90516111 778.51017516 -370.21571313 773.00375796 -365.42260742 767.53198242 C-361.76702454 763.35191 -358.25215734 759.09011135 -354.81640625 754.7265625 C-352.36495697 751.66934969 -349.83400651 748.68593231 -347.29296875 745.703125 C-344.06653475 741.91423468 -340.88369483 738.10453333 -337.79296875 734.203125 C-334.70223284 730.30170426 -331.51917177 726.49222322 -328.29296875 722.703125 C-324.35204454 718.07178054 -320.47368583 713.40430173 -316.7265625 708.61328125 C-315.34836926 706.89541211 -313.91737042 705.21935593 -312.453125 703.57421875 C-311.69902344 702.70925781 -310.94492187 701.84429688 -310.16796875 700.953125 C-309.12769531 699.80070313 -309.12769531 699.80070313 -308.06640625 698.625 C-306.48987614 696.23261626 -306.48987614 696.23261626 -307.30859375 693.41015625 C-308.73495645 690.32846211 -310.26300505 687.36198396 -311.91430664 684.39672852 C-316.80456129 675.59617482 -320.96867785 666.54934122 -324.85546875 657.265625 C-325.3129248 656.1923999 -325.77038086 655.1191748 -326.24169922 654.01342773 C-329.79386142 645.37975183 -332.65889787 636.56869037 -335.48999023 627.67749023 C-335.90902672 626.36679832 -336.32825288 625.05616703 -336.74767303 623.74559784 C-337.76463282 620.56536292 -338.77967806 617.38453048 -339.79296875 614.203125 C-340.84099922 614.10400991 -340.84099922 614.10400991 -341.91020203 614.00289249 C-358.92900419 612.39329462 -375.94767998 610.78236707 -392.96621704 609.16996861 C-401.19632937 608.39024984 -409.42648349 607.61097732 -417.65673828 606.83276367 C-424.83215949 606.15428891 -432.00750004 605.47496835 -439.18274593 604.79464191 C-442.98020164 604.43461278 -446.77769577 604.0750006 -450.57528687 603.71640205 C-454.15399356 603.3784588 -457.73259087 603.03937969 -461.31110954 602.69945145 C-463.2417999 602.5163445 -465.17260248 602.33442207 -467.10340881 602.15254211 C-473.01398132 601.59000311 -478.90696116 600.98299711 -484.79296875 600.203125 C-486.65178431 592.70951431 -487.66946068 585.16645562 -488.59790039 577.51147461 C-488.85375128 575.40476685 -489.11675784 573.29904702 -489.38085938 571.19335938 C-490.98721718 558.19706574 -491.96138009 545.37914992 -492.03125 532.2734375 C-492.03603174 531.57577648 -492.04081348 530.87811546 -492.04574013 530.1593132 C-492.08136799 524.88225775 -492.09684752 519.60528632 -492.10546875 514.328125 C-492.10720848 513.55588593 -492.10894821 512.78364685 -492.11074066 511.98800659 C-492.15885727 487.8399055 -491.44014979 464.11906628 -487.79296875 440.203125 C-487.6134668 438.96046875 -487.43396484 437.7178125 -487.24902344 436.4375 C-485.93127356 427.47973463 -485.93127356 427.47973463 -484.79296875 425.203125 C-482.42961121 424.66822815 -482.42961121 424.66822815 -479.03588867 424.25219727 C-478.38508677 424.17208436 -477.73428488 424.09197145 -477.06376171 424.00943089 C-465.72011934 422.66324873 -454.33367878 421.67121214 -442.9607203 420.61011958 C-439.48173491 420.28473647 -436.00311156 419.95552998 -432.52445984 419.62660217 C-422.96827542 418.72367349 -413.41156737 417.82634029 -403.85482025 416.92938995 C-395.05545091 416.10350381 -386.25620069 415.27640615 -377.45742005 414.44426829 C-373.3266712 414.05377887 -369.19565925 413.6662432 -365.06441939 413.28098476 C-361.90119744 412.98523718 -358.73834985 412.68553296 -355.57543945 412.38647461 C-353.86507004 412.22826736 -353.86507004 412.22826736 -352.12014771 412.06686401 C-351.07614304 411.96740982 -350.03213837 411.86795563 -348.95649719 411.76548767 C-348.05049932 411.68051497 -347.14450144 411.59554228 -346.21104908 411.50799465 C-342.94395509 411.09994643 -342.94395509 411.09994643 -339.79296875 410.203125 C-338.37730493 407.35882334 -338.37730493 407.35882334 -337.3828125 403.765625 C-336.95176016 402.3941185 -336.52068836 401.02261811 -336.08959961 399.65112305 C-335.75797318 398.56315933 -335.75797318 398.56315933 -335.41964722 397.45321655 C-329.11755631 376.87758602 -320.75359733 357.5083372 -310.87670898 338.39135742 C-310.48555908 337.63185791 -310.09440918 336.8723584 -309.69140625 336.08984375 C-309.17586182 335.10310669 -309.17586182 335.10310669 -308.64990234 334.09643555 C-307.75143009 332.11134941 -307.11668371 330.3606685 -306.79296875 328.203125 C-308.35438226 325.88082008 -308.35438226 325.88082008 -310.66796875 323.640625 C-315.66171363 318.36859093 -320.23325691 312.85113043 -324.79296875 307.203125 C-329.52387355 301.3785164 -334.29717148 295.59837617 -339.16796875 289.890625 C-342.95078405 285.45451012 -346.59829133 280.93712475 -350.16796875 276.328125 C-354.62223076 270.58447135 -359.3022597 265.0757848 -364.08837891 259.60693359 C-368.78302595 254.23901778 -373.31175684 248.75049885 -377.79296875 243.203125 C-379.24953604 241.4100223 -380.70790404 239.61838102 -382.16796875 237.828125 C-382.89757812 236.93351563 -383.6271875 236.03890625 -384.37890625 235.1171875 C-386.15825902 232.96929564 -387.95205769 230.84171568 -389.76953125 228.7265625 C-390.27178223 228.14052246 -390.7740332 227.55448242 -391.29150391 226.95068359 C-392.274175 225.80695031 -393.2606902 224.66650585 -394.25146484 223.52978516 C-396.35047278 221.08561039 -397.76281976 219.29357197 -398.79296875 216.203125 C-397.79589844 214.32470703 -397.79589844 214.32470703 -396.21484375 212.2109375 C-395.63629639 211.42976562 -395.05774902 210.64859375 -394.46166992 209.84375 C-393.82849854 209.01359375 -393.19532715 208.1834375 -392.54296875 207.328125 C-391.5825769 206.04808594 -391.5825769 206.04808594 -390.6027832 204.7421875 C-386.02388398 198.68940345 -381.26555793 192.82592403 -376.2890625 187.09765625 C-373.97135189 184.40998244 -371.75216682 181.66754995 -369.54296875 178.890625 C-359.76792916 166.93763799 -348.74644647 156.06515633 -337.85546875 145.140625 C-337.36528259 144.64776001 -336.87509644 144.15489502 -336.37005615 143.64709473 C-330.69131142 137.94479069 -324.9249286 132.41859392 -318.79296875 127.203125 C-317.70968413 126.25403284 -316.62760279 125.30356508 -315.546875 124.3515625 C-307.21669751 117.08676746 -298.5891301 110.2885324 -289.73925781 103.66894531 C-287.9484473 102.32022149 -286.17688378 100.95033599 -284.41015625 99.5703125 C-283.44335938 98.83039063 -282.4765625 98.09046875 -281.48046875 97.328125 C-280.65933594 96.69132812 -279.83820313 96.05453125 -278.9921875 95.3984375 C-276.79296875 94.203125 -276.79296875 94.203125 -274.77734375 94.296875 C-272.30031041 95.42811857 -270.45726414 96.84139694 -268.35546875 98.578125 C-267.48019531 99.29742187 -266.60492188 100.01671875 -265.703125 100.7578125 C-261.99657508 103.87230948 -258.29825718 106.99628591 -254.61157227 110.13427734 C-251.38063509 112.879791 -248.1168458 115.5699237 -244.79296875 118.203125 C-240.31364969 121.75167646 -235.95956839 125.43249376 -231.609375 129.13671875 C-228.37872563 131.88087033 -225.11598821 134.57060309 -221.79296875 137.203125 C-217.31364969 140.75167646 -212.95956839 144.43249376 -208.609375 148.13671875 C-205.37872563 150.88087033 -202.11598821 153.57060309 -198.79296875 156.203125 C-194.31814015 159.74811908 -189.96808736 163.42485605 -185.62255859 167.12573242 C-181.48608328 170.63971656 -177.27985499 174.05271438 -173.01171875 177.40625 C-170.89810211 179.11798179 -168.91506 180.92085426 -166.91796875 182.765625 C-164.1984532 185.46883248 -164.1984532 185.46883248 -161.89086914 185.00146484 C-159.52668626 184.10179325 -157.34112261 183.04524896 -155.1015625 181.8671875 C-99.73390599 153.203125 -99.73390599 153.203125 -80.79296875 153.203125 C-80.74582261 152.56228187 -80.69867647 151.92143873 -80.65010166 151.26117611 C-79.36296542 133.88035995 -77.8592679 116.52725985 -76.2265625 99.17578125 C-75.98510722 96.59696755 -75.7437404 94.01814556 -75.50245667 91.4393158 C-75.00224077 86.09896891 -74.50037317 80.7587809 -73.99731445 75.41870117 C-73.41663972 69.25420505 -72.8402866 63.08931482 -72.26587147 56.92423254 C-71.70837603 50.94274189 -71.14695053 44.96162726 -70.58397102 38.98064995 C-70.34641723 36.45172038 -70.10999442 33.9226843 -69.87472343 31.39354134 C-69.54803361 27.88581253 -69.21686876 24.37853455 -68.88452148 20.87133789 C-68.78840073 19.82893448 -68.69227997 18.78653107 -68.59324646 17.71253967 C-68.50220642 16.76153381 -68.41116638 15.81052795 -68.31736755 14.83070374 C-68.2397692 14.00444016 -68.16217085 13.17817659 -68.08222103 12.32687473 C-67.79296875 10.203125 -67.79296875 10.203125 -66.79296875 7.203125 C-59.74440126 4.75419963 -52.13178849 4.25921274 -44.74951172 3.39819336 C-42.56147095 3.14278475 -40.37446415 2.8796873 -38.1875 2.61523438 C-25.43516544 1.09407812 -12.85420321 0.04658965 0 0 Z " fill="#F4EFF4" transform="translate(491.79296875,-0.203125)"/>
<path d="M0 0 C2.99927996 2.69460314 5.9234449 5.4623214 8.84375 8.2421875 C9.60042969 8.93441406 10.35710937 9.62664062 11.13671875 10.33984375 C38.95749481 36.64035882 58.21537586 78.74087005 60.02075195 116.99243164 C60.04691239 118.33730303 60.06707474 119.6823011 60.08203125 121.02734375 C60.0918251 121.75715958 60.10161896 122.4869754 60.11170959 123.23890686 C60.64907148 173.69909425 43.45032006 215.62054298 8.28125 252.0546875 C-5.51567071 265.32222996 -21.55891373 275.87698307 -38.15625 285.2421875 C-37.78975342 285.68385254 -37.42325684 286.12551758 -37.0456543 286.58056641 C-32.73067455 291.7860029 -28.43693141 297.00851578 -24.15625 302.2421875 C-23.59711914 302.92410156 -23.03798828 303.60601563 -22.46191406 304.30859375 C-20.95476789 306.15407886 -19.45974945 308.00864653 -17.96875 309.8671875 C-17.52426514 310.40939941 -17.07978027 310.95161133 -16.62182617 311.51025391 C-11.81159406 317.56246836 -9.60093494 323.06792912 -9.87109375 330.8203125 C-10.61518359 337.13997959 -13.73596178 341.82189928 -18.15625 346.2421875 C-23.21235237 348.84065196 -27.58904552 349.74544168 -33.27734375 349.97265625 C-34.39448509 350.03287712 -34.39448509 350.03287712 -35.53419495 350.09431458 C-37.88694548 350.21835338 -40.24009726 350.32431446 -42.59375 350.4296875 C-44.19993106 350.51117102 -45.80605234 350.59384197 -47.41210938 350.67773438 C-51.32626611 350.87961413 -55.24088751 351.06529911 -59.15625 351.2421875 C-59.1407888 352.8648607 -59.1407888 352.8648607 -59.12501526 354.52031517 C-58.86967108 381.33993623 -58.61941475 408.1596015 -58.37394714 434.9793148 C-58.25511374 447.95123842 -58.13480381 460.92314479 -58.01074219 473.89501953 C-57.96277437 478.92870984 -57.91494837 483.96240148 -57.8671875 488.99609375 C-57.85535431 490.23969492 -57.84352112 491.4832961 -57.83132935 492.76458216 C-57.70126902 506.49488032 -57.5809179 520.22516452 -57.48535156 533.95574951 C-57.47677879 535.18030594 -57.46820602 536.40486236 -57.45937347 537.66652656 C-57.42523508 542.5622046 -57.3911811 547.45788271 -57.35845947 552.35357046 C-57.26418996 566.30870031 -57.12687732 580.26155564 -56.89734173 594.21515357 C-56.75904915 602.65514539 -56.65233106 611.0951021 -56.57055378 619.53583062 C-56.52206721 624.35399697 -56.45643538 629.17035693 -56.3444519 633.98749924 C-55.88809456 654.02629834 -55.62029213 670.9204092 -67.15625 688.2421875 C-68.06208399 689.70831936 -68.96353936 691.17716656 -69.86035156 692.64883423 C-77.00496758 704.29672732 -85.13986519 713.48297104 -97.15625 720.2421875 C-98.7340625 721.20125 -98.7340625 721.20125 -100.34375 722.1796875 C-104.06736219 723.58638544 -107.29569907 724.27867783 -111.15625 723.2421875 C-113.93908173 721.27151267 -115.95491525 718.82547413 -118.15625 716.2421875 C-122.78752891 710.87515036 -127.5360216 705.64292368 -132.40625 700.4921875 C-136.90735921 695.71662042 -141.37586611 690.9186964 -145.78125 686.0546875 C-150.24027449 681.16307108 -154.87782751 676.4858056 -159.58447266 671.83325195 C-163.13077428 668.3131598 -166.50082734 664.70233971 -169.7265625 660.8828125 C-171.07310841 659.33759589 -172.55011971 657.90892082 -174.03125 656.4921875 C-177.23419106 653.10083814 -177.27477161 649.92154686 -177.47265625 645.3828125 C-177.51551758 644.43970215 -177.55837891 643.4965918 -177.60253906 642.52490234 C-177.76076524 638.39573106 -177.89246293 634.26578018 -178.02587891 630.13574219 C-178.139458 627.61488182 -178.34249539 625.13362011 -178.60546875 622.625 C-179.17087233 616.17802014 -178.95315524 611.44215481 -174.77563477 606.17504883 C-172.84718231 603.99275745 -170.82726344 601.92335663 -168.75683594 599.87597656 C-165.98419598 597.04581997 -163.49665457 593.97727019 -160.96875 590.9296875 C-160.03898911 589.8283886 -159.10811563 588.72802735 -158.17578125 587.62890625 C-157.50933594 586.84128906 -156.84289062 586.05367187 -156.15625 585.2421875 C-160.38265485 580.19088066 -164.80269789 575.47286131 -169.48828125 570.84765625 C-170.16549728 570.17422684 -170.84271332 569.50079742 -171.54045105 568.80696106 C-173.68078661 566.6787383 -175.82435441 564.55381881 -177.96875 562.4296875 C-180.81144344 559.61352881 -183.65084682 556.79411244 -186.48828125 553.97265625 C-187.1423848 553.32685104 -187.79648834 552.68104584 -188.47041321 552.01567078 C-189.07161484 551.41777237 -189.67281647 550.81987396 -190.29223633 550.20385742 C-190.82263016 549.67870041 -191.35302399 549.1535434 -191.89949036 548.61247253 C-195.79530252 544.36474455 -194.5440622 536.90098042 -194.61621094 531.43164062 C-194.64272334 529.8990945 -194.68354544 528.36672353 -194.73925781 526.83496094 C-195.25468474 512.48373639 -195.25468474 512.48373639 -190.84375 507.40625 C-189.64533187 506.31674993 -188.4162679 505.25981774 -187.15625 504.2421875 C-185.97994512 503.08523934 -184.8119644 501.91970457 -183.65625 500.7421875 C-183.06972656 500.16597656 -182.48320313 499.58976563 -181.87890625 498.99609375 C-180.19661927 497.2832891 -178.64521241 495.51111305 -177.09375 493.6796875 C-171.50474807 487.17635576 -165.25332041 481.26315023 -159.15625 475.2421875 C-163.62638744 469.86379262 -168.38505554 464.94923949 -173.3984375 460.078125 C-174.97454577 458.52924337 -176.55004931 456.97974618 -178.125 455.4296875 C-180.58826666 453.00984381 -183.05504526 450.59407981 -185.53222656 448.18847656 C-187.93656185 445.85053318 -190.32484362 443.49716329 -192.7109375 441.140625 C-193.83107742 440.0639003 -193.83107742 440.0639003 -194.97384644 438.96542358 C-195.6552066 438.28766876 -196.33656677 437.60991394 -197.03857422 436.91162109 C-197.64224823 436.32206635 -198.24592224 435.7325116 -198.8678894 435.12509155 C-200.54262096 432.67751682 -200.48830866 431.15024565 -200.15625 428.2421875 C-198.90966797 426.35205078 -198.90966797 426.35205078 -197.1484375 424.5625 C-196.17209351 423.55038452 -196.17209351 423.55038452 -195.17602539 422.51782227 C-194.11436157 421.45325806 -194.11436157 421.45325806 -193.03125 420.3671875 C-191.56860304 418.85846774 -190.1063721 417.34934458 -188.64453125 415.83984375 C-187.89896973 415.07816895 -187.1534082 414.31649414 -186.38525391 413.53173828 C-182.9480072 410.00112497 -179.58126335 406.40630504 -176.21875 402.8046875 C-175.62239746 402.17256348 -175.02604492 401.54043945 -174.41162109 400.88916016 C-169.2988907 395.43608305 -168.97770069 392.3906485 -168.83984375 385.078125 C-168.8086721 383.71731308 -168.8086721 383.71731308 -168.77687073 382.32901001 C-168.71137865 379.4251477 -168.65249186 376.52119345 -168.59375 373.6171875 C-168.55056445 371.65103208 -168.50695015 369.68488603 -168.46289062 367.71875 C-168.35569761 362.89332388 -168.25442919 358.0678051 -168.15625 353.2421875 C-169.85793335 353.48231567 -169.85793335 353.48231567 -171.59399414 353.72729492 C-176.120301 354.29034318 -180.59481494 354.43750276 -185.15234375 354.48046875 C-185.98532486 354.4885405 -186.81830597 354.49661224 -187.67652893 354.50492859 C-189.42699156 354.51866948 -191.17747986 354.52943563 -192.92797852 354.53735352 C-194.70345005 354.54889839 -196.4788862 354.56938968 -198.25415039 354.59887695 C-219.22684718 354.94625483 -219.22684718 354.94625483 -225.74780273 348.72338867 C-229.34570255 344.62032351 -230.72295971 341.51794918 -230.6015625 336.01171875 C-228.47233895 322.76944246 -217.3633363 309.14802465 -210.68603516 297.84423828 C-208.81370936 294.65955134 -206.97790529 291.45607561 -205.15625 288.2421875 C-206.37828125 287.88640625 -206.37828125 287.88640625 -207.625 287.5234375 C-211.8905151 285.97577273 -215.70290824 283.95323537 -219.65625 281.7421875 C-220.44652588 281.30076416 -221.23680176 280.85934082 -222.05102539 280.40454102 C-240.59247474 269.85989783 -258.68985151 255.82056883 -272.15625 239.2421875 C-272.97609375 238.25992187 -273.7959375 237.27765625 -274.640625 236.265625 C-293.83510223 212.88570451 -306.73614417 185.23090549 -311.15625 155.2421875 C-311.32753418 154.17436035 -311.49881836 153.1065332 -311.67529297 152.00634766 C-317.37454258 107.40176362 -304.44866523 61.76831945 -277.15625 26.2421875 C-276.48464844 25.34628906 -275.81304688 24.45039063 -275.12109375 23.52734375 C-245.58894968 -14.31249402 -200.7542373 -37.96157046 -153.39111328 -44.1171875 C-98.45074698 -50.49919721 -42.00180872 -37.08946847 0 0 Z M-147.24609375 30.73046875 C-153.64784942 39.14831926 -155.78494238 48.17396867 -154.96875 58.6484375 C-153.45972689 67.57682421 -148.24438637 75.12895367 -141.30859375 80.7734375 C-133.21006891 86.29983557 -124.84659947 88.13571323 -115.15625 87.2421875 C-105.08473612 84.85395589 -97.32173997 79.79212964 -91.40625 71.3046875 C-86.47417761 63.16676805 -85.22595795 54.45973097 -87.21875 45.1796875 C-90.11152501 35.01588339 -96.31071271 27.33739388 -105.36328125 21.921875 C-119.96127358 14.99811744 -136.60117545 19.04230982 -147.24609375 30.73046875 Z " fill="#FFCE38" transform="translate(964.15625,300.7578125)"/>
<path d="M0 0 C0.33 0 0.66 0 1 0 C1.54676673 14.36781467 0.66724458 28.35317811 -0.875 42.625 C-0.96213257 43.43761292 -1.04926514 44.25022583 -1.13903809 45.08746338 C-4.07067789 72.14135578 -4.07067789 72.14135578 -6 76 C-8.80055566 76.46659953 -11.52593626 76.80566239 -14.34765625 77.0703125 C-15.19291367 77.15626678 -16.03817108 77.24222107 -16.90904236 77.33078003 C-18.7051173 77.51155652 -20.5016552 77.68778111 -22.29858398 77.85986328 C-25.02764725 78.12165665 -27.7550033 78.39742783 -30.48242188 78.67578125 C-32.22908354 78.84979479 -33.97582626 79.0229969 -35.72265625 79.1953125 C-36.5313063 79.27653351 -37.33995636 79.35775452 -38.17311096 79.44143677 C-43.13938009 79.9120484 -48.01317136 80.272508 -53 80 C-55.75 77.6640625 -55.75 77.6640625 -58 74.625 C-58.763125 73.62726563 -59.52625 72.62953125 -60.3125 71.6015625 C-62 69 -62 69 -62 67 C-60.32118837 65.62367695 -58.57808258 64.32558818 -56.8125 63.0625 C-34.16026973 46.49670182 -14.96333376 26.19601587 -1.05859375 1.6953125 C-0.53458984 0.85613281 -0.53458984 0.85613281 0 0 Z " fill="#F3ECF3" transform="translate(1023,524)"/>
</svg>
