<svg xmlns="http://www.w3.org/2000/svg" width="1024" height="1024" fill="none" viewBox="0 0 1024 1024"><mask id="c" width="768" height="1024" x="128" y="0" maskUnits="userSpaceOnUse" style="mask-type:alpha"><rect width="768" height="1024" x="128" fill="url(#a)" rx="90"/><rect width="768" height="1024" x="128" fill="url(#b)" rx="90"/><rect width="768" height="1024" x="128" fill="#000" fill-opacity=".2" rx="90"/><rect width="768" height="1024" x="128" fill="#000" fill-opacity=".2" rx="90"/></mask><g mask="url(#c)"><rect width="774.079" height="832" x="127.968" y="192" fill="url(#d)" rx="90"/><rect width="774.079" height="832" x="127.968" y="192" fill="#000" fill-opacity=".2" rx="90"/><rect width="774.079" height="832" x="127.968" y="192" fill="#000" fill-opacity=".2" rx="90"/><rect width="774.079" height="832" x="127.968" y="192" fill="#000" fill-opacity=".2" rx="90"/><g filter="url(#e)"><rect width="768" height="864" x="128" y="96" fill="url(#f)" rx="90"/><rect width="768" height="864" x="128" y="96" fill="#000" fill-opacity=".2" rx="90"/></g><g filter="url(#g)"><rect width="768" height="896" x="128" fill="url(#h)" rx="90"/><rect width="768" height="896" x="128" fill="url(#i)" fill-opacity=".45" rx="90"/><rect width="768" height="896" x="128" fill="url(#j)" fill-opacity=".3" rx="90"/></g><g fill="#fff" filter="url(#k)"><path d="M320 21.333C320 9.551 330.233 0 342.857 0H416v64h-73.143C330.233 64 320 54.449 320 42.667zm192 85.334C512 118.449 501.767 128 489.143 128H416V64h73.143C501.767 64 512 73.551 512 85.333zm-192 42.666C320 137.551 330.233 128 342.857 128H416v64h-73.143C330.233 192 320 182.449 320 170.667zm192 85.334C512 246.449 501.767 256 489.143 256H416v-64h73.143c12.624 0 22.857 9.551 22.857 21.333zm-192 42.666C320 265.551 330.233 256 342.857 256H416v64h-73.143C330.233 320 320 310.449 320 298.667zm192 85.334C512 374.449 501.767 384 489.143 384H416v-64h73.143c12.624 0 22.857 9.551 22.857 21.333z"/></g></g><g filter="url(#l)"><rect width="192" height="191" x="320" y="449" fill="#fff" rx="30"/><path fill="#0475d9" d="M378.602 492.85c6.547 0 11.872 5.235 12.017 11.747l.003.273c0 1.408-.242 2.76-.687 4.015-1.652 4.665-6.102 8.005-11.333 8.005s-9.681-3.34-11.333-8.005a12 12 0 0 1-.684-4.288c.145-6.512 5.47-11.747 12.017-11.747m0 84.661c5.261 0 9.732 3.379 11.361 8.085.427 1.233.659 2.557.659 3.935 0 6.639-5.381 12.02-12.02 12.02s-12.02-5.381-12.02-12.02c0-1.378.232-2.702.659-3.935 1.629-4.706 6.101-8.085 11.361-8.085"/><path fill="#0475d9" d="M367.269 508.885c.87 11.213 1.498 27.857 1.498 36.69 0 11.064-.641 29.14-1.526 40.021 1.629-4.706 6.101-8.085 11.361-8.085s9.732 3.379 11.361 8.085c-.885-10.881-1.526-28.957-1.526-40.021 0-8.833.628-25.477 1.498-36.69-1.652 4.665-6.102 8.005-11.333 8.005s-9.681-3.34-11.333-8.005"/><path fill="#0475d9" fill-rule="evenodd" d="M366.585 504.597c.239.013.469 1.518.684 4.288zm-.003 0h.003l-.003.273c0 1.408.242 2.76.687 4.015m-.028 76.711c-.208 2.557-.429 3.935-.659 3.935 0-1.378.232-2.702.659-3.935m23.381-80.999h-.003c-.239.013-.469 1.518-.684 4.288a12 12 0 0 0 .684-4.288m.003 84.934c-.229 0-.451-1.378-.659-3.935.427 1.233.659 2.557.659 3.935" clip-rule="evenodd"/><path fill="#0475d9" d="M456.19 492.85c6.547 0 11.872 5.235 12.017 11.747l.003.273c0 1.408-.242 2.76-.687 4.015-1.652 4.665-6.102 8.005-11.333 8.005s-9.681-3.34-11.333-8.005a12 12 0 0 1-.684-4.288c.145-6.512 5.47-11.747 12.017-11.747m0 84.661c5.26 0 9.732 3.379 11.361 8.085.427 1.233.659 2.557.659 3.935 0 6.639-5.381 12.02-12.02 12.02s-12.02-5.381-12.02-12.02c0-1.378.232-2.702.659-3.935 1.629-4.706 6.101-8.085 11.361-8.085"/><path fill="#0475d9" d="M444.857 508.885c.87 11.213 1.498 27.857 1.498 36.69 0 11.064-.641 29.14-1.526 40.021 1.629-4.706 6.101-8.085 11.361-8.085s9.732 3.379 11.361 8.085c-.885-10.881-1.526-28.957-1.526-40.021 0-8.833.628-25.477 1.498-36.69-1.652 4.665-6.102 8.005-11.333 8.005s-9.681-3.34-11.333-8.005"/><path fill="#0475d9" fill-rule="evenodd" d="M444.173 504.597c.239.013.469 1.518.684 4.288zm-.003 0h.003l-.003.273c0 1.408.242 2.76.687 4.015m-.028 76.711c-.208 2.557-.43 3.935-.659 3.935 0-1.378.232-2.702.659-3.935m23.381-80.999h-.003c-.239.013-.469 1.518-.684 4.288a12 12 0 0 0 .684-4.288m.003 84.934c-.229 0-.451-1.378-.659-3.935.427 1.233.659 2.557.659 3.935" clip-rule="evenodd"/><path fill="#0475d9" d="M370.069 497.568c4.629-4.63 12.096-4.693 16.804-.191l.195.191c.996.996 1.78 2.122 2.353 3.325 2.13 4.466 1.345 9.976-2.353 13.674-3.699 3.699-9.208 4.483-13.674 2.353a12 12 0 0 1-3.325-2.353q-.097-.097-.191-.195c-4.502-4.708-4.439-12.174.191-16.804m75.537 75.537c3.72-3.72 9.271-4.492 13.751-2.316a12 12 0 0 1 3.248 2.316c4.694 4.694 4.694 12.305 0 16.999s-12.305 4.694-16.999 0a12 12 0 0 1-2.317-3.248c-2.175-4.48-1.403-10.031 2.317-13.751"/><path fill="#0475d9" d="M373.394 516.92c8.544 7.313 31.574 29.456 37.82 35.702 7.824 7.823 25.007 25.913 32.075 34.234-2.175-4.48-1.403-10.031 2.317-13.751s9.271-4.492 13.751-2.316c-8.321-7.069-26.411-24.252-34.234-32.076-6.246-6.246-28.389-29.276-35.702-37.82 2.13 4.466 1.345 9.976-2.353 13.674-3.699 3.699-9.208 4.483-13.674 2.353"/><path fill="#0475d9" fill-rule="evenodd" d="M369.878 514.372c.178-.16 1.404.741 3.516 2.548zm-.002.002.002-.002q.094.098.191.195c.995.996 2.122 1.78 3.325 2.353m69.895 69.936c1.661 1.954 2.479 3.086 2.317 3.248a12 12 0 0 1-2.317-3.248m-56.414-89.481-.002.002c-.16.178.741 1.405 2.548 3.516a12 12 0 0 0-2.353-3.325l-.195-.191m75.732 75.728c-.162.162-1.294-.656-3.248-2.316a12 12 0 0 1 3.248 2.316" clip-rule="evenodd"/></g><defs><linearGradient id="a" x1="512" x2="512" y1="0" y2="1024" gradientUnits="userSpaceOnUse"><stop stop-color="#31a8ff"/><stop offset="1" stop-color="#007ad2"/></linearGradient><linearGradient id="b" x1="128" x2="1111.04" y1="0" y2="737.28" gradientUnits="userSpaceOnUse"><stop stop-color="#81dfff"/><stop offset=".513" stop-color="#3ac1fd"/><stop offset="1" stop-color="#0b9dff"/></linearGradient><linearGradient id="d" x1="515.008" x2="515.008" y1="192" y2="1024" gradientUnits="userSpaceOnUse"><stop stop-color="#0079d5"/><stop offset="1" stop-color="#0367cc"/></linearGradient><linearGradient id="f" x1="512" x2="512" y1="96" y2="960" gradientUnits="userSpaceOnUse"><stop stop-color="#0079d5"/><stop offset="1" stop-color="#0367cc"/></linearGradient><linearGradient id="h" x1="512" x2="512" y1="0" y2="896" gradientUnits="userSpaceOnUse"><stop stop-color="#0079d5"/><stop offset="1" stop-color="#0367cc"/></linearGradient><linearGradient id="i" x1="512" x2="512" y1="0" y2="896" gradientUnits="userSpaceOnUse"><stop stop-color="#0085ff"/><stop offset="1" stop-color="#0085ff" stop-opacity="0"/></linearGradient><linearGradient id="j" x1="512" x2="512" y1="0" y2="896" gradientUnits="userSpaceOnUse"><stop stop-color="#00c2ff"/><stop offset="1" stop-color="#00d1ff" stop-opacity="0"/></linearGradient><filter id="e" width="928" height="1024" x="48" y="16" color-interpolation-filters="sRGB" filterUnits="userSpaceOnUse"><feFlood flood-opacity="0" result="BackgroundImageFix"/><feColorMatrix in="SourceAlpha" result="hardAlpha" values="0 0 0 0 0 0 0 0 0 0 0 0 0 0 0 0 0 0 127 0"/><feOffset/><feGaussianBlur stdDeviation="40"/><feComposite in2="hardAlpha" operator="out"/><feColorMatrix values="0 0 0 0 0 0 0 0 0 0 0 0 0 0 0 0 0 0 0.25 0"/><feBlend in2="BackgroundImageFix" result="effect1_dropShadow_342_107"/><feBlend in="SourceGraphic" in2="effect1_dropShadow_342_107" result="shape"/></filter><filter id="g" width="1088" height="1216" x="-32" y="-152" color-interpolation-filters="sRGB" filterUnits="userSpaceOnUse"><feFlood flood-opacity="0" result="BackgroundImageFix"/><feColorMatrix in="SourceAlpha" result="hardAlpha" values="0 0 0 0 0 0 0 0 0 0 0 0 0 0 0 0 0 0 127 0"/><feOffset dy="8"/><feGaussianBlur stdDeviation="80"/><feComposite in2="hardAlpha" operator="out"/><feColorMatrix values="0 0 0 0 0 0 0 0 0 0 0 0 0 0 0 0 0 0 0.4 0"/><feBlend in2="BackgroundImageFix" result="effect1_dropShadow_342_107"/><feBlend in="SourceGraphic" in2="effect1_dropShadow_342_107" result="shape"/></filter><filter id="k" width="220" height="412" x="306" y="0" color-interpolation-filters="sRGB" filterUnits="userSpaceOnUse"><feFlood flood-opacity="0" result="BackgroundImageFix"/><feColorMatrix in="SourceAlpha" result="hardAlpha" values="0 0 0 0 0 0 0 0 0 0 0 0 0 0 0 0 0 0 127 0"/><feOffset dy="14"/><feGaussianBlur stdDeviation="7"/><feComposite in2="hardAlpha" operator="out"/><feColorMatrix values="0 0 0 0 0 0 0 0 0 0 0 0 0 0 0 0 0 0 0.25 0"/><feBlend in2="BackgroundImageFix" result="effect1_dropShadow_342_107"/><feBlend in="SourceGraphic" in2="effect1_dropShadow_342_107" result="shape"/></filter><filter id="l" width="224" height="223" x="304" y="445" color-interpolation-filters="sRGB" filterUnits="userSpaceOnUse"><feFlood flood-opacity="0" result="BackgroundImageFix"/><feColorMatrix in="SourceAlpha" result="hardAlpha" values="0 0 0 0 0 0 0 0 0 0 0 0 0 0 0 0 0 0 127 0"/><feOffset dy="12"/><feGaussianBlur stdDeviation="8"/><feColorMatrix values="0 0 0 0 0 0 0 0 0 0 0 0 0 0 0 0 0 0 0.25 0"/><feBlend in2="BackgroundImageFix" result="effect1_dropShadow_342_107"/><feBlend in="SourceGraphic" in2="effect1_dropShadow_342_107" result="shape"/></filter></defs></svg>