<svg xmlns="http://www.w3.org/2000/svg" xml:space="preserve" viewBox="0 0 163.3 108"><path d="M60.9 32.2v-9.7c1-.1 1.9-.1 2.9-.1 26.7-.8 44.2 23 44.2 23S89.1 71.5 68.8 71.5c-2.7 0-5.3-.4-7.9-1.3V40.7c10.4 1.3 12.5 5.8 18.7 16.2l13.9-11.7S83.3 31.9 66.3 31.9q-2.7 0-5.4.3m0-32.2v14.5l2.9-.2c37.1-1.3 61.3 30.4 61.3 30.4S97.3 78.6 68.4 78.6c-2.5 0-5-.2-7.5-.7v9c2 .2 4.1.4 6.2.4 26.9 0 46.4-13.8 65.3-30 3.1 2.5 15.9 8.6 18.6 11.2-17.9 15-59.7 27.1-83.4 27.1-2.3 0-4.4-.1-6.6-.4V108h102.3V0zm0 70.3V78C36 73.5 29.1 47.6 29.1 47.6s12-13.2 31.8-15.4v8.4h-.1c-10.4-1.3-18.6 8.5-18.6 8.5s4.7 16.4 18.7 21.2M16.7 46.5s14.7-21.8 44.2-24v-7.9C28.2 17.2 0 44.8 0 44.8s16 46.3 60.9 50.5v-8.4c-33-4.1-44.2-40.4-44.2-40.4" style="fill:#76b900"/></svg>