<svg xmlns="http://www.w3.org/2000/svg" width="119" height="119" fill="none" viewBox="0 0 119 119"><path fill="#1a3967" d="M78.833 58.043c.043-9.4-7.394-17.344-17.31-18.487-9.915-1.144-19.171 4.874-21.541 14.006-2.37 9.131 2.896 18.487 12.256 21.773l-7.58 37.987h29.068L66.28 75.26c7.556-2.756 12.54-9.592 12.553-17.217"/><path fill="#ed7f22" d="M118.249 57.793C117.583 25.683 91.309 0 59.125 0S.665 25.683 0 57.793C0 78.606 11.088 97.85 29.113 108.32l3.797-25.111a34.52 34.52 0 0 1-9.063-23.318c.512-19.075 16.156-34.273 35.278-34.273 19.121 0 34.765 15.198 35.277 34.273a34.55 34.55 0 0 1-9.19 23.47l3.772 25.035c18.123-10.43 29.282-29.725 29.265-50.602"/></svg>