<?xml version="1.0" encoding="UTF-8" standalone="no"?>
<!DOCTYPE svg PUBLIC "-//W3C//DTD SVG 1.1//EN" "http://www.w3.org/Graphics/SVG/1.1/DTD/svg11.dtd">
<svg width="100%" height="100%" viewBox="0 0 492 482" version="1.1" xmlns="http://www.w3.org/2000/svg" xmlns:xlink="http://www.w3.org/1999/xlink" xml:space="preserve" xmlns:serif="http://www.serif.com/" style="fill-rule:evenodd;clip-rule:evenodd;stroke-linecap:round;stroke-linejoin:round;stroke-miterlimit:1.5;">
    <g transform="matrix(1,0,0,1,-1224,-318)">
        <g transform="matrix(1,0,0,1,1196.23,-34.9568)">
            <path d="M434.784,449.903L40.114,449.903L40.114,820.194L434.784,820.194L434.784,449.903ZM507.148,378.124L112.087,378.124L40.114,449.903L435.175,449.903L507.148,378.124ZM507.148,378.124L507.148,747.635L434.784,820.194L434.784,450.684L507.148,378.124Z" style="fill:rgb(245,159,0);stroke:black;stroke-width:20px;"/>
        </g>
        <g transform="matrix(1.14094,0,0,1.14094,1123.71,-99.3908)">
            <g transform="matrix(0.421273,0,0,1,64.3346,-10.3648)">
                <path d="M860.922,492.074C860.922,484.474 846.275,478.303 828.234,478.303L155.077,478.303C137.036,478.303 122.389,484.474 122.389,492.074L122.389,755.971C122.389,763.571 137.036,769.742 155.077,769.742L828.234,769.742C846.275,769.742 860.922,763.571 860.922,755.971L860.922,492.074Z" style="fill:white;"/>
            </g>
            <g transform="matrix(0.739576,0,0,0.739576,89.9561,259.078)">
                <g transform="matrix(1.05292,0,0,1.05292,23.2854,-23.1291)">
                    <path d="M41.074,506.976L130.27,596.172L380.847,345.595" style="fill:none;stroke:rgb(178,242,187);stroke-width:67.61px;stroke-linecap:butt;stroke-linejoin:miter;"/>
                </g>
                <g transform="matrix(1,0,0,1,-6.00082,221.918)">
                    <path d="M92.279,411.687L92.279,125.469L161.984,125.469C169.253,125.469 176.522,126.248 183.791,127.806C191.06,129.363 197.875,131.959 204.235,135.594C210.596,139.228 216.177,143.966 220.98,149.807C225.783,155.649 229.612,161.944 232.468,168.694C235.323,175.444 237.335,182.453 238.504,189.722C239.672,196.991 240.256,204.26 240.256,211.529C240.256,219.058 239.672,226.457 238.504,233.726C237.335,240.995 235.323,248.004 232.468,254.754C229.612,261.504 225.783,267.735 220.98,273.446C216.177,279.157 210.596,283.895 204.235,287.659C197.875,291.424 191.06,294.085 183.791,295.642C176.522,297.2 169.253,297.979 161.984,297.979L131.22,297.979L131.22,411.687L92.279,411.687ZM131.22,263.711L161.984,263.711C166.138,263.711 170.162,263.126 174.056,261.958C177.95,260.79 181.52,258.908 184.765,256.312C188.01,253.716 190.671,250.6 192.748,246.966C194.824,243.331 196.512,239.567 197.81,235.673C199.108,231.779 199.952,227.82 200.341,223.796C200.731,219.772 200.925,215.683 200.925,211.529C200.925,207.635 200.731,203.611 200.341,199.458C199.952,195.304 199.108,191.28 197.81,187.386C196.512,183.492 194.824,179.792 192.748,176.288C190.671,172.783 188.01,169.732 184.765,167.136C181.52,164.54 177.95,162.658 174.056,161.49C170.162,160.322 166.138,159.738 161.984,159.738L131.22,159.738L131.22,263.711Z" style="fill-rule:nonzero;"/>
                    <path d="M282.312,411.687L282.312,125.469L352.017,125.469C359.286,125.469 366.555,126.248 373.824,127.806C381.093,129.363 387.908,131.959 394.268,135.594C400.629,139.228 406.21,143.966 411.013,149.807C415.816,155.649 419.645,161.944 422.501,168.694C425.357,175.444 427.369,182.453 428.537,189.722C429.705,196.991 430.289,204.26 430.289,211.529C430.289,219.058 429.705,226.457 428.537,233.726C427.369,240.995 425.357,248.004 422.501,254.754C419.645,261.504 415.816,267.735 411.013,273.446C406.21,279.157 400.629,283.895 394.268,287.659C387.908,291.424 381.093,294.085 373.824,295.642C366.555,297.2 359.286,297.979 352.017,297.979L321.254,297.979L321.254,411.687L282.312,411.687ZM321.254,263.711L352.017,263.711C356.171,263.711 360.195,263.126 364.089,261.958C367.983,260.79 371.553,258.908 374.798,256.312C378.043,253.716 380.704,250.6 382.781,246.966C384.858,243.331 386.545,239.567 387.843,235.673C389.141,231.779 389.985,227.82 390.374,223.796C390.764,219.772 390.958,215.683 390.958,211.529C390.958,207.635 390.764,203.611 390.374,199.458C389.985,195.304 389.141,191.28 387.843,187.386C386.545,183.492 384.858,179.792 382.781,176.288C380.704,172.783 378.043,169.732 374.798,167.136C371.553,164.54 367.983,162.658 364.089,161.49C360.195,160.322 356.171,159.738 352.017,159.738L321.254,159.738L321.254,263.711Z" style="fill-rule:nonzero;"/>
                </g>
            </g>
        </g>
    </g>
</svg>
