<svg xmlns="http://www.w3.org/2000/svg" xml:space="preserve" style="fill-rule:evenodd;clip-rule:evenodd;stroke-linecap:round;stroke-linejoin:round;stroke-miterlimit:1.5" viewBox="0 0 492 482"><path d="M434.784 449.903H40.114v370.291h394.67zm72.364-71.779H112.087l-71.973 71.779h395.061zm0 0v369.511l-72.364 72.559v-369.51z" style="fill:#f59f00;stroke:#000;stroke-width:20px" transform="translate(-27.77 -352.957)"/><path d="M860.922 492.074c0-7.6-14.647-13.771-32.688-13.771H155.077c-18.041 0-32.688 6.171-32.688 13.771v263.897c0 7.6 14.647 13.771 32.688 13.771h673.157c18.041 0 32.688-6.171 32.688-13.771z" style="fill:#fff" transform="matrix(.48065 0 0 1.14094 -26.888 -429.216)"/><path d="m41.074 506.976 89.196 89.196 250.577-250.577" style="fill:none;stroke:#b2f2bb;stroke-width:67.61px;stroke-linecap:butt;stroke-linejoin:miter" transform="translate(21.993 -141.315)scale(.88847)"/><path d="M92.279 411.687V125.469h69.705q10.903 0 21.807 2.337 10.904 2.336 20.444 7.788 9.541 5.451 16.745 14.213t11.488 18.887a90.8 90.8 0 0 1 6.036 21.028 137 137 0 0 1 1.752 21.807q0 11.293-1.752 22.197a90.8 90.8 0 0 1-6.036 21.028q-4.284 10.125-11.488 18.692t-16.745 14.213a67.7 67.7 0 0 1-20.444 7.983q-10.904 2.337-21.807 2.337H131.22v113.708zm38.941-147.976h30.764q6.231 0 12.072-1.753t10.709-5.646a32.5 32.5 0 0 0 7.983-9.346 62.7 62.7 0 0 0 5.062-11.293 53.8 53.8 0 0 0 2.531-11.877q.584-6.036.584-12.267 0-5.841-.584-12.071a54 54 0 0 0-2.531-12.072 57.2 57.2 0 0 0-5.062-11.098q-3.115-5.258-7.983-9.152t-10.709-5.646a41.8 41.8 0 0 0-12.072-1.752H131.22zm151.092 147.976V125.469h69.705q10.903 0 21.807 2.337 10.904 2.336 20.444 7.788 9.541 5.451 16.745 14.213t11.488 18.887a90.7 90.7 0 0 1 6.036 21.028 137 137 0 0 1 1.752 21.807q0 11.293-1.752 22.197a90.7 90.7 0 0 1-6.036 21.028q-4.284 10.125-11.488 18.692t-16.745 14.213a67.7 67.7 0 0 1-20.444 7.983q-10.904 2.337-21.807 2.337h-30.763v113.708zm38.942-147.976h30.763q6.231 0 12.072-1.753t10.709-5.646a32.5 32.5 0 0 0 7.983-9.346 62.7 62.7 0 0 0 5.062-11.293 53.8 53.8 0 0 0 2.531-11.877q.584-6.036.584-12.267 0-5.841-.584-12.071a54 54 0 0 0-2.531-12.072 57 57 0 0 0-5.062-11.098q-3.115-5.258-7.983-9.152t-10.709-5.646a41.8 41.8 0 0 0-12.072-1.752h-30.763z" style="fill-rule:nonzero" transform="translate(-2.72 65.459)scale(.84381)"/></svg>