<svg xmlns="http://www.w3.org/2000/svg" xmlns:v="https://svgstorm.com"
viewBox = "0 0 128 128"
width="128"
height="128">
<g fill="None" fill-opacity="0.0" stroke="#000000" stroke-opacity="0.00" stroke-width="0.3"><path d="
M 0.00 75.00 
C 7.75 67.77 16.00 60.02 23.25 52.25 C 30.49 44.48 32.92 51.56 41.00 49.00
C 43.27 45.66 47.20 41.87 50.00 39.00
C 50.76 37.91 51.27 36.94 52.00 36.00
C 64.86 19.53 87.09 1.90 108.00 1.00
C 107.78 0.87 108.00 0.00 108.00 0.00
L 0.00 0.00
L 0.00 75.00 Z"/>
</g>
<g fill="None" fill-opacity="0.0" stroke="#2F5266" stroke-opacity="0.14" stroke-width="0.3"><path d="
M 108.00 1.00 
C 109.33 0.94 110.67 1.02 112.00 1.00
C 112.22 0.87 112.00 0.00 112.00 0.00
L 108.00 0.00
C 108.00 0.00 107.78 0.87 108.00 1.00 Z"/>
</g>
<g fill="None" fill-opacity="0.0" stroke="#3C86B8" stroke-opacity="0.61" stroke-width="0.3"><path d="
M 112.00 1.00 
C 113.58 0.97 116.22 1.68 117.00 0.00
L 112.00 0.00
C 112.00 0.00 112.22 0.87 112.00 1.00 Z"/>
</g>
<g fill="None" fill-opacity="0.0" stroke="#469DD9" stroke-opacity="0.98" stroke-width="0.3"><path d="
M 112.00 1.00 
C 110.67 1.02 109.33 0.94 108.00 1.00
C 87.09 1.90 64.86 19.53 52.00 36.00
C 51.86 36.22 51.11 37.86 50.00 39.00
C 47.20 41.87 43.27 45.66 41.00 49.00
C 36.09 56.23 30.51 64.60 26.00 72.00
C 25.92 72.12 25.07 73.86 25.00 74.00
C 23.63 76.90 22.68 80.12 21.00 83.00
C 25.29 82.00 29.97 91.94 33.75 94.25 C 37.53 96.56 42.68 103.88 46.00 107.00
C 49.09 105.42 52.07 103.81 55.00 102.00
C 62.97 97.07 71.42 92.15 79.00 87.00
C 82.40 84.69 86.30 81.25 89.00 78.00
C 90.04 76.75 90.67 75.91 92.00 75.00
C 109.64 62.90 126.27 39.56 127.00 18.00
C 127.03 17.00 127.00 16.00 127.00 15.00
C 126.99 13.43 126.34 10.77 128.00 10.00
L 128.00 3.00
C 126.80 2.33 125.42 1.36 125.00 0.00
L 117.00 0.00
C 116.22 1.68 113.58 0.97 112.00 1.00
M 100.00 16.00 
C 119.46 20.53 112.54 52.48 92.33 47.67 C 72.12 42.86 79.67 11.27 100.00 16.00 Z"/>
</g>
<g fill="None" fill-opacity="0.0" stroke="#0B1113" stroke-opacity="0.02" stroke-width="0.3"><path d="
M 128.00 3.00 
L 128.00 0.00
L 125.00 0.00
C 125.42 1.36 126.80 2.33 128.00 3.00 Z"/>
</g>
<g fill="None" fill-opacity="0.0" stroke="#3D88BC" stroke-opacity="0.63" stroke-width="0.3"><path d="
M 127.00 15.00 
C 127.27 14.75 128.00 15.00 128.00 15.00
L 128.00 10.00
C 126.34 10.77 126.99 13.43 127.00 15.00 Z"/>
</g>
<g fill="None" fill-opacity="0.0" stroke="#295B7A" stroke-opacity="0.18" stroke-width="0.3"><path d="
M 127.00 18.00 
C 127.27 18.25 128.00 18.00 128.00 18.00
L 128.00 15.00
C 128.00 15.00 127.27 14.75 127.00 15.00
C 127.00 16.00 127.03 17.00 127.00 18.00 Z"/>
</g>
<g fill="None" fill-opacity="0.0" stroke="#4C4E4F" stroke-opacity="1.00" stroke-width="0.3"><path d="
M 100.00 16.00 
C 79.67 11.27 72.12 42.86 92.33 47.67 C 112.54 52.48 119.46 20.53 100.00 16.00
M 99.00 24.00 
C 108.53 26.56 103.17 43.79 93.33 39.67 C 83.49 35.55 88.79 21.26 99.00 24.00 Z"/>
</g>
<g fill="None" fill-opacity="0.0" stroke="#000000" stroke-opacity="0.00" stroke-width="0.3"><path d="
M 92.00 75.00 
C 91.12 75.75 89.81 77.20 89.00 78.00
C 86.30 81.25 82.40 84.69 79.00 87.00
C 76.11 95.23 83.50 97.50 75.75 104.75 C 68.00 112.00 60.17 120.29 53.00 128.00
L 128.00 128.00
L 128.00 18.00
C 128.00 18.00 127.27 18.25 127.00 18.00
C 126.27 39.56 109.64 62.90 92.00 75.00 Z"/>
</g>
<g fill="None" fill-opacity="0.0" stroke="#F5F5F5" stroke-opacity="1.00" stroke-width="0.3"><path d="
M 99.00 24.00 
C 88.79 21.26 83.49 35.55 93.33 39.67 C 103.17 43.79 108.53 26.56 99.00 24.00 Z"/>
</g>
<g fill="None" fill-opacity="0.0" stroke="#3880AF" stroke-opacity="0.57" stroke-width="0.3"><path d="
M 50.00 39.00 
C 51.11 37.86 51.86 36.22 52.00 36.00
C 51.27 36.94 50.76 37.91 50.00 39.00 Z"/>
</g>
<g fill="None" fill-opacity="0.0" stroke="#C6C6C7" stroke-opacity="0.94" stroke-width="0.3"><path d="
M 0.00 75.00 
L 0.00 78.00
C 1.47 79.49 2.74 81.78 3.00 84.00
C 10.64 82.22 16.62 75.60 24.00 73.00
C 24.40 72.80 25.49 72.28 26.00 72.00
C 30.51 64.60 36.09 56.23 41.00 49.00
C 32.92 51.56 30.49 44.48 23.25 52.25 C 16.00 60.02 7.75 67.77 0.00 75.00 Z"/>
</g>
<g fill="None" fill-opacity="0.0" stroke="#605A55" stroke-opacity="0.04" stroke-width="0.3"><path d="
M 24.00 73.00 
C 24.33 72.99 25.01 73.67 25.00 74.00
C 25.07 73.86 25.92 72.12 26.00 72.00
C 25.49 72.28 24.40 72.80 24.00 73.00 Z"/>
</g>
<g fill="None" fill-opacity="0.0" stroke="#000000" stroke-opacity="0.00" stroke-width="0.3"><path d="
M 0.00 78.00 
L 0.00 116.00
C 5.11 108.65 9.72 99.53 16.00 93.00
C 16.25 92.74 16.89 92.26 17.00 92.00
C 18.32 88.83 19.33 85.87 21.00 83.00
C 22.68 80.12 23.63 76.90 25.00 74.00
C 25.01 73.67 24.33 72.99 24.00 73.00
C 16.62 75.60 10.64 82.22 3.00 84.00
C 2.74 81.78 1.47 79.49 0.00 78.00 Z"/>
</g>
<g fill="None" fill-opacity="0.0" stroke="#4090C6" stroke-opacity="0.73" stroke-width="0.3"><path d="
M 89.00 78.00 
C 89.81 77.20 91.12 75.75 92.00 75.00
C 90.67 75.91 90.04 76.75 89.00 78.00 Z"/>
</g>
<g fill="None" fill-opacity="0.0" stroke="#3677A3" stroke-opacity="0.96" stroke-width="0.3"><path d="
M 17.00 92.00 
C 18.51 93.07 19.72 95.72 21.00 97.00
C 24.25 100.25 27.79 103.79 31.00 107.00
C 32.40 108.40 34.09 109.13 35.00 111.00
C 35.20 111.40 35.00 112.00 35.00 112.00
C 38.73 111.45 42.63 108.72 46.00 107.00
C 42.68 103.88 37.53 96.56 33.75 94.25 C 29.97 91.94 25.29 82.00 21.00 83.00
C 19.33 85.87 18.32 88.83 17.00 92.00 Z"/>
</g>
<g fill="None" fill-opacity="0.0" stroke="#C6C6C6" stroke-opacity="0.93" stroke-width="0.3"><path d="
M 55.00 102.00 
C 50.55 108.29 47.85 118.24 44.00 125.00
C 46.11 125.40 48.66 126.38 50.00 128.00
L 53.00 128.00
C 60.17 120.29 68.00 112.00 75.75 104.75 C 83.50 97.50 76.11 95.23 79.00 87.00
C 71.42 92.15 62.97 97.07 55.00 102.00 Z"/>
</g>
<g fill="None" fill-opacity="0.0" stroke="#8F987F" stroke-opacity="0.85" stroke-width="0.3"><path d="
M 16.00 93.00 
C 16.98 94.39 19.63 96.04 21.00 97.00
C 19.72 95.72 18.51 93.07 17.00 92.00
C 16.89 92.26 16.25 92.74 16.00 93.00 Z"/>
</g>
<g fill="None" fill-opacity="0.0" stroke="#F7C562" stroke-opacity="0.92" stroke-width="0.3"><path d="
M 0.00 116.00 
L 0.00 124.00
C 0.96 125.62 2.73 126.71 4.00 128.00
L 12.00 128.00
C 18.84 122.17 28.65 118.76 35.00 112.00
C 35.00 112.00 35.20 111.40 35.00 111.00
C 33.31 109.82 32.14 108.64 31.00 107.00
C 30.84 106.77 30.00 107.00 30.00 107.00
C 27.63 110.63 13.37 123.99 8.78 119.22 C 4.18 114.45 17.20 100.66 21.00 98.00
C 20.77 97.84 21.00 97.00 21.00 97.00
C 19.63 96.04 16.98 94.39 16.00 93.00
C 9.72 99.53 5.11 108.65 0.00 116.00 Z"/>
</g>
<g fill="None" fill-opacity="0.0" stroke="#907583" stroke-opacity="1.00" stroke-width="0.3"><path d="
M 21.00 98.00 
C 24.31 100.32 27.72 103.74 30.00 107.00
C 30.00 107.00 30.84 106.77 31.00 107.00
C 27.79 103.79 24.25 100.25 21.00 97.00
C 21.00 97.00 20.77 97.84 21.00 98.00 Z"/>
</g>
<g fill="None" fill-opacity="0.0" stroke="#EC7260" stroke-opacity="1.00" stroke-width="0.3"><path d="
M 30.00 107.00 
C 27.72 103.74 24.31 100.32 21.00 98.00
C 17.20 100.66 4.18 114.45 8.78 119.22 C 13.37 123.99 27.63 110.63 30.00 107.00 Z"/>
</g>
<g fill="None" fill-opacity="0.0" stroke="#000000" stroke-opacity="0.00" stroke-width="0.3"><path d="
M 46.00 107.00 
C 42.63 108.72 38.73 111.45 35.00 112.00
C 28.65 118.76 18.84 122.17 12.00 128.00
L 50.00 128.00
C 48.66 126.38 46.11 125.40 44.00 125.00
C 47.85 118.24 50.55 108.29 55.00 102.00
C 52.07 103.81 49.09 105.42 46.00 107.00 Z"/>
</g>
<g fill="None" fill-opacity="0.0" stroke="#98A185" stroke-opacity="1.00" stroke-width="0.3"><path d="
M 35.00 111.00 
C 34.09 109.13 32.40 108.40 31.00 107.00
C 32.14 108.64 33.31 109.82 35.00 111.00 Z"/>
</g>
<g fill="None" fill-opacity="0.0" stroke="#020202" stroke-opacity="0.01" stroke-width="0.3"><path d="
M 0.00 128.00 
L 4.00 128.00
C 2.73 126.71 0.96 125.62 0.00 124.00
L 0.00 128.00 Z"/>
</g>
<g fill="#000000" fill-opacity="0.00" stroke="None">
<path d="
M 0.00 75.00 
C 7.75 67.77 16.00 60.02 23.25 52.25 C 30.49 44.48 32.92 51.56 41.00 49.00
C 43.27 45.66 47.20 41.87 50.00 39.00
C 50.76 37.91 51.27 36.94 52.00 36.00
C 64.86 19.53 87.09 1.90 108.00 1.00
C 107.78 0.87 108.00 0.00 108.00 0.00
L 0.00 0.00
L 0.00 75.00 Z"/>
</g>
<g fill="#2F5266" fill-opacity="0.14" stroke="None">
<path d="
M 108.00 1.00 
C 109.33 0.94 110.67 1.02 112.00 1.00
C 112.22 0.87 112.00 0.00 112.00 0.00
L 108.00 0.00
C 108.00 0.00 107.78 0.87 108.00 1.00 Z"/>
</g>
<g fill="#3C86B8" fill-opacity="0.61" stroke="None">
<path d="
M 112.00 1.00 
C 113.58 0.97 116.22 1.68 117.00 0.00
L 112.00 0.00
C 112.00 0.00 112.22 0.87 112.00 1.00 Z"/>
</g>
<g fill="#469DD9" fill-opacity="0.98" stroke="None">
<path d="
M 112.00 1.00 
C 110.67 1.02 109.33 0.94 108.00 1.00
C 87.09 1.90 64.86 19.53 52.00 36.00
C 51.86 36.22 51.11 37.86 50.00 39.00
C 47.20 41.87 43.27 45.66 41.00 49.00
C 36.09 56.23 30.51 64.60 26.00 72.00
C 25.92 72.12 25.07 73.86 25.00 74.00
C 23.63 76.90 22.68 80.12 21.00 83.00
C 25.29 82.00 29.97 91.94 33.75 94.25 C 37.53 96.56 42.68 103.88 46.00 107.00
C 49.09 105.42 52.07 103.81 55.00 102.00
C 62.97 97.07 71.42 92.15 79.00 87.00
C 82.40 84.69 86.30 81.25 89.00 78.00
C 90.04 76.75 90.67 75.91 92.00 75.00
C 109.64 62.90 126.27 39.56 127.00 18.00
C 127.03 17.00 127.00 16.00 127.00 15.00
C 126.99 13.43 126.34 10.77 128.00 10.00
L 128.00 3.00
C 126.80 2.33 125.42 1.36 125.00 0.00
L 117.00 0.00
C 116.22 1.68 113.58 0.97 112.00 1.00
M 100.00 16.00 
C 119.46 20.53 112.54 52.48 92.33 47.67 C 72.12 42.86 79.67 11.27 100.00 16.00 Z"/>
</g>
<g fill="#0B1113" fill-opacity="0.02" stroke="None">
<path d="
M 128.00 3.00 
L 128.00 0.00
L 125.00 0.00
C 125.42 1.36 126.80 2.33 128.00 3.00 Z"/>
</g>
<g fill="#3D88BC" fill-opacity="0.63" stroke="None">
<path d="
M 127.00 15.00 
C 127.27 14.75 128.00 15.00 128.00 15.00
L 128.00 10.00
C 126.34 10.77 126.99 13.43 127.00 15.00 Z"/>
</g>
<g fill="#295B7A" fill-opacity="0.18" stroke="None">
<path d="
M 127.00 18.00 
C 127.27 18.25 128.00 18.00 128.00 18.00
L 128.00 15.00
C 128.00 15.00 127.27 14.75 127.00 15.00
C 127.00 16.00 127.03 17.00 127.00 18.00 Z"/>
</g>
<g fill="#4C4E4F" fill-opacity="1.00" stroke="None">
<path d="
M 100.00 16.00 
C 79.67 11.27 72.12 42.86 92.33 47.67 C 112.54 52.48 119.46 20.53 100.00 16.00
M 99.00 24.00 
C 108.53 26.56 103.17 43.79 93.33 39.67 C 83.49 35.55 88.79 21.26 99.00 24.00 Z"/>
</g>
<g fill="#000000" fill-opacity="0.00" stroke="None">
<path d="
M 92.00 75.00 
C 91.12 75.75 89.81 77.20 89.00 78.00
C 86.30 81.25 82.40 84.69 79.00 87.00
C 76.11 95.23 83.50 97.50 75.75 104.75 C 68.00 112.00 60.17 120.29 53.00 128.00
L 128.00 128.00
L 128.00 18.00
C 128.00 18.00 127.27 18.25 127.00 18.00
C 126.27 39.56 109.64 62.90 92.00 75.00 Z"/>
</g>
<g fill="#F5F5F5" fill-opacity="1.00" stroke="None">
<path d="
M 99.00 24.00 
C 88.79 21.26 83.49 35.55 93.33 39.67 C 103.17 43.79 108.53 26.56 99.00 24.00 Z"/>
</g>
<g fill="#3880AF" fill-opacity="0.57" stroke="None">
<path d="
M 50.00 39.00 
C 51.11 37.86 51.86 36.22 52.00 36.00
C 51.27 36.94 50.76 37.91 50.00 39.00 Z"/>
</g>
<g fill="#C6C6C7" fill-opacity="0.94" stroke="None">
<path d="
M 0.00 75.00 
L 0.00 78.00
C 1.47 79.49 2.74 81.78 3.00 84.00
C 10.64 82.22 16.62 75.60 24.00 73.00
C 24.40 72.80 25.49 72.28 26.00 72.00
C 30.51 64.60 36.09 56.23 41.00 49.00
C 32.92 51.56 30.49 44.48 23.25 52.25 C 16.00 60.02 7.75 67.77 0.00 75.00 Z"/>
</g>
<g fill="#605A55" fill-opacity="0.04" stroke="None">
<path d="
M 24.00 73.00 
C 24.33 72.99 25.01 73.67 25.00 74.00
C 25.07 73.86 25.92 72.12 26.00 72.00
C 25.49 72.28 24.40 72.80 24.00 73.00 Z"/>
</g>
<g fill="#000000" fill-opacity="0.00" stroke="None">
<path d="
M 0.00 78.00 
L 0.00 116.00
C 5.11 108.65 9.72 99.53 16.00 93.00
C 16.25 92.74 16.89 92.26 17.00 92.00
C 18.32 88.83 19.33 85.87 21.00 83.00
C 22.68 80.12 23.63 76.90 25.00 74.00
C 25.01 73.67 24.33 72.99 24.00 73.00
C 16.62 75.60 10.64 82.22 3.00 84.00
C 2.74 81.78 1.47 79.49 0.00 78.00 Z"/>
</g>
<g fill="#4090C6" fill-opacity="0.73" stroke="None">
<path d="
M 89.00 78.00 
C 89.81 77.20 91.12 75.75 92.00 75.00
C 90.67 75.91 90.04 76.75 89.00 78.00 Z"/>
</g>
<g fill="#3677A3" fill-opacity="0.96" stroke="None">
<path d="
M 17.00 92.00 
C 18.51 93.07 19.72 95.72 21.00 97.00
C 24.25 100.25 27.79 103.79 31.00 107.00
C 32.40 108.40 34.09 109.13 35.00 111.00
C 35.20 111.40 35.00 112.00 35.00 112.00
C 38.73 111.45 42.63 108.72 46.00 107.00
C 42.68 103.88 37.53 96.56 33.75 94.25 C 29.97 91.94 25.29 82.00 21.00 83.00
C 19.33 85.87 18.32 88.83 17.00 92.00 Z"/>
</g>
<g fill="#C6C6C6" fill-opacity="0.93" stroke="None">
<path d="
M 55.00 102.00 
C 50.55 108.29 47.85 118.24 44.00 125.00
C 46.11 125.40 48.66 126.38 50.00 128.00
L 53.00 128.00
C 60.17 120.29 68.00 112.00 75.75 104.75 C 83.50 97.50 76.11 95.23 79.00 87.00
C 71.42 92.15 62.97 97.07 55.00 102.00 Z"/>
</g>
<g fill="#8F987F" fill-opacity="0.85" stroke="None">
<path d="
M 16.00 93.00 
C 16.98 94.39 19.63 96.04 21.00 97.00
C 19.72 95.72 18.51 93.07 17.00 92.00
C 16.89 92.26 16.25 92.74 16.00 93.00 Z"/>
</g>
<g fill="#F7C562" fill-opacity="0.92" stroke="None">
<path d="
M 0.00 116.00 
L 0.00 124.00
C 0.96 125.62 2.73 126.71 4.00 128.00
L 12.00 128.00
C 18.84 122.17 28.65 118.76 35.00 112.00
C 35.00 112.00 35.20 111.40 35.00 111.00
C 33.31 109.82 32.14 108.64 31.00 107.00
C 30.84 106.77 30.00 107.00 30.00 107.00
C 27.63 110.63 13.37 123.99 8.78 119.22 C 4.18 114.45 17.20 100.66 21.00 98.00
C 20.77 97.84 21.00 97.00 21.00 97.00
C 19.63 96.04 16.98 94.39 16.00 93.00
C 9.72 99.53 5.11 108.65 0.00 116.00 Z"/>
</g>
<g fill="#907583" fill-opacity="1.00" stroke="None">
<path d="
M 21.00 98.00 
C 24.31 100.32 27.72 103.74 30.00 107.00
C 30.00 107.00 30.84 106.77 31.00 107.00
C 27.79 103.79 24.25 100.25 21.00 97.00
C 21.00 97.00 20.77 97.84 21.00 98.00 Z"/>
</g>
<g fill="#EC7260" fill-opacity="1.00" stroke="None">
<path d="
M 30.00 107.00 
C 27.72 103.74 24.31 100.32 21.00 98.00
C 17.20 100.66 4.18 114.45 8.78 119.22 C 13.37 123.99 27.63 110.63 30.00 107.00 Z"/>
</g>
<g fill="#000000" fill-opacity="0.00" stroke="None">
<path d="
M 46.00 107.00 
C 42.63 108.72 38.73 111.45 35.00 112.00
C 28.65 118.76 18.84 122.17 12.00 128.00
L 50.00 128.00
C 48.66 126.38 46.11 125.40 44.00 125.00
C 47.85 118.24 50.55 108.29 55.00 102.00
C 52.07 103.81 49.09 105.42 46.00 107.00 Z"/>
</g>
<g fill="#98A185" fill-opacity="1.00" stroke="None">
<path d="
M 35.00 111.00 
C 34.09 109.13 32.40 108.40 31.00 107.00
C 32.14 108.64 33.31 109.82 35.00 111.00 Z"/>
</g>
<g fill="#020202" fill-opacity="0.01" stroke="None">
<path d="
M 0.00 128.00 
L 4.00 128.00
C 2.73 126.71 0.96 125.62 0.00 124.00
L 0.00 128.00 Z"/>
</g>
</svg>