<svg xmlns="http://www.w3.org/2000/svg" width="128" height="128" viewBox="0 0 128 128"><path fill="none" d="M0 75c7.75-7.23 16-14.98 23.25-22.75 7.24-7.77 9.67-.69 17.75-3.25 2.27-3.34 6.2-7.13 9-10 .76-1.09 1.27-2.06 2-3C64.86 19.53 87.09 1.9 108 1c-.22-.13 0-1 0-1H0z"/><path fill="none" stroke="#2f5266" stroke-opacity=".14" stroke-width=".3" d="M108 1c1.33-.06 2.67.02 4 0 .22-.13 0-1 0-1h-4s-.22.87 0 1Z"/><path fill="none" stroke="#3c86b8" stroke-opacity=".61" stroke-width=".3" d="M112 1c1.58-.03 4.22.68 5-1h-5s.22.87 0 1Z"/><path fill="none" stroke="#469dd9" stroke-opacity=".98" stroke-width=".3" d="M112 1c-1.33.02-2.67-.06-4 0-20.91.9-43.14 18.53-56 35-.14.22-.89 1.86-2 3-2.8 2.87-6.73 6.66-9 10-4.91 7.23-10.49 15.6-15 23-.08.12-.93 1.86-1 2-1.37 2.9-2.32 6.12-4 9 4.29-1 8.97 8.94 12.75 11.25S42.68 103.88 46 107c3.09-1.58 6.07-3.19 9-5 7.97-4.93 16.42-9.85 24-15 3.4-2.31 7.3-5.75 10-9 1.04-1.25 1.67-2.09 3-3 17.64-12.1 34.27-35.44 35-57 .03-1 0-2 0-3-.01-1.57-.66-4.23 1-5V3c-1.2-.67-2.58-1.64-3-3h-8c-.78 1.68-3.42.97-5 1m-12 15c19.46 4.53 12.54 36.48-7.67 31.67S79.67 11.27 100 16Z"/><path fill="none" stroke="#0b1113" stroke-opacity=".02" stroke-width=".3" d="M128 3V0h-3c.42 1.36 1.8 2.33 3 3Z"/><path fill="none" stroke="#3d88bc" stroke-opacity=".63" stroke-width=".3" d="M127 15c.27-.25 1 0 1 0v-5c-1.66.77-1.01 3.43-1 5Z"/><path fill="none" stroke="#295b7a" stroke-opacity=".18" stroke-width=".3" d="M127 18c.27.25 1 0 1 0v-3s-.73-.25-1 0c0 1 .03 2 0 3Z"/><path fill="none" stroke="#4c4e4f" stroke-width=".3" d="M100 16c-20.33-4.73-27.88 26.86-7.67 31.67S119.46 20.53 100 16m-1 8c9.53 2.56 4.17 19.79-5.67 15.67S88.79 21.26 99 24Z"/><path fill="none" d="M92 75c-.88.75-2.19 2.2-3 3-2.7 3.25-6.6 6.69-10 9-2.89 8.23 4.5 10.5-3.25 17.75S60.17 120.29 53 128h75V18s-.73.25-1 0c-.73 21.56-17.36 44.9-35 57"/><path fill="none" stroke="#f5f5f5" stroke-width=".3" d="M99 24c-10.21-2.74-15.51 11.55-5.67 15.67S108.53 26.56 99 24Z"/><path fill="none" stroke="#3880af" stroke-opacity=".57" stroke-width=".3" d="M50 39c1.11-1.14 1.86-2.78 2-3-.73.94-1.24 1.91-2 3Z"/><path fill="none" stroke="#c6c6c7" stroke-opacity=".94" stroke-width=".3" d="M0 75v3c1.47 1.49 2.74 3.78 3 6 7.64-1.78 13.62-8.4 21-11 .4-.2 1.49-.72 2-1 4.51-7.4 10.09-15.77 15-23-8.08 2.56-10.51-4.52-17.75 3.25C16 60.02 7.75 67.77 0 75Z"/><path fill="none" stroke="#605a55" stroke-opacity=".04" stroke-width=".3" d="M24 73c.33-.01 1.01.67 1 1 .07-.14.92-1.88 1-2-.51.28-1.6.8-2 1Z"/><path fill="none" d="M0 78v38c5.11-7.35 9.72-16.47 16-23 .25-.26.89-.74 1-1 1.32-3.17 2.33-6.13 4-9 1.68-2.88 2.63-6.1 4-9 .01-.33-.67-1.01-1-1-7.38 2.6-13.36 9.22-21 11-.26-2.22-1.53-4.51-3-6"/><path fill="none" stroke="#4090c6" stroke-opacity=".73" stroke-width=".3" d="M89 78c.81-.8 2.12-2.25 3-3-1.33.91-1.96 1.75-3 3Z"/><path fill="none" stroke="#3677a3" stroke-opacity=".96" stroke-width=".3" d="M17 92c1.51 1.07 2.72 3.72 4 5l10 10c1.4 1.4 3.09 2.13 4 4 .2.4 0 1 0 1 3.73-.55 7.63-3.28 11-5-3.32-3.12-8.47-10.44-12.25-12.75S25.29 82 21 83c-1.67 2.87-2.68 5.83-4 9Z"/><path fill="none" stroke="#c6c6c6" stroke-opacity=".93" stroke-width=".3" d="M55 102c-4.45 6.29-7.15 16.24-11 23 2.11.4 4.66 1.38 6 3h3c7.17-7.71 15-16 22.75-23.25S76.11 95.23 79 87c-7.58 5.15-16.03 10.07-24 15Z"/><path fill="none" stroke="#8f987f" stroke-opacity=".85" stroke-width=".3" d="M16 93c.98 1.39 3.63 3.04 5 4-1.28-1.28-2.49-3.93-4-5-.11.26-.75.74-1 1Z"/><path fill="none" stroke="#f7c562" stroke-opacity=".92" stroke-width=".3" d="M0 116v8c.96 1.62 2.73 2.71 4 4h8c6.84-5.83 16.65-9.24 23-16 0 0 .2-.6 0-1-1.69-1.18-2.86-2.36-4-4-.16-.23-1 0-1 0-2.37 3.63-16.63 16.99-21.22 12.22C4.18 114.45 17.2 100.66 21 98c-.23-.16 0-1 0-1-1.37-.96-4.02-2.61-5-4-6.28 6.53-10.89 15.65-16 23Z"/><path fill="none" stroke="#907583" stroke-width=".3" d="M21 98c3.31 2.32 6.72 5.74 9 9 0 0 .84-.23 1 0L21 97s-.23.84 0 1Z"/><path fill="none" stroke="#ec7260" stroke-width=".3" d="M30 107c-2.28-3.26-5.69-6.68-9-9-3.8 2.66-16.82 16.45-12.22 21.22 4.59 4.77 18.85-8.59 21.22-12.22Z"/><path fill="none" d="M46 107c-3.37 1.72-7.27 4.45-11 5-6.35 6.76-16.16 10.17-23 16h38c-1.34-1.62-3.89-2.6-6-3 3.85-6.76 6.55-16.71 11-23-2.93 1.81-5.91 3.42-9 5"/><path fill="none" stroke="#98a185" stroke-width=".3" d="M35 111c-.91-1.87-2.6-2.6-4-4 1.14 1.64 2.31 2.82 4 4Z"/><path fill="none" stroke="#020202" stroke-opacity=".01" stroke-width=".3" d="M0 128h4c-1.27-1.29-3.04-2.38-4-4z"/><path fill="none" d="M0 75c7.75-7.23 16-14.98 23.25-22.75 7.24-7.77 9.67-.69 17.75-3.25 2.27-3.34 6.2-7.13 9-10 .76-1.09 1.27-2.06 2-3C64.86 19.53 87.09 1.9 108 1c-.22-.13 0-1 0-1H0z"/><path fill="#2f5266" fill-opacity=".14" d="M108 1c1.33-.06 2.67.02 4 0 .22-.13 0-1 0-1h-4s-.22.87 0 1"/><path fill="#3c86b8" fill-opacity=".61" d="M112 1c1.58-.03 4.22.68 5-1h-5s.22.87 0 1"/><path fill="#469dd9" fill-opacity=".98" d="M112 1c-1.33.02-2.67-.06-4 0-20.91.9-43.14 18.53-56 35-.14.22-.89 1.86-2 3-2.8 2.87-6.73 6.66-9 10-4.91 7.23-10.49 15.6-15 23-.08.12-.93 1.86-1 2-1.37 2.9-2.32 6.12-4 9 4.29-1 8.97 8.94 12.75 11.25S42.68 103.88 46 107c3.09-1.58 6.07-3.19 9-5 7.97-4.93 16.42-9.85 24-15 3.4-2.31 7.3-5.75 10-9 1.04-1.25 1.67-2.09 3-3 17.64-12.1 34.27-35.44 35-57 .03-1 0-2 0-3-.01-1.57-.66-4.23 1-5V3c-1.2-.67-2.58-1.64-3-3h-8c-.78 1.68-3.42.97-5 1m-12 15c19.46 4.53 12.54 36.48-7.67 31.67S79.67 11.27 100 16"/><path fill="#0b1113" fill-opacity=".02" d="M128 3V0h-3c.42 1.36 1.8 2.33 3 3"/><path fill="#3d88bc" fill-opacity=".63" d="M127 15c.27-.25 1 0 1 0v-5c-1.66.77-1.01 3.43-1 5"/><path fill="#295b7a" fill-opacity=".18" d="M127 18c.27.25 1 0 1 0v-3s-.73-.25-1 0c0 1 .03 2 0 3"/><path fill="#4c4e4f" d="M100 16c-20.33-4.73-27.88 26.86-7.67 31.67S119.46 20.53 100 16m-1 8c9.53 2.56 4.17 19.79-5.67 15.67S88.79 21.26 99 24"/><path fill="none" d="M92 75c-.88.75-2.19 2.2-3 3-2.7 3.25-6.6 6.69-10 9-2.89 8.23 4.5 10.5-3.25 17.75S60.17 120.29 53 128h75V18s-.73.25-1 0c-.73 21.56-17.36 44.9-35 57"/><path fill="#f5f5f5" d="M99 24c-10.21-2.74-15.51 11.55-5.67 15.67S108.53 26.56 99 24"/><path fill="#3880af" fill-opacity=".57" d="M50 39c1.11-1.14 1.86-2.78 2-3-.73.94-1.24 1.91-2 3"/><path fill="#c6c6c7" fill-opacity=".94" d="M0 75v3c1.47 1.49 2.74 3.78 3 6 7.64-1.78 13.62-8.4 21-11 .4-.2 1.49-.72 2-1 4.51-7.4 10.09-15.77 15-23-8.08 2.56-10.51-4.52-17.75 3.25C16 60.02 7.75 67.77 0 75"/><path fill="#605a55" fill-opacity=".04" d="M24 73c.33-.01 1.01.67 1 1 .07-.14.92-1.88 1-2-.51.28-1.6.8-2 1"/><path fill="none" d="M0 78v38c5.11-7.35 9.72-16.47 16-23 .25-.26.89-.74 1-1 1.32-3.17 2.33-6.13 4-9 1.68-2.88 2.63-6.1 4-9 .01-.33-.67-1.01-1-1-7.38 2.6-13.36 9.22-21 11-.26-2.22-1.53-4.51-3-6"/><path fill="#4090c6" fill-opacity=".73" d="M89 78c.81-.8 2.12-2.25 3-3-1.33.91-1.96 1.75-3 3"/><path fill="#3677a3" fill-opacity=".96" d="M17 92c1.51 1.07 2.72 3.72 4 5l10 10c1.4 1.4 3.09 2.13 4 4 .2.4 0 1 0 1 3.73-.55 7.63-3.28 11-5-3.32-3.12-8.47-10.44-12.25-12.75S25.29 82 21 83c-1.67 2.87-2.68 5.83-4 9"/><path fill="#c6c6c6" fill-opacity=".93" d="M55 102c-4.45 6.29-7.15 16.24-11 23 2.11.4 4.66 1.38 6 3h3c7.17-7.71 15-16 22.75-23.25S76.11 95.23 79 87c-7.58 5.15-16.03 10.07-24 15"/><path fill="#8f987f" fill-opacity=".85" d="M16 93c.98 1.39 3.63 3.04 5 4-1.28-1.28-2.49-3.93-4-5-.11.26-.75.74-1 1"/><path fill="#f7c562" fill-opacity=".92" d="M0 116v8c.96 1.62 2.73 2.71 4 4h8c6.84-5.83 16.65-9.24 23-16 0 0 .2-.6 0-1-1.69-1.18-2.86-2.36-4-4-.16-.23-1 0-1 0-2.37 3.63-16.63 16.99-21.22 12.22C4.18 114.45 17.2 100.66 21 98c-.23-.16 0-1 0-1-1.37-.96-4.02-2.61-5-4-6.28 6.53-10.89 15.65-16 23"/><path fill="#907583" d="M21 98c3.31 2.32 6.72 5.74 9 9 0 0 .84-.23 1 0L21 97s-.23.84 0 1"/><path fill="#ec7260" d="M30 107c-2.28-3.26-5.69-6.68-9-9-3.8 2.66-16.82 16.45-12.22 21.22 4.59 4.77 18.85-8.59 21.22-12.22"/><path fill="none" d="M46 107c-3.37 1.72-7.27 4.45-11 5-6.35 6.76-16.16 10.17-23 16h38c-1.34-1.62-3.89-2.6-6-3 3.85-6.76 6.55-16.71 11-23-2.93 1.81-5.91 3.42-9 5"/><path fill="#98a185" d="M35 111c-.91-1.87-2.6-2.6-4-4 1.14 1.64 2.31 2.82 4 4"/><path fill="#020202" fill-opacity=".01" d="M0 128h4c-1.27-1.29-3.04-2.38-4-4z"/></svg>