<svg xmlns="http://www.w3.org/2000/svg" viewBox="0 0 256 256"><path fill="#3a65ab" stroke="#3a65ab" d="m128 173-26 2c-16.61-.03-37.98-4.69-53-11.78-10.54-4.98-20.61-11.05-28.99-19.26-5.13-5.03-9.29-10.64-12.7-16.96-3.95-7.34-6.21-14.63-6.31-23v-6c.29-24.08 23.76-44.56 43-55.57C84.66 19.15 129.75 23.12 169 47c19.74 12.02 38.93 29.23 39 54h-20c-1.54-14.52-19.28-29.16-31-36.39-16.24-10.02-35.67-17.83-55-17.61-13.58.16-29.8 5.52-42 11.32C45.3 65.3 19.83 84.81 21.1 103c.29 4.16 1.82 7.33 3.66 11 7.94 15.78 23.4 26.02 39.24 32.72 11.16 4.72 28.9 8.54 41 8.27 8.45-.2 16.81-2.15 25-3.99zm8-94c6.71 2.35 8.84 14.6 8.99 21 .52 22.74-14.68 40.73-37.99 41-23.37.26-39.57-14.48-40.91-38C64.82 80.73 85.85 58.9 104 64c-3.82 5.73-8.55 10.53-7.8 18 1.09 10.87 13.86 20.98 24.8 17.03 8.92-3.22 13.61-11.07 15-20.03Zm50 34.46c20.11-2.77 39.57 1.46 53.91 16.55 12.94 13.62 15.3 27.08 15.09 44.99-.24 20.49-13.74 39.25-32 47.88-9.94 4.7-18.28 5.24-29 5.12-43.66-.51-67.29-49.15-47.68-86 8.61-16.18 22.23-24.77 39.68-28.54ZM233 181c9.24-22.22-11.16-47.46-34-47.99-10.6-.24-16.25 2.3-25 7.99 4.6 5.85 21.92 16.24 29 20.86 6.82 4.46 23.61 16.69 30 19.14Zm-12 19c-4.61-5.85-14.58-11.39-21-15.67-7.69-5.12-31.23-21.74-38-24.33-2.33 5.03-2.06 6.57-2 12 .23 18.99 17.11 35.55 36 35.99 10.6.24 16.25-2.3 25-7.99Z"/></svg>