<svg xmlns="http://www.w3.org/2000/svg" xml:space="preserve" width="1333.333" height="1333.333" viewBox="0 0 1333.333 1333.333"><defs><clipPath id="a" clipPathUnits="userSpaceOnUse"><path d="M0 1000h1000V0H0Z"/></clipPath></defs><g clip-path="url(#a)" transform="matrix(1.33333 0 0 -1.33333 0 1333.333)"><path d="M0 0c-.909-45.4-26.02-84.86-62.949-106v-.01c-18.28-10.47-39.45-16.45-62.021-16.45h-72.83l-157.11 272.12c13.1-13.63 31.52-22.12 51.92-22.12h176.54C-56.18 127.54 1.41 70.25 0 0" style="fill:#9b0000;fill-opacity:1;fill-rule:nonzero;stroke:none" transform="translate(614.724 622.46)"/><path d="M0 0h-88.92c-8.57 0-16.49 4.57-20.78 12l-137.41 238.01L-319.28 375h72.83c22.57 0 43.74 5.98 62.02 16.45l62.05-107.47L20.79 36C30.03 20 18.479 0 0 0" style="fill:#9b0000;fill-opacity:1;fill-rule:nonzero;stroke:none" transform="translate(736.204 125)"/><path d="M0 0h-105.2c-20.4 0-38.82 8.49-51.92 22.12l-.01.01-8.04 13.94c-13.74 23.81-5.58 54.25 18.22 68l22.04 12.72c23.81 13.75 54.25 5.59 68-18.22z" style="fill:#b71c1c;fill-opacity:1;fill-rule:nonzero;stroke:none" transform="translate(416.934 750)"/><path d="M0 0c.37-92.33-50.73-173.43-125.92-217.029-36.86-21.381-79.52-33.731-124.73-33.971-.45-.01-.91-.01-1.37-.01H-351c-13.25 0-23.99-10.74-23.99-23.99v-201.93c0-13.299-10.79-24.08-24.08-24.08h-76.84c-13.3 0-24.08 10.79-24.08 24.09v278.91c0 39.77 32.23 72 72 72h178c22.57 0 43.74 5.98 62.02 16.45v.01c36.93 21.14 62.04 60.6 62.949 106C-123.61 66.7-181.2 123.99-251.47 123.99h-176.54c-20.4 0-38.82 8.49-51.92 22.12l-.01.01c-12.42 12.94-20.05 30.5-20.05 49.85v28.94c0 13.3 10.78 24.08 24.08 24.08h225.92C-112.26 248.99-.54 137.61 0 0" style="fill:#d50000;fill-opacity:1;fill-rule:nonzero;stroke:none" transform="translate(739.744 626.01)"/></g></svg>