<svg xmlns="http://www.w3.org/2000/svg" viewBox="0 0 96 96" aria-label="Rotten Tomatoes icon">
  <defs>
    <radialGradient id="tomato-shade" cx="50%" cy="40%" r="60%">
      <stop offset="0" stop-color="#f87171"/>
      <stop offset="0.6" stop-color="#ef4444"/>
      <stop offset="1" stop-color="#b91c1c"/>
    </radialGradient>
  </defs>
  <rect x="4" y="4" width="88" height="88" rx="22" fill="#fee2e2" stroke="#7f1d1d" stroke-width="4"/>
  <circle cx="48" cy="54" r="30" fill="url(#tomato-shade)" stroke="#7f1d1d" stroke-width="3"/>
  <path d="M32 26c3.6-4.8 9.3-7.7 15.3-7.7 4.8 0 9.3 2 12.6 5.4 3.6-1.1 6.9-2.4 9.8-4 1.2 3.8.3 7.8-2.3 10.8 3.3.7 6.4 1.7 9.2 3.2-1.7 2.7-4.5 4.6-7.7 5.3-1.8.4-3.7.5-5.5.4-4.3-.3-8.6-1.5-12.5-3.4-5.8 4.5-13.5 6.2-20.7 4.3 1.8-3.8 1.8-8.2.1-12.3z" fill="#15803d" stroke="#166534" stroke-width="2" stroke-linecap="round" stroke-linejoin="round"/>
  <circle cx="36" cy="56" r="3" fill="#fee2e2" opacity="0.85"/>
  <circle cx="46" cy="64" r="2.2" fill="#fee2e2" opacity="0.75"/>
  <circle cx="59" cy="58" r="2.8" fill="#fee2e2" opacity="0.7"/>
  <path d="M32 70c4.1 5.4 10.7 8.8 17.9 8.8 7.2 0 13.8-3.4 17.9-8.8" fill="none" stroke="#991b1b" stroke-width="3.2" stroke-linecap="round"/>
</svg>
