<svg xmlns="http://www.w3.org/2000/svg" xmlns:v="https://svgstorm.com"
viewBox = "0 0 82 100"
width="82"
height="100">
<g fill="None" fill-opacity="0.0" stroke="#000000" stroke-opacity="0.00" stroke-width="0.3"><path d="
M 0.00 89.00 
C 3.23 86.75 8.88 84.84 10.00 81.00
C 10.68 74.07 9.49 66.95 10.00 60.00
C 15.24 61.31 15.58 70.16 20.00 74.00
C 20.22 74.25 21.00 74.00 21.00 74.00
C 22.13 72.39 23.87 71.35 25.00 70.00
C 27.39 66.66 29.69 62.80 31.00 59.00
C 14.70 55.97 -2.97 40.61 11.00 24.00
C 8.27 37.98 21.99 49.84 36.00 50.00
C 36.74 49.68 37.45 47.53 38.00 47.00
C 23.13 47.44 6.83 31.36 20.25 18.25 C 33.67 5.13 51.73 14.38 67.00 15.00
C 67.50 15.02 68.52 15.09 69.00 15.00
C 70.41 14.12 71.18 12.72 73.00 12.00
C 74.22 11.52 75.67 11.28 77.00 11.00
C 77.77 10.71 78.97 10.34 80.00 10.00
C 80.66 9.63 81.23 9.12 82.00 9.00
L 82.00 0.00
L 0.00 0.00
L 0.00 89.00 Z"/>
</g>
<g fill="None" fill-opacity="0.0" stroke="#4FAFE2" stroke-opacity="0.78" stroke-width="0.3"><path d="
M 80.00 10.00 
C 78.88 10.63 78.49 10.68 77.00 11.00
C 75.67 11.28 74.22 11.52 73.00 12.00
C 71.63 12.70 70.94 14.62 69.00 15.00
C 68.52 15.09 67.50 15.02 67.00 15.00
C 68.31 15.65 69.04 17.84 71.00 18.00
C 75.19 18.33 78.09 12.74 82.00 12.00
L 82.00 9.00
C 81.23 9.12 80.66 9.63 80.00 10.00 Z"/>
</g>
<g fill="None" fill-opacity="0.0" stroke="#C8DFF3" stroke-opacity="0.29" stroke-width="0.3"><path d="
M 77.00 11.00 
C 78.49 10.68 78.88 10.63 80.00 10.00
C 78.97 10.34 77.77 10.71 77.00 11.00 Z"/>
</g>
<g fill="None" fill-opacity="0.0" stroke="#6E6E6C" stroke-opacity="0.88" stroke-width="0.3"><path d="
M 38.00 47.00 
C 39.35 45.71 37.90 46.84 39.00 47.00
C 42.63 47.53 44.96 48.67 48.00 50.00
C 54.94 53.03 58.04 53.94 63.92 59.08 C 69.79 64.23 66.36 73.06 69.00 79.00
C 69.08 79.19 70.73 79.25 71.00 79.00
C 86.57 64.80 66.99 45.15 53.00 42.00
C 49.40 41.19 46.11 40.11 43.00 39.00
C 36.41 36.66 17.92 32.93 26.75 23.75 C 35.59 14.58 46.99 19.60 56.00 23.00
C 56.35 23.13 56.73 23.83 57.00 24.00
C 59.14 25.36 60.31 26.17 62.00 28.00
C 65.56 31.85 67.86 38.35 72.00 40.00
C 72.70 32.40 70.96 25.45 71.00 18.00
C 69.04 17.84 68.31 15.65 67.00 15.00
C 51.73 14.38 33.67 5.13 20.25 18.25 C 6.83 31.36 23.13 47.44 38.00 47.00 Z"/>
</g>
<g fill="None" fill-opacity="0.0" stroke="#C9E5E0" stroke-opacity="0.20" stroke-width="0.3"><path d="
M 69.00 15.00 
C 70.94 14.62 71.63 12.70 73.00 12.00
C 71.18 12.72 70.41 14.12 69.00 15.00 Z"/>
</g>
<g fill="None" fill-opacity="0.0" stroke="#000000" stroke-opacity="0.00" stroke-width="0.3"><path d="
M 71.00 18.00 
C 70.96 25.45 72.70 32.40 72.00 40.00
C 67.86 38.35 65.56 31.85 62.00 28.00
C 62.11 31.77 52.14 36.99 53.00 42.00
C 66.99 45.15 86.57 64.80 71.00 79.00
C 70.04 82.92 69.08 79.57 69.00 79.00
C 66.36 73.06 69.79 64.23 63.92 59.08 C 58.04 53.94 54.94 53.03 48.00 50.00
C 48.37 51.54 46.57 52.40 47.00 54.00
C 66.90 54.93 71.61 81.13 53.30 89.30 C 35.00 97.48 16.67 82.61 0.00 92.00
L 0.00 100.00
L 82.00 100.00
L 82.00 12.00
C 78.09 12.74 75.19 18.33 71.00 18.00 Z"/>
</g>
<g fill="None" fill-opacity="0.0" stroke="#000000" stroke-opacity="0.00" stroke-width="0.3"><path d="
M 43.00 39.00 
C 42.58 37.69 46.24 33.97 47.00 33.00
C 47.95 31.79 48.98 31.00 50.00 30.00
C 51.97 28.07 53.83 24.54 56.00 23.00
C 46.99 19.60 35.59 14.58 26.75 23.75 C 17.92 32.93 36.41 36.66 43.00 39.00 Z"/>
</g>
<g fill="None" fill-opacity="0.0" stroke="#D0E3EE" stroke-opacity="0.38" stroke-width="0.3"><path d="
M 50.00 30.00 
C 51.93 28.03 55.46 26.17 57.00 24.00
C 56.73 23.83 56.35 23.13 56.00 23.00
C 53.83 24.54 51.97 28.07 50.00 30.00 Z"/>
</g>
<g fill="None" fill-opacity="0.0" stroke="#1593CF" stroke-opacity="0.89" stroke-width="0.3"><path d="
M 31.00 59.00 
C 34.78 59.70 37.77 60.89 41.00 62.00
C 48.69 64.63 61.05 70.41 53.23 79.23 C 45.41 88.05 33.51 84.51 26.00 80.00
C 23.57 78.54 21.62 76.18 20.00 74.00
C 15.58 70.16 15.24 61.31 10.00 60.00
C 9.49 66.95 10.68 74.07 10.00 81.00
C 9.65 84.61 4.37 87.80 0.00 90.00
L 0.00 92.00
C 16.67 82.61 35.00 97.48 53.30 89.30 C 71.61 81.13 66.90 54.93 47.00 54.00
C 46.57 52.40 48.37 51.54 48.00 50.00
C 44.96 48.67 42.63 47.53 39.00 47.00
C 38.85 49.07 36.23 49.98 36.00 50.00
C 21.99 49.84 8.27 37.98 11.00 24.00
C -2.97 40.61 14.70 55.97 31.00 59.00 Z"/>
</g>
<g fill="None" fill-opacity="0.0" stroke="#46ADE0" stroke-opacity="0.92" stroke-width="0.3"><path d="
M 50.00 30.00 
C 49.08 30.94 47.86 32.11 47.00 33.00
C 46.24 33.97 42.58 37.69 43.00 39.00
C 46.11 40.11 49.40 41.19 53.00 42.00
C 52.14 36.99 62.11 31.77 62.00 28.00
C 60.31 26.17 59.14 25.36 57.00 24.00
C 55.46 26.17 51.93 28.03 50.00 30.00 Z"/>
</g>
<g fill="None" fill-opacity="0.0" stroke="#DEECFC" stroke-opacity="0.11" stroke-width="0.3"><path d="
M 47.00 33.00 
C 47.86 32.11 49.08 30.94 50.00 30.00
C 48.98 31.00 47.95 31.79 47.00 33.00 Z"/>
</g>
<g fill="None" fill-opacity="0.0" stroke="#A8D5EA" stroke-opacity="0.55" stroke-width="0.3"><path d="
M 38.00 47.00 
C 37.45 47.53 36.74 49.68 36.00 50.00
C 36.23 49.98 38.85 49.07 39.00 47.00
C 37.90 46.84 39.35 45.71 38.00 47.00 Z"/>
</g>
<g fill="None" fill-opacity="0.0" stroke="#49AFE2" stroke-opacity="0.90" stroke-width="0.3"><path d="
M 25.00 70.00 
C 23.88 71.57 22.76 73.14 21.00 74.00
C 21.00 74.00 20.22 74.25 20.00 74.00
C 21.62 76.18 23.57 78.54 26.00 80.00
C 25.96 76.50 31.95 73.86 33.25 71.25 C 34.55 68.63 42.00 65.13 41.00 62.00
C 37.77 60.89 34.78 59.70 31.00 59.00
C 29.69 62.80 27.39 66.66 25.00 70.00 Z"/>
</g>
<g fill="None" fill-opacity="0.0" stroke="#000000" stroke-opacity="0.00" stroke-width="0.3"><path d="
M 26.00 80.00 
C 33.51 84.51 45.41 88.05 53.23 79.23 C 61.05 70.41 48.69 64.63 41.00 62.00
C 42.00 65.13 34.55 68.63 33.25 71.25 C 31.95 73.86 25.96 76.50 26.00 80.00 Z"/>
</g>
<g fill="None" fill-opacity="0.0" stroke="#F0F3FE" stroke-opacity="0.13" stroke-width="0.3"><path d="
M 21.00 74.00 
C 22.76 73.14 23.88 71.57 25.00 70.00
C 23.87 71.35 22.13 72.39 21.00 74.00 Z"/>
</g>
<g fill="None" fill-opacity="0.0" stroke="#6E6E6B" stroke-opacity="0.30" stroke-width="0.3"><path d="
M 71.00 79.00 
C 70.73 79.25 69.08 79.19 69.00 79.00
C 69.08 79.57 70.04 82.92 71.00 79.00 Z"/>
</g>
<g fill="None" fill-opacity="0.0" stroke="#BCDDED" stroke-opacity="0.36" stroke-width="0.3"><path d="
M 0.00 89.00 
L 0.00 90.00
C 4.37 87.80 9.65 84.61 10.00 81.00
C 8.88 84.84 3.23 86.75 0.00 89.00 Z"/>
</g>
<g fill="#000000" fill-opacity="0.00" stroke="None">
<path d="
M 0.00 89.00 
C 3.23 86.75 8.88 84.84 10.00 81.00
C 10.68 74.07 9.49 66.95 10.00 60.00
C 15.24 61.31 15.58 70.16 20.00 74.00
C 20.22 74.25 21.00 74.00 21.00 74.00
C 22.13 72.39 23.87 71.35 25.00 70.00
C 27.39 66.66 29.69 62.80 31.00 59.00
C 14.70 55.97 -2.97 40.61 11.00 24.00
C 8.27 37.98 21.99 49.84 36.00 50.00
C 36.74 49.68 37.45 47.53 38.00 47.00
C 23.13 47.44 6.83 31.36 20.25 18.25 C 33.67 5.13 51.73 14.38 67.00 15.00
C 67.50 15.02 68.52 15.09 69.00 15.00
C 70.41 14.12 71.18 12.72 73.00 12.00
C 74.22 11.52 75.67 11.28 77.00 11.00
C 77.77 10.71 78.97 10.34 80.00 10.00
C 80.66 9.63 81.23 9.12 82.00 9.00
L 82.00 0.00
L 0.00 0.00
L 0.00 89.00 Z"/>
</g>
<g fill="#4FAFE2" fill-opacity="0.78" stroke="None">
<path d="
M 80.00 10.00 
C 78.88 10.63 78.49 10.68 77.00 11.00
C 75.67 11.28 74.22 11.52 73.00 12.00
C 71.63 12.70 70.94 14.62 69.00 15.00
C 68.52 15.09 67.50 15.02 67.00 15.00
C 68.31 15.65 69.04 17.84 71.00 18.00
C 75.19 18.33 78.09 12.74 82.00 12.00
L 82.00 9.00
C 81.23 9.12 80.66 9.63 80.00 10.00 Z"/>
</g>
<g fill="#C8DFF3" fill-opacity="0.29" stroke="None">
<path d="
M 77.00 11.00 
C 78.49 10.68 78.88 10.63 80.00 10.00
C 78.97 10.34 77.77 10.71 77.00 11.00 Z"/>
</g>
<g fill="#6E6E6C" fill-opacity="0.88" stroke="None">
<path d="
M 38.00 47.00 
C 39.35 45.71 37.90 46.84 39.00 47.00
C 42.63 47.53 44.96 48.67 48.00 50.00
C 54.94 53.03 58.04 53.94 63.92 59.08 C 69.79 64.23 66.36 73.06 69.00 79.00
C 69.08 79.19 70.73 79.25 71.00 79.00
C 86.57 64.80 66.99 45.15 53.00 42.00
C 49.40 41.19 46.11 40.11 43.00 39.00
C 36.41 36.66 17.92 32.93 26.75 23.75 C 35.59 14.58 46.99 19.60 56.00 23.00
C 56.35 23.13 56.73 23.83 57.00 24.00
C 59.14 25.36 60.31 26.17 62.00 28.00
C 65.56 31.85 67.86 38.35 72.00 40.00
C 72.70 32.40 70.96 25.45 71.00 18.00
C 69.04 17.84 68.31 15.65 67.00 15.00
C 51.73 14.38 33.67 5.13 20.25 18.25 C 6.83 31.36 23.13 47.44 38.00 47.00 Z"/>
</g>
<g fill="#C9E5E0" fill-opacity="0.20" stroke="None">
<path d="
M 69.00 15.00 
C 70.94 14.62 71.63 12.70 73.00 12.00
C 71.18 12.72 70.41 14.12 69.00 15.00 Z"/>
</g>
<g fill="#000000" fill-opacity="0.00" stroke="None">
<path d="
M 71.00 18.00 
C 70.96 25.45 72.70 32.40 72.00 40.00
C 67.86 38.35 65.56 31.85 62.00 28.00
C 62.11 31.77 52.14 36.99 53.00 42.00
C 66.99 45.15 86.57 64.80 71.00 79.00
C 70.04 82.92 69.08 79.57 69.00 79.00
C 66.36 73.06 69.79 64.23 63.92 59.08 C 58.04 53.94 54.94 53.03 48.00 50.00
C 48.37 51.54 46.57 52.40 47.00 54.00
C 66.90 54.93 71.61 81.13 53.30 89.30 C 35.00 97.48 16.67 82.61 0.00 92.00
L 0.00 100.00
L 82.00 100.00
L 82.00 12.00
C 78.09 12.74 75.19 18.33 71.00 18.00 Z"/>
</g>
<g fill="#000000" fill-opacity="0.00" stroke="None">
<path d="
M 43.00 39.00 
C 42.58 37.69 46.24 33.97 47.00 33.00
C 47.95 31.79 48.98 31.00 50.00 30.00
C 51.97 28.07 53.83 24.54 56.00 23.00
C 46.99 19.60 35.59 14.58 26.75 23.75 C 17.92 32.93 36.41 36.66 43.00 39.00 Z"/>
</g>
<g fill="#D0E3EE" fill-opacity="0.38" stroke="None">
<path d="
M 50.00 30.00 
C 51.93 28.03 55.46 26.17 57.00 24.00
C 56.73 23.83 56.35 23.13 56.00 23.00
C 53.83 24.54 51.97 28.07 50.00 30.00 Z"/>
</g>
<g fill="#1593CF" fill-opacity="0.89" stroke="None">
<path d="
M 31.00 59.00 
C 34.78 59.70 37.77 60.89 41.00 62.00
C 48.69 64.63 61.05 70.41 53.23 79.23 C 45.41 88.05 33.51 84.51 26.00 80.00
C 23.57 78.54 21.62 76.18 20.00 74.00
C 15.58 70.16 15.24 61.31 10.00 60.00
C 9.49 66.95 10.68 74.07 10.00 81.00
C 9.65 84.61 4.37 87.80 0.00 90.00
L 0.00 92.00
C 16.67 82.61 35.00 97.48 53.30 89.30 C 71.61 81.13 66.90 54.93 47.00 54.00
C 46.57 52.40 48.37 51.54 48.00 50.00
C 44.96 48.67 42.63 47.53 39.00 47.00
C 38.85 49.07 36.23 49.98 36.00 50.00
C 21.99 49.84 8.27 37.98 11.00 24.00
C -2.97 40.61 14.70 55.97 31.00 59.00 Z"/>
</g>
<g fill="#46ADE0" fill-opacity="0.92" stroke="None">
<path d="
M 50.00 30.00 
C 49.08 30.94 47.86 32.11 47.00 33.00
C 46.24 33.97 42.58 37.69 43.00 39.00
C 46.11 40.11 49.40 41.19 53.00 42.00
C 52.14 36.99 62.11 31.77 62.00 28.00
C 60.31 26.17 59.14 25.36 57.00 24.00
C 55.46 26.17 51.93 28.03 50.00 30.00 Z"/>
</g>
<g fill="#DEECFC" fill-opacity="0.11" stroke="None">
<path d="
M 47.00 33.00 
C 47.86 32.11 49.08 30.94 50.00 30.00
C 48.98 31.00 47.95 31.79 47.00 33.00 Z"/>
</g>
<g fill="#A8D5EA" fill-opacity="0.55" stroke="None">
<path d="
M 38.00 47.00 
C 37.45 47.53 36.74 49.68 36.00 50.00
C 36.23 49.98 38.85 49.07 39.00 47.00
C 37.90 46.84 39.35 45.71 38.00 47.00 Z"/>
</g>
<g fill="#49AFE2" fill-opacity="0.90" stroke="None">
<path d="
M 25.00 70.00 
C 23.88 71.57 22.76 73.14 21.00 74.00
C 21.00 74.00 20.22 74.25 20.00 74.00
C 21.62 76.18 23.57 78.54 26.00 80.00
C 25.96 76.50 31.95 73.86 33.25 71.25 C 34.55 68.63 42.00 65.13 41.00 62.00
C 37.77 60.89 34.78 59.70 31.00 59.00
C 29.69 62.80 27.39 66.66 25.00 70.00 Z"/>
</g>
<g fill="#000000" fill-opacity="0.00" stroke="None">
<path d="
M 26.00 80.00 
C 33.51 84.51 45.41 88.05 53.23 79.23 C 61.05 70.41 48.69 64.63 41.00 62.00
C 42.00 65.13 34.55 68.63 33.25 71.25 C 31.95 73.86 25.96 76.50 26.00 80.00 Z"/>
</g>
<g fill="#F0F3FE" fill-opacity="0.13" stroke="None">
<path d="
M 21.00 74.00 
C 22.76 73.14 23.88 71.57 25.00 70.00
C 23.87 71.35 22.13 72.39 21.00 74.00 Z"/>
</g>
<g fill="#6E6E6B" fill-opacity="0.30" stroke="None">
<path d="
M 71.00 79.00 
C 70.73 79.25 69.08 79.19 69.00 79.00
C 69.08 79.57 70.04 82.92 71.00 79.00 Z"/>
</g>
<g fill="#BCDDED" fill-opacity="0.36" stroke="None">
<path d="
M 0.00 89.00 
L 0.00 90.00
C 4.37 87.80 9.65 84.61 10.00 81.00
C 8.88 84.84 3.23 86.75 0.00 89.00 Z"/>
</g>
</svg>