<svg xmlns="http://www.w3.org/2000/svg" xml:space="preserve" width="15" height="13" viewBox="0 0 15 13"><title>Speedtest.net logo</title><path d="M7.442.41C3.57.41.557 3.543.557 7.354c0 1.599.554 3.197 1.599 4.426l.43.492.799-.799-.307-.43c-.86-1.046-1.291-2.337-1.291-3.69a5.77 5.77 0 0 1 5.778-5.778 5.77 5.77 0 0 1 5.779 5.779c0 1.352-.492 2.643-1.292 3.688l-.306.431.799.799.43-.492c.86-1.29 1.413-2.827 1.413-4.426A6.94 6.94 0 0 0 7.442.409m2.52 3.872L6.09 7.355l1.352 1.352 3.074-3.872Z" style="fill:#000;fill-opacity:1;fill-rule:evenodd;stroke:none;stroke-width:.054881"/></svg>