<svg xmlns="http://www.w3.org/2000/svg" width="16" height="16" fill="none" viewBox="0 0 16 16"><g clip-path="url(#a)"><rect width="16" height="16" fill="#fff" rx="8"/><g clip-path="url(#b)"><path fill="#000" fill-rule="evenodd" d="m7.02 11.46 1.9 1.9-.54 1.63-2.13-.02h-.06l-2.92-1.46 1.36-2.05zm5.32.92 1.01.6-.12.23a.1.1 0 0 1-.02.024l-.04.036-3.43 1.71c-.02.01-.06.01-.06.01h-.51l.4-1.21v.01zM6.53 1l3.31.06 3.32 1.7.05.05 1.73 3.41c.013.013.018.036.02.049v.221l-1.39-.17-.84-2.56.05-.38-3.19-1.62H7.22L8.83 3.5 7.1 5.25l-2.94.5-.78-2.47-.14.07-1.51 3.02v2.89h.8l1.49 1.76-1.36 2.05-1.65-3.31A.1.1 0 0 1 1 9.711V6.19c0-.003.044-.093.117-.24l.101-.205.06-.12.283-.566.078-.156.162-.323.163-.325.236-.47.144-.286.126-.252.122-.242.045-.09.063-.125.05-.03h.01c.01 0 .02-.02.02-.02L6.2 1.01A.1.1 0 0 1 6.249 1zm6.97 6.07 1.47.18v2.47c0 .02-.01.06-.01.06L13.7 12.3l-1.18-.7-.39-2.302zM7.08 6.02l1.28 2.44-1.14 2.25H4.74L3.19 8.89l.93-2.37zm2.43-2.14 2.66.55.72 2.18-1.26 2.05-2.55-.42-1.34-2.57z" clip-rule="evenodd"/></g></g><defs><clipPath id="a"><rect width="16" height="16" fill="#fff" rx="8"/></clipPath><clipPath id="b"><path fill="#fff" d="M0 0h16v16H0z"/></clipPath></defs></svg>