<svg xmlns="http://www.w3.org/2000/svg" xml:space="preserve" width="32" height="32" viewBox="0 0 8.467 8.467"><path d="M2.129 0a.487.487 0 0 0-.487.486.487.487 0 0 0 .487.487.5.5 0 0 0 .2-.043l1.125 1.125a1 1 0 0 0-.192.32H1.39C.62 2.375 0 2.988 0 3.748V5.96c0 .76.62 1.372 1.39 1.372h5.687c.77 0 1.39-.612 1.39-1.372V3.748c0-.76-.62-1.373-1.39-1.373h-1.87a1 1 0 0 0-.192-.322L6.138.93a.5.5 0 0 0 .2.043.487.487 0 0 0 .487-.487A.487.487 0 0 0 6.338 0a.487.487 0 0 0-.486.486.5.5 0 0 0 .044.203L4.749 1.836a1.04 1.04 0 0 0-.515-.138 1.04 1.04 0 0 0-.516.138L2.57.69a.5.5 0 0 0 .044-.203A.487.487 0 0 0 2.129 0" style="fill:#79c447;fill-opacity:1"/><path d="M518.186 521.23v3.672h4.987v15.147h4.584v-15.147h4.975l-1.303-3.673zm33.497 0-6.675 18.819h-5.737l-6.676-18.82h4.88l4.664 14.209 4.692-14.209z" style="fill:#06080c;fill-opacity:1" transform="translate(-81.831 -80.426)scale(.16089)"/></svg>