<svg fill="#e95420" width="800px" height="800px" viewBox="0 0 24 24" xmlns="http://www.w3.org/2000/svg"><path d="M12 2C6.477 2 2 6.477 2 12s4.477 10 10 10 10-4.477 10-10S17.523 2 12 2zm0 1.942c2.375 0 4.475.776 6.158 2.042l-2.133 3.691A4.083 4.083 0 0 0 12 8.042a4.083 4.083 0 0 0-4.025 1.633L4.025 6.05A7.912 7.912 0 0 1 12 3.942zM3.942 12a7.912 7.912 0 0 1 2.108-5.142l3.691 2.133A4.083 4.083 0 0 0 8.042 12c0 1.65.983 3.058 2.367 3.692l-2.133 3.691A7.912 7.912 0 0 1 3.942 12zm8.083 8.058a7.912 7.912 0 0 1-5.142-2.108l2.133-3.691A4.083 4.083 0 0 0 12 15.958a4.083 4.083 0 0 0 3.692-2.367l3.691 2.133A7.912 7.912 0 0 1 12.025 20.058zm8.033-8.058a7.912 7.912 0 0 1-2.108 5.142l-3.691-2.133A4.083 4.083 0 0 0 15.958 12a4.083 4.083 0 0 0-1.633-3.692L17.975 4.6A7.912 7.912 0 0 1 20.058 12z"/></svg>