<svg xmlns="http://www.w3.org/2000/svg" viewBox="0 0 202 68"><g fill="#76b83f"><path d="M38.7 66a32.3 32.3 0 0 0 25.7-20.9l-1.2.4c-5.3 1.6-9-1.2-9.8-1.7-.8-.5-1.6-1.3-1.8-1.3-.4 3-3.2 7.3-9.6 9.2-3.4 1-7.2 1-9.8-.4l.9 2.2A177.8 177.8 0 0 0 38.7 66"/><path d="m9.3 21 9.5-1.8c.8-.1 1.8.4 2.1 1.1l6.5 16.3 1.7 2.8s4.5 6.4 11.3 4.9c4.7-1.1 6.8-4.6 7-7a5 5 0 0 0-.5-2.8L39 17c-.3-.7 0-1.4.8-1.6l7.9-1.4c.7-.2 1.6.3 1.9 1l8.6 18.5L60 36s1.8 2.5 4.7 2c.7 0 1.5-.3 1.5-.3l.2-3.5a32.2 32.2 0 1 0-42.2 30.5c-.9-1.8-1.7-3.7-2.4-5.7L8.2 22.8c-.3-.8.2-1.6 1.1-1.8M89.6 51v-2.6a7.2 7.2 0 0 1-2.5 2.3 6 6 0 0 1-1.2.5c-.4.2-.7.2-1 .2-.7 0-1.3 0-1.7-.2l-1-.6v6.8h-5V32.5h5V43c0 1.5.2 2.7.7 3.4.5.8 1.3 1.2 2.5 1.2 1.4 0 2.4-.5 3-1.3.6-.8 1-2.2 1-4v-9.7h5V51h-4.8Z"/></g><path fill="#5f89ff" d="M108.3 22.5V51H100V22.5h8.3ZM132.8 51h-7.6V35.7c0-1.6-.4-2.4-1.3-2.4s-1.7.6-2.3 1.9c-.7 1.2-1 2.7-1 4.4v11.6H113V29.9c2.6 0 5.1-.2 7.6-.5v4c1.9-2.7 4.2-4 7-4 3.5 0 5.3 1.8 5.3 5.4v16.3ZM156 22v29h-7.6v-1.8a6.4 6.4 0 0 1-5.1 2.3c-4.8 0-7.1-3.6-7.1-10.9s2.5-11.2 7.5-11.2c2 0 3.6.8 4.7 2.6v-9.5c2.3 0 4.9-.2 7.7-.5Zm-9.8 10.5c-1.3 0-2 1.1-2 3.5l-.1 4.5v4c0 2.7.8 4 2.2 4s2.2-1.3 2.2-3.9v-5.1l-.1-3.6c-.2-2.3-1-3.5-2.2-3.5Zm29.2 10.8 3 1c-.3 4.8-3.2 7.3-8.6 7.3-7 0-10.5-3.6-10.5-10.6 0-3.4.9-6.2 2.8-8.4a9 9 0 0 1 7.2-3.2c6 0 9.1 4 9.1 11.8h-11.1c0 5.5 1.4 8.3 4.2 8.3 2.6 0 4-1.6 4-4.7l-.1-1.5Zm-8.2-4.5h4.6c0-4.9-.8-7.3-2.2-7.3-1.4 0-2.1 1.8-2.3 5.4v2ZM199 30l-6.1 8.4 7.1 12.7h-8.8l-4-7-5 7h-3l6.8-9.2-6.7-12h8.8l3.5 6.2L196 30h3Z"/></svg>