<svg xmlns="http://www.w3.org/2000/svg" xmlns:xlink="http://www.w3.org/1999/xlink" width="256" height="256" viewBox="0 0 67.733 67.733"><defs><linearGradient id="a"><stop offset="0" stop-color="#fff" stop-opacity="0"/><stop offset=".25" stop-color="#fff"/><stop offset=".5" stop-color="#fff" stop-opacity=".498"/><stop offset=".75" stop-color="#fff"/><stop offset="1" stop-color="#fff" stop-opacity="0"/></linearGradient><linearGradient id="c"><stop offset="0" stop-color="#fff" stop-opacity="0"/><stop offset=".5" stop-color="#fff"/><stop offset="1" stop-color="#fff" stop-opacity="0"/></linearGradient><linearGradient id="b"><stop offset="0" stop-color="#999"/><stop offset=".134" stop-color="#fff"/><stop offset=".269" stop-color="#b3b3b3"/><stop offset=".317" stop-color="#999"/><stop offset=".567" stop-color="#fff"/><stop offset=".784" stop-color="#b3b3b3"/><stop offset=".801" stop-color="#fff"/><stop offset=".892" stop-color="#d8d8d8"/><stop offset="1" stop-color="gray"/></linearGradient><linearGradient xlink:href="#a" id="h" x1="314.59" x2="379.59" y1="287.98" y2="286.61" gradientTransform="translate(0 308)" gradientUnits="userSpaceOnUse"/><linearGradient xlink:href="#b" id="i" x1="199.69" x2="457.78" y1="267.04" y2="267.04" gradientTransform="matrix(.9961 0 0 1 .781 307.99)" gradientUnits="userSpaceOnUse"/><linearGradient id="d" x1="225.91" x2="516.17" y1="252.35" y2="252.35" gradientUnits="userSpaceOnUse"><stop offset="0" stop-color="#666"/><stop offset=".25" stop-color="gray"/><stop offset=".5" stop-color="#b3b3b3"/><stop offset=".75" stop-color="#ccc"/><stop offset="1" stop-color="gray"/></linearGradient><linearGradient xlink:href="#c" id="k" x1="203.3" x2="454.62" y1="255.07" y2="252.54" gradientTransform="translate(0 308)" gradientUnits="userSpaceOnUse"/><linearGradient id="l" x1="472.44" x2="719.45" y1="385.67" y2="383.28" gradientTransform="translate(-268.7 34.686)" gradientUnits="userSpaceOnUse"><stop offset="0" stop-color="#999"/><stop offset=".313" stop-color="#666"/><stop offset=".444" stop-color="#999"/><stop offset=".575" stop-color="#ccc"/><stop offset=".8" stop-color="gray"/><stop offset=".9" stop-color="#ccc"/><stop offset="1" stop-color="#666"/></linearGradient><linearGradient xlink:href="#a" id="m" x1="314.59" x2="379.59" y1="287.98" y2="286.61" gradientUnits="userSpaceOnUse"/><linearGradient xlink:href="#b" id="n" x1="199.69" x2="457.78" y1="267.04" y2="267.04" gradientTransform="matrix(.9961 0 0 1 .781 -.006)" gradientUnits="userSpaceOnUse"/><linearGradient xlink:href="#c" id="o" x1="203.3" x2="454.62" y1="255.07" y2="252.54" gradientUnits="userSpaceOnUse"/><linearGradient id="p" x1="203.3" x2="454.62" y1="255.07" y2="252.54" gradientTransform="translate(0 306)" gradientUnits="userSpaceOnUse"><stop offset="0" stop-color="#b3b3b3"/><stop offset=".28" stop-color="#666" stop-opacity=".502"/><stop offset=".5" stop-color="gray"/><stop offset=".75" stop-color="#666"/><stop offset="1" stop-color="gray"/></linearGradient><linearGradient id="q" x1="164.21" x2="267.76" y1="404.95" y2="406.14" gradientUnits="userSpaceOnUse"><stop offset="0" stop-color="#fff"/><stop offset="1" stop-color="#fff" stop-opacity="0"/></linearGradient><linearGradient id="r" x1="314.06" x2="370.17" y1="286.36" y2="286.7" gradientUnits="userSpaceOnUse"><stop offset="0" stop-color="#fff" stop-opacity="0"/><stop offset=".262" stop-color="#fff" stop-opacity=".802"/><stop offset=".738" stop-color="#fff"/><stop offset="1" stop-color="#fff" stop-opacity="0"/></linearGradient><linearGradient xlink:href="#d" id="j" x1="225.91" x2="516.17" y1="252.35" y2="252.35" gradientUnits="userSpaceOnUse"/><linearGradient id="t" x2="0" y1="8.707" y2="120.54" gradientUnits="userSpaceOnUse"><stop offset="0" stop-color="#f0ff80"/><stop offset="1" stop-color="#8bb300"/></linearGradient><radialGradient id="f" cx="365.68" cy="283.35" r="145.23" gradientTransform="matrix(1.0575 0 0 .14946 -21.023 215.38)" gradientUnits="userSpaceOnUse"><stop offset="0" stop-color="#4d4d4d"/><stop offset=".5" stop-color="#999"/><stop offset="1" stop-color="#b3b3b3" stop-opacity=".018"/></radialGradient><radialGradient id="s" cx="63.894" cy="117.35" r="53.91" gradientTransform="matrix(1 0 0 .08642 0 107.21)" gradientUnits="userSpaceOnUse"><stop offset="0"/><stop offset="1" stop-opacity="0"/></radialGradient><radialGradient id="u" cx="64.7" cy="-15.174" r="55.27" gradientTransform="matrix(1.5331 0 0 1.124 -33.828 2.99)" gradientUnits="userSpaceOnUse"><stop offset="0" stop-color="#eee"/><stop offset="1" stop-color="#eee" stop-opacity="0"/></radialGradient><filter id="g" color-interpolation-filters="sRGB"><feGaussianBlur stdDeviation="1.54"/></filter></defs><path fill="url(#f)" fill-rule="evenodd" d="M516.18 253.22c0 11.987-65.02 21.705-145.23 21.705-80.206 0-145.23-9.718-145.23-21.705s65.02-21.705 145.23-21.705c80.206 0 145.23 9.718 145.23 21.705" filter="url(#g)" transform="matrix(.18647 0 0 .2645 -40.906 -6.133)"/><path fill="url(#h)" d="m307.87 583.19 77.133-2.023-16.187 31.502-43.345 1.264z" transform="matrix(.17417 0 0 .17183 -30.015 -38.77)"/><g fill-rule="evenodd"><path fill="url(#i)" stroke="#ccc" stroke-width=".998" d="M328.19 534.12c-70.417 0-127.5 10.745-127.5 24.001 0 .227-.002.462.031.688h-.031v32h.031c1.91 12.942 58.26 23.314 127.47 23.314s125.53-10.372 127.44-23.313h.062v-32.001h-.062c.033-.226.062-.461.062-.688 0-13.255-57.084-24.001-127.5-24.001z" transform="matrix(.17417 0 0 .17183 -30.015 -38.77)"/><path fill="url(#j)" d="M516.18 253.22c0 11.987-65.02 21.705-145.23 21.705-80.206 0-145.23-9.718-145.23-21.705s65.02-21.705 145.23-21.705c80.206 0 145.23 9.718 145.23 21.705" transform="matrix(.14751 0 0 .16625 -27.576 15.21)"/><path fill="url(#k)" d="M205.67 558.5c-1.333 1.23-2.031 2.487-2.031 3.781 0 11.598 55.964 21 125 21s125-9.402 125-21c0-1.288-.709-2.557-2.031-3.781.013.13.03.276.03.406 0 11.598-55.068 21-123 21s-123-9.402-123-21c0-.13.018-.276.032-.406" transform="matrix(.17417 0 0 .17183 -30.015 -38.77)"/></g><path fill="url(#l)" d="M205.19 270.39h246l.483 288.11c.033 19.825-92.558 23.184-129.71 22.768-53.231-.595-116.26-6.854-116.29-22.768z" opacity=".333" transform="matrix(.17417 0 0 .17183 -30.015 -38.77)"/><path fill="url(#m)" d="m307.87 275.19 77.133-2.023-16.187 31.502-43.345 1.264z" transform="matrix(.17417 0 0 .17183 -30.015 -38.77)"/><g fill-rule="evenodd"><path fill="url(#n)" stroke="#ccc" stroke-width=".998" d="M328.19 226.12c-70.417 0-127.5 10.745-127.5 24.001 0 .227-.002.462.031.688h-.031v32h.031c1.91 12.942 58.26 23.314 127.47 23.314s125.53-10.372 127.44-23.313h.062v-32.001h-.062c.033-.226.062-.461.062-.688 0-13.255-57.084-24.001-127.5-24.001z" transform="matrix(.17417 0 0 .17183 -30.015 -38.77)"/><path fill="url(#j)" d="M516.18 253.22c0 11.987-65.02 21.705-145.23 21.705-80.206 0-145.23-9.718-145.23-21.705s65.02-21.705 145.23-21.705c80.206 0 145.23 9.718 145.23 21.705" transform="matrix(.14751 0 0 .16625 -27.576 -37.714)"/><path fill="url(#o)" d="M205.67 250.5c-1.333 1.23-2.031 2.487-2.031 3.781 0 11.598 55.964 21 125 21s125-9.402 125-21c0-1.288-.709-2.557-2.031-3.781.013.13.03.276.03.406 0 11.598-55.068 21-123 21s-123-9.402-123-21c0-.13.018-.276.032-.406" transform="matrix(.17417 0 0 .17183 -30.015 -38.77)"/></g><path fill="url(#p)" fill-rule="evenodd" d="M205.67 556.5c-1.333 1.23-2.031 2.487-2.031 3.781 0 11.598 55.964 21 125 21s125-9.402 125-21c0-1.288-.709-2.557-2.031-3.781.013.13.03.276.03.406 0 11.598-55.068 21-123 21s-123-9.402-123-21c0-.13.018-.276.032-.406" transform="matrix(.17417 0 0 .17183 -30.015 -38.77)"/><path fill="url(#q)" d="m208 295.36-2.485 266.38c4.114 8.116 15.963 9.696 38.485 14.218l2-272.59z" transform="matrix(.17417 0 0 .17183 -30.015 -38.77)"/><path fill="url(#r)" d="M314.84 275.19c20.649.736 34.124.782 55.325-1.104l-14.762 30.767c-9.934.644-17.66 1.012-26.49.69z" transform="matrix(.17417 0 0 .17183 -30.015 -38.77)"/><path fill="gray" d="m18.714 8.248 1.18.07-.075 5.197-1.057-.084zm.1 52.932.739.044-.266 5.182-.36-.019z"/><path fill="url(#s)" d="M117.8 117.35a53.91 4.659 0 1 1-107.82 0 53.91 4.659 0 1 1 107.82 0" opacity=".443" transform="translate(32.925 32.945)scale(.28509)"/><path fill="url(#t)" d="M122.09 64.626a56.734 55.919 0 1 1-113.47 0 56.734 55.919 0 1 1 113.47 0" transform="matrix(.28848 0 0 .2927 31.945 30.705)"/><path fill="none" stroke="#638000" stroke-width="3.924" d="M122.09 64.626a56.734 55.919 0 1 1-113.47 0 56.734 55.919 0 1 1 113.47 0z" transform="matrix(.28848 0 0 .2927 31.945 30.705)"/><path fill="none" stroke="url(#u)" stroke-width="2.079" d="M65.344 11.219c-29.98 0-54.219 23.916-54.219 53.406s24.239 53.406 54.219 53.406 54.25-23.917 54.25-53.406-24.27-53.406-54.25-53.406z" transform="matrix(.28848 0 0 .2927 31.945 30.705)"/><path fill="#555" fill-rule="evenodd" d="M44.978 39.028a.31.31 0 0 0-.28.307v8.309l-4.838.005a.31.31 0 0 0-.24.507l11.04 13.261c.06.071.146.11.24.108a.31.31 0 0 0 .238-.114l10.845-13.26a.31.31 0 0 0 .034-.325.31.31 0 0 0-.273-.177l-4.838-.005.005-8.309a.3.3 0 0 0-.09-.216.32.32 0 0 0-.223-.091z"/></svg>