<svg xmlns="http://www.w3.org/2000/svg" xml:space="preserve" id="Layer_1" x="0" y="0" viewBox="0 0 2000 2000"><style>.st1{fill:#fff}</style><path d="M1954.5 646.3c-51.6-306.5-221.3-513.7-533.1-583.1-275.6-61.3-554.1-61.4-829.9-1.9-289.9 62.5-468.5 242.4-531 532.3-57.4 265.6-57.4 533-3.2 799 58.8 288.7 229.4 476.8 520.7 542.6 283.8 64.1 570 64.1 853.3-1.7 225.4-52.3 391.1-181.7 475.3-404.6 61-161.6 67.6-330 76.5-558.7 0-72.3-7.4-197.8-28.6-323.9" style="fill:#171719"/><path d="M1689.6 999.7s0 37.8-1.7 90.1c-1.4 41.4-3.9 92-8.3 140.1-4.2 45-10.1 87.9-18.4 119.1-15.6 59-61.8 105.3-120.3 121.2-49 13.3-166.3 20.3-278.3 24.2-130.4 4.5-253.5 4.5-253.5 4.5h-13.3c-72.7-.3-423.6-3-518.5-28.6-58.5-15.7-104.7-62.2-120.3-121.2-28.5-106.8-28.5-349.3-28.5-349.3s0-240.7 28.5-347.5c15.6-59 61.8-105.3 120.3-121.2 82.7-22.3 359.5-27.2 477.7-28.4 33.4-.3 54.2-.3 54.2-.3s88.9 0 195.6 2.8c15 .4 30.4.9 45.9 1.3 1.6 0 3.2.1 4.7.1 10.3.3 20.7.7 31 1.1 21.7.9 43.5 1.8 64.5 2.9 54.4 2.9 105.3 6.7 143.7 11.9.7.1 1.5.2 2.1.3 1.7.2 3.3.4 5 .7 7.2 1.1 13.8 2.1 19.9 3.2 7.2 1.3 13.6 2.8 19.2 4.3 58.5 15.7 104.7 62.2 120.3 121.2 10.9 41.2 17.7 102.2 21.8 161.7 3.6 52.7 5.4 104 6 139.4.7 28.4.7 46.4.7 46.4" class="st1"/><linearGradient id="SVGID_1_" x1="854.702" x2="1086.985" y1="-723.204" y2="-955.487" gradientTransform="translate(0 1840)" gradientUnits="userSpaceOnUse"><stop offset="0" style="stop-color:#2e73ff"/><stop offset="1" style="stop-color:#ff0032"/></linearGradient><path d="M1165.9 965.4 944.3 837.5c-27.1-15.6-61 4-61 35.2v255.8c0 31.4 33.9 50.8 61 35.2l221.5-127.9c27.2-15.6 27.2-54.7.1-70.4" style="fill:url(#SVGID_1_)"/><path d="M1123.7 978.2c-1 0-1.9-.2-2.9-.7l-45-26c-2.8-1.6-3.7-5.1-2.1-7.9s5.1-3.7 7.9-2.1l45 26c2.8 1.6 3.7 5.1 2.1 7.9-1 1.7-2.9 2.8-5 2.8" class="st1"/><circle cx="1141.1" cy="981.1" r="6.2" class="st1"/><linearGradient id="SVGID_2_" x1="1564.907" x2="1449.918" y1="-1080.297" y2="-1279.463" gradientTransform="translate(0 1840)" gradientUnits="userSpaceOnUse"><stop offset="0" style="stop-color:#953a9a"/><stop offset="1" style="stop-color:#ff0032"/></linearGradient><path d="M1587 745c-6 0-11.3-4.2-12.7-10.2-1-4.2-1.9-8-2.9-11.8-10.8-40.7-38.2-75.5-75.1-95.6-10.4-5.6-21.3-10-32.6-13.1-5.9-1.5-12.2-2.9-17.9-4-4.8-.9-16.1-2.9-27.6-4.5-7.2-1-12.2-7.6-11.1-14.8 1-7.2 7.6-12.2 14.8-11.1 14.9 2 27.4 4.4 28.8 4.7h.1c6.1 1.2 13 2.7 19.3 4.3.1 0 .2 0 .2.1 13.4 3.6 26.2 8.8 38.4 15.4 43.2 23.4 75.3 64.2 88 111.8 1.1 4 2.1 8.2 3.1 12.6 1.6 7.1-2.8 14-9.8 15.6q-1.5.6-3 .6" style="fill:url(#SVGID_2_)"/><circle cx="1596" cy="774.7" r="13.6" style="fill:#953a9a"/><linearGradient id="SVGID_3_" x1="2010.833" x2="2010.833" y1="2523.972" y2="2689.045" gradientTransform="matrix(-1 0 0 -1 2514.123 3945.27)" gradientUnits="userSpaceOnUse"><stop offset="0" style="stop-color:#953a9a"/><stop offset="1" style="stop-color:#ff0032"/></linearGradient><path d="M419.7 1256.2c6 0 11.3 4.2 12.7 10.2 1 4.2 1.9 8 2.9 11.8 10.8 40.7 38.2 75.5 75.1 95.6 10.4 5.6 21.3 10 32.6 13.1 5.9 1.5 12.2 2.9 17.9 4 4.8.9 16.1 2.9 27.6 4.5 7.2 1 12.2 7.6 11.1 14.8-1 7.2-7.6 12.2-14.8 11.1-14.9-2-27.4-4.4-28.8-4.7-6.1-1.2-13-2.7-19.3-4.3-.1 0-.2 0-.2-.1-13.4-3.6-26.2-8.8-38.4-15.4-43.2-23.4-75.3-64.2-88-111.8-1.1-4-2.1-8.2-3.1-12.6-1.6-7.1 2.8-14 9.8-15.6 1-.5 1.9-.6 2.9-.6" style="fill:url(#SVGID_3_)"/><circle cx="410.6" cy="1226.5" r="13.6" style="fill:#ff0032"/><linearGradient id="SVGID_4_" x1="755.235" x2="1543.644" y1="-424.582" y2="-1212.991" gradientTransform="translate(0 1840)" gradientUnits="userSpaceOnUse"><stop offset="0" style="stop-color:#2e73ff"/><stop offset="1" style="stop-color:#ff0032"/></linearGradient><path d="M954.8 502.7c-13-20.9-14.2-48.1-1.1-70.7l1.5-2.5c19.1-32.8 61-43.8 93.8-24.7l155.6 100.4c-106.7-2.8-195.6-2.8-195.6-2.8s-20.8 0-54.2.3M1802.6 891l-119.7-77.2c3.6 52.7 5.4 104 6 139.4l10.2 6.1c46.9 28.3 46.7 96.3-.5 124.2l-10.8 6.4-692 408.8-21.1 12.5c-32.9 18.8-44.3 60.7-25.5 93.5l1.5 2.6c18.7 32.9 60.7 44.3 93.5 25.5l218.3-138.4 417.1-264.4 122-77.4c95.6-60.7 96.2-200.1 1-261.6" style="fill:url(#SVGID_4_)"/></svg>