<svg xmlns="http://www.w3.org/2000/svg" width="306.723" height="328.827" viewBox="0 0 306.723 328.827"><path fill="#327080" d="M0 76.133 153.511.001l153.212 76.132v177.394l-153.367 75.3L0 253.527Z"/><path fill="none" stroke="#fff" stroke-linecap="round" stroke-linejoin="round" stroke-width="6" d="M153.457 165.224v140.962m124.04-213.057-124.04 72.095m124.04 71.019-124.04 69.943M277.496 93.129v143.114m.001-143.114-124.04-69.943M30.496 93.129l122.961-69.943M30.496 93.129l122.961 72.095M30.496 236.243V93.129m122.961 213.057L30.496 236.243m0 0 57.166-33.357m0-76.399v76.399m0 0 65.795 37.662m0 0 66.874-37.662m-.001-76.399v76.399M153.457 86.673l66.874 39.814m-66.874-39.814-65.795 39.814m65.795-103.301v63.487m66.873 116.213 57.166 33.357" opacity=".1"/></svg>