<svg xmlns="http://www.w3.org/2000/svg" width="816" height="815.436" viewBox="0 0 816 815.436"><defs><linearGradient id="a" x1=".5" x2=".5" y2="1" gradientUnits="objectBoundingBox"><stop offset="0" stop-color="#e334ac"/><stop offset=".97" stop-color="#8521d2"/><stop offset="1" stop-color="#6f2b36"/></linearGradient><linearGradient id="b" x1=".5" x2=".5" y2="1" gradientUnits="objectBoundingBox"><stop offset="0" stop-color="#6d1cdd"/><stop offset="1" stop-color="#fc3aa2"/></linearGradient></defs><g data-name="Group 1"><path fill="url(#a)" d="M108.768 5 5 143.338v513.916h437.77v-2.722l155.073 150.9 175.977-171.17.463-.463c40.493-43.1 41.418-110.969 0-152.467a107.385 107.385 0 0 0-117.028-23.51V143.338L553.487 5Zm29.648 59.3h163.063v59.3H93.944Zm222.359 0h163.064l44.472 59.3H360.775ZM64.3 182.888h533.658v320.973l-24.088-22.468a107.714 107.714 0 0 0-152.409-.174v.058c-31.18 31.211-38.359 77.365-22.757 116.681H64.3Zm177.888 59.3a29.649 29.649 0 1 0 0 59.3h177.888a29.649 29.649 0 1 0 0-59.3Zm255.419 266.827a47.37 47.37 0 0 1 34.338 14.3l.347.347 66.013 61.67 58.543-55.416h.405v-.405l6.37-6.022.289-.289a48.3 48.3 0 0 1 68.387 0h.058c18.582 18.6 18.9 48.383-1.216 69.893l-133.3 129.594-133.182-129.535v-.058c-20.191-21.51-19.881-51.267-1.274-69.893a47.35 47.35 0 0 1 34.222-14.186" transform="translate(11 10)"/><path fill="url(#b)" d="M108.768 5 5 143.338v513.916h437.77v-2.722l155.073 150.9 175.977-171.17.463-.463c40.493-43.1 41.418-110.969 0-152.467a107.385 107.385 0 0 0-117.028-23.51V143.338L553.487 5Zm29.648 59.3h163.063v59.3H93.944Zm222.359 0h163.064l44.472 59.3H360.775ZM64.3 182.888h533.658v320.973l-24.088-22.468a107.714 107.714 0 0 0-152.409-.174v.058c-31.18 31.211-38.359 77.365-22.757 116.681H64.3Zm177.888 59.3a29.649 29.649 0 1 0 0 59.3h177.888a29.649 29.649 0 1 0 0-59.3Zm255.419 266.827a47.37 47.37 0 0 1 34.338 14.3l.347.347 66.013 61.67 58.543-55.416h.405v-.405l6.37-6.022.289-.289a48.3 48.3 0 0 1 68.387 0h.058c18.582 18.6 18.9 48.383-1.216 69.893l-133.3 129.594-133.182-129.535v-.058c-20.191-21.51-19.881-51.267-1.274-69.893a47.35 47.35 0 0 1 34.222-14.186" data-name="_h1_free_favorite_package_icon__h1_" transform="translate(-5 -5)"/></g></svg>