<svg xmlns="http://www.w3.org/2000/svg"  viewBox="0 0 48 48" width="480px" height="480px" baseProfile="basic"><path fill="#ed2224" d="M28.027,44.112c-4.815,1.074-10.327-0.197-14.737-2.418c-0.682-0.343-1.35-0.723-1.945-1.202	c-1.367-1.099-4.399-3.938-5.352-6.178c-1.504-3.536-2.604-7.324-2.484-11.167c0.127-4.048,1.57-7.691,3.629-11.173	c2.675-3.12,5.846-5.614,9.644-7.16c6.522-2.655,14.505-1.203,19.689,3.581c1.827,1.686,3.301,3.716,4.739,5.747	c0.792,1.118,1.582,2.249,2.154,3.495c1.134,2.474,1.345,5.306,0.958,8.002c-0.387,2.696-1.347,5.278-2.472,7.756	c-0.362,0.797-0.744,1.59-1.257,2.298c-0.539,0.743-1.211,1.377-1.878,2.006C36.61,39.682,33.736,42.839,28.027,44.112z"/><path fill="#010101" d="M42.802,15.59c-2.42-3.807-5.291-7.671-9.261-9.96c-3.44-1.983-7.515-2.894-11.472-2.565	c-4.205,0.35-8.083,2.159-11.367,4.76C8.99,9.18,7.223,10.752,6.16,12.675c-1.094,1.98-2.008,4.08-2.56,6.278	c-1.185,4.716-0.406,9.511,1.305,13.994c0.368,0.965,0.738,1.933,1.304,2.802c0.518,0.793,1.126,1.531,1.762,2.231	c1.171,1.287,2.477,2.612,3.963,3.535c1.927,1.198,4.164,2.036,6.346,2.63c2.16,0.589,4.42,0.917,6.662,0.846	c1.082-0.034,2.159-0.168,3.217-0.396c3.637-0.831,6.754-2.649,9.469-5.173c1.277-1.187,2.69-2.364,3.641-3.836	c0.639-0.991,1.1-2.102,1.558-3.185c0.459-1.086,0.879-2.188,1.223-3.316C45.439,24.536,45.411,19.694,42.802,15.59z M43.77,25.955	c-0.374,2.234-1.126,4.391-2.029,6.462c-0.438,1.006-0.881,2.035-1.518,2.934c-0.581,0.822-1.34,1.496-2.065,2.186	c-2.202,2.097-4.441,4.038-7.305,5.185c-0.96,0.384-1.952,0.678-2.959,0.908c-4.204,0.907-8.649,0.071-12.575-1.551	c-1.78-0.735-3.364-1.644-4.783-2.947c-1.311-1.203-2.603-2.517-3.554-4.03c-0.536-0.853-0.885-1.805-1.234-2.745	c-0.403-1.084-0.756-2.187-1.04-3.308c-0.56-2.214-0.83-4.497-0.65-6.779c0.173-2.193,0.768-4.347,1.628-6.368	C6.11,14.904,6.6,13.934,7.13,12.989c0.534-0.953,1.282-1.719,2.056-2.484c2.848-2.818,6.393-5.11,10.326-6.034	c3.706-0.871,7.658-0.515,11.188,0.887c1.751,0.695,3.412,1.675,4.851,2.891c1.718,1.452,3.123,3.226,4.437,5.04	c1.337,1.846,2.763,3.714,3.44,5.921C44.095,21.384,44.144,23.722,43.77,25.955z"/><path fill="#d6e5e5" d="M19.843,17.7c-0.362,4.08-0.485,8.475-0.159,12.652c3.895-1.427,7.376-3.773,10.813-6.096	C27.367,22.166,22.842,19.378,19.843,17.7z"/><path fill="#010101" d="M30.75,23.825c-3.452-2.301-6.989-4.499-10.608-6.529c-0.041-0.024-0.083-0.043-0.13-0.054	c-0.254-0.092-0.484,0.034-0.595,0.234c-0.016,0.027-0.024,0.06-0.035,0.092c-0.011,0.031-0.022,0.06-0.027,0.092	c-0.002,0.015-0.011,0.025-0.012,0.041c-0.368,4.206-0.479,8.44-0.159,12.652c0.022,0.296,0.305,0.604,0.633,0.482	c3.951-1.467,7.461-3.8,10.933-6.146C31.07,24.472,31.073,24.04,30.75,23.825z M20.284,18.531c3.168,1.8,6.272,3.724,9.312,5.732	c-3.007,2.027-6.07,4.019-9.448,5.367C19.909,25.933,19.991,22.223,20.284,18.531z"/><path fill="#d6e5e5" d="M18.771,14.008c2.373-0.922,5.227-1.401,7.722-0.894c2.782,0.565,5.592,3.408,6.337,4.365 c2.038,2.616,2.559,6.172,2.079,9.454c-0.11,0.753-0.27,1.504-0.556,2.21c-0.741,1.827-2.276,3.226-3.943,4.279 c-1.561,0.986-3.297,1.731-5.124,1.992c-1.828,0.261-9.56-1.313-11.293-6.689c-0.577-1.79-1.302-3.531-1.159-5.407 C13.304,17.152,18.66,14.052,18.771,14.008z M13.915,15.116c-1.25,1.203-2.135,2.746-2.744,4.398 c-1.221,3.312-0.781,8.172,1.356,11.59c3.795,6.07,10.842,7.683,15.25,6.314c2.476-0.769,4.991-2.051,6.588-4.158 c0.521-0.688,0.922-1.464,1.301-2.245c1.038-2.14,1.822-4.452,1.822-6.847c0-9.136-6.992-11.834-7.754-12.203 c-3.741-1.812-8.154-2.069-11.852-0.165C16.353,12.587,15.166,13.913,13.915,15.116z"/><path fill="#010101" d="M33.134,17.063c-1.47-1.817-3.58-3.51-5.813-4.245c-1.429-0.471-3.033-0.489-4.514-0.32	c-1.411,0.161-3.021,0.437-4.301,1.084c-1.154,0.584-2.206,1.619-3.051,2.574c-1.782,2.014-2.894,4.474-3.121,7.161	c-0.099,1.704,0.431,3.304,0.964,4.897c0.366,1.094,0.765,2.1,1.477,3.021c1.291,1.67,3.136,2.805,5.071,3.586	c1.513,0.611,3.189,1.076,4.83,1.116c1.119,0.028,2.271-0.325,3.301-0.726c1.406-0.548,2.734-1.301,3.923-2.232	c1.166-0.913,2.198-2.04,2.808-3.404c0.614-1.373,0.814-2.942,0.859-4.435C35.655,22.292,34.953,19.314,33.134,17.063z M32.511,31.076c-1.802,1.944-4.661,3.588-7.327,3.85c-1.229,0.12-2.554-0.232-3.715-0.588c-1.987-0.608-3.945-1.589-5.39-3.11	c-0.784-0.825-1.318-1.775-1.674-2.851c-0.546-1.651-1.174-3.291-1.071-5.06c0.297-3.513,2.414-6.766,5.356-8.676	c0.498-0.324,1.078-0.471,1.646-0.635c1.444-0.416,2.944-0.645,4.449-0.591c2.654,0.095,4.819,1.493,6.672,3.307	c1.742,1.704,2.742,3.898,3.025,6.318C34.807,25.817,34.482,28.95,32.511,31.076z"/><path fill="#010101" d="M32.97,13.298c-3.541-2.745-8.488-4.038-12.847-2.89c-0.865,0.228-1.697,0.559-2.495,0.96	c-1.574,0.839-2.81,2.156-4.067,3.394c-1.264,1.245-2.165,2.772-2.798,4.421c-1.129,2.941-0.96,6.404,0.028,9.359	c1.867,5.585,7.289,9.517,13.134,9.814c2.781,0.142,5.543-0.729,7.898-2.186c3.11-1.924,4.862-5.309,5.741-8.78	C38.861,22.272,37.18,16.562,32.97,13.298z M35.906,29.247c-0.642,1.623-1.43,3.301-2.672,4.554c-1.9,1.917-4.799,3.258-7.491,3.518	c-5.173,0.5-10.39-2.323-12.98-6.791c-1.677-2.893-2.236-6.663-1.41-9.911c0.435-1.708,1.292-3.393,2.48-4.7	c1.238-1.362,2.667-2.814,4.299-3.685c4.268-2.148,9.383-1.304,13.309,1.205c3.682,2.353,5.56,6.413,5.545,10.732	C36.982,25.919,36.547,27.627,35.906,29.247z"/></svg>