<svg xmlns="http://www.w3.org/2000/svg" width="480" height="480" baseProfile="basic" viewBox="0 0 48 48"><path fill="#ed2224" d="M28.027 44.112c-4.815 1.074-10.327-.197-14.737-2.418-.682-.343-1.35-.723-1.945-1.202-1.367-1.099-4.399-3.938-5.352-6.178-1.504-3.536-2.604-7.324-2.484-11.167.127-4.048 1.57-7.691 3.629-11.173 2.675-3.12 5.846-5.614 9.644-7.16 6.522-2.655 14.505-1.203 19.689 3.581 1.827 1.686 3.301 3.716 4.739 5.747.792 1.118 1.582 2.249 2.154 3.495 1.134 2.474 1.345 5.306.958 8.002s-1.347 5.278-2.472 7.756c-.362.797-.744 1.59-1.257 2.298-.539.743-1.211 1.377-1.878 2.006-2.105 1.983-4.979 5.14-10.688 6.413"/><path fill="#010101" d="M42.802 15.59c-2.42-3.807-5.291-7.671-9.261-9.96a19.9 19.9 0 0 0-11.472-2.565c-4.205.35-8.083 2.159-11.367 4.76-1.712 1.355-3.479 2.927-4.542 4.85-1.094 1.98-2.008 4.08-2.56 6.278-1.185 4.716-.406 9.511 1.305 13.994.368.965.738 1.933 1.304 2.802.518.793 1.126 1.531 1.762 2.231 1.171 1.287 2.477 2.612 3.963 3.535 1.927 1.198 4.164 2.036 6.346 2.63 2.16.589 4.42.917 6.662.846a18 18 0 0 0 3.217-.396c3.637-.831 6.754-2.649 9.469-5.173 1.277-1.187 2.69-2.364 3.641-3.836.639-.991 1.1-2.102 1.558-3.185a34 34 0 0 0 1.223-3.316c1.389-4.549 1.361-9.391-1.248-13.495m.968 10.365c-.374 2.234-1.126 4.391-2.029 6.462-.438 1.006-.881 2.035-1.518 2.934-.581.822-1.34 1.496-2.065 2.186-2.202 2.097-4.441 4.038-7.305 5.185-.96.384-1.952.678-2.959.908-4.204.907-8.649.071-12.575-1.551-1.78-.735-3.364-1.644-4.783-2.947-1.311-1.203-2.603-2.517-3.554-4.03-.536-.853-.885-1.805-1.234-2.745a32 32 0 0 1-1.04-3.308c-.56-2.214-.83-4.497-.65-6.779.173-2.193.768-4.347 1.628-6.368.424-.998.914-1.968 1.444-2.913.534-.953 1.282-1.719 2.056-2.484 2.848-2.818 6.393-5.11 10.326-6.034 3.706-.871 7.658-.515 11.188.887a17.6 17.6 0 0 1 4.851 2.891c1.718 1.452 3.123 3.226 4.437 5.04 1.337 1.846 2.763 3.714 3.44 5.921.667 2.174.716 4.512.342 6.745"/><path fill="#d6e5e5" d="M19.843 17.7c-.362 4.08-.485 8.475-.159 12.652 3.895-1.427 7.376-3.773 10.813-6.096-3.13-2.09-7.655-4.878-10.654-6.556"/><path fill="#010101" d="M30.75 23.825c-3.452-2.301-6.989-4.499-10.608-6.529a.5.5 0 0 0-.13-.054c-.254-.092-.484.034-.595.234-.016.027-.024.06-.035.092q-.018.045-.027.092c-.002.015-.011.025-.012.041-.368 4.206-.479 8.44-.159 12.652.022.296.305.604.633.482 3.951-1.467 7.461-3.8 10.933-6.146a.508.508 0 0 0 0-.864m-10.466-5.294c3.168 1.8 6.272 3.724 9.312 5.732-3.007 2.027-6.07 4.019-9.448 5.367-.239-3.697-.157-7.407.136-11.099"/><path fill="#d6e5e5" d="M18.771 14.008c2.373-.922 5.227-1.401 7.722-.894 2.782.565 5.592 3.408 6.337 4.365 2.038 2.616 2.559 6.172 2.079 9.454-.11.753-.27 1.504-.556 2.21-.741 1.827-2.276 3.226-3.943 4.279-1.561.986-3.297 1.731-5.124 1.992-1.828.261-9.56-1.313-11.293-6.689-.577-1.79-1.302-3.531-1.159-5.407.47-6.166 5.826-9.266 5.937-9.31m-4.856 1.108c-1.25 1.203-2.135 2.746-2.744 4.398-1.221 3.312-.781 8.172 1.356 11.59 3.795 6.07 10.842 7.683 15.25 6.314 2.476-.769 4.991-2.051 6.588-4.158.521-.688.922-1.464 1.301-2.245 1.038-2.14 1.822-4.452 1.822-6.847 0-9.136-6.992-11.834-7.754-12.203-3.741-1.812-8.154-2.069-11.852-.165-1.529.787-2.716 2.113-3.967 3.316"/><path fill="#010101" d="M33.134 17.063c-1.47-1.817-3.58-3.51-5.813-4.245-1.429-.471-3.033-.489-4.514-.32-1.411.161-3.021.437-4.301 1.084-1.154.584-2.206 1.619-3.051 2.574-1.782 2.014-2.894 4.474-3.121 7.161-.099 1.704.431 3.304.964 4.897.366 1.094.765 2.1 1.477 3.021 1.291 1.67 3.136 2.805 5.071 3.586 1.513.611 3.189 1.076 4.83 1.116 1.119.028 2.271-.325 3.301-.726a15.5 15.5 0 0 0 3.923-2.232c1.166-.913 2.198-2.04 2.808-3.404.614-1.373.814-2.942.859-4.435.088-2.848-.614-5.826-2.433-8.077m-.623 14.013c-1.802 1.944-4.661 3.588-7.327 3.85-1.229.12-2.554-.232-3.715-.588-1.987-.608-3.945-1.589-5.39-3.11-.784-.825-1.318-1.775-1.674-2.851-.546-1.651-1.174-3.291-1.071-5.06.297-3.513 2.414-6.766 5.356-8.676.498-.324 1.078-.471 1.646-.635 1.444-.416 2.944-.645 4.449-.591 2.654.095 4.819 1.493 6.672 3.307 1.742 1.704 2.742 3.898 3.025 6.318.325 2.777 0 5.91-1.971 8.036"/><path fill="#010101" d="M32.97 13.298c-3.541-2.745-8.488-4.038-12.847-2.89-.865.228-1.697.559-2.495.96-1.574.839-2.81 2.156-4.067 3.394-1.264 1.245-2.165 2.772-2.798 4.421-1.129 2.941-.96 6.404.028 9.359 1.867 5.585 7.289 9.517 13.134 9.814 2.781.142 5.543-.729 7.898-2.186 3.11-1.924 4.862-5.309 5.741-8.78 1.297-5.118-.384-10.828-4.594-14.092m2.936 15.949c-.642 1.623-1.43 3.301-2.672 4.554-1.9 1.917-4.799 3.258-7.491 3.518-5.173.5-10.39-2.323-12.98-6.791-1.677-2.893-2.236-6.663-1.41-9.911.435-1.708 1.292-3.393 2.48-4.7 1.238-1.362 2.667-2.814 4.299-3.685 4.268-2.148 9.383-1.304 13.309 1.205 3.682 2.353 5.56 6.413 5.545 10.732-.004 1.75-.439 3.458-1.08 5.078"/></svg>