<svg xmlns="http://www.w3.org/2000/svg" width="640" height="200" aria-labelledby="t d" viewBox="0 0 640 200">
  <title id="t">byGOG Lab - Logo (Icons Tagline)</title>
  <desc id="d">Two-line wordmark with badge and icon-accented tagline; light/dark-aware.</desc>
  <style>
    :root { --fg:#f1f5f9; --fg-muted:#94a3b8; --acc:#22d3ee; --ring:#475569; }

    .word-a { fill:var(--fg); font:800 44px/1.1 "Outfit","Inter","Segoe UI",system-ui,-apple-system,sans-serif; letter-spacing:.3px }
    .word-b { fill:var(--acc); font:800 44px/1.1 "Outfit","Inter","Segoe UI",system-ui,-apple-system,sans-serif; letter-spacing:.3px }
    .tag    { fill:var(--fg-muted); font:600 17px/1.3 "Outfit","Inter","Segoe UI",system-ui,-apple-system,sans-serif; letter-spacing:.26px }
    .ring   { fill:none; stroke:var(--ring); stroke-width:6; stroke-linecap:round; stroke-linejoin:round }
    .mark   { fill:none; stroke:var(--fg);  stroke-width:10; stroke-linecap:round; stroke-linejoin:round }
    .ico    { fill:none; stroke:var(--fg-muted); stroke-width:2; stroke-linecap:round; stroke-linejoin:round }
  </style>
  <defs>
    <symbol id="badge" viewBox="0 0 136 136">
      <circle cx="68" cy="68" r="56" class="ring"/>
      <path d="M114 68a46 46 0 1 1-46-46m18 70h40" class="mark"/>
      <circle cx="112" cy="26" r="6" fill="var(--acc)"/>
    </symbol>
    <!-- Tagline icons -->
    <symbol id="ico-fast" viewBox="0 0 24 24">
      <path class="ico" d="M3 6h8M3 12h14M3 18h10"/>
    </symbol>
    <symbol id="ico-shield" viewBox="0 0 24 24">
      <path class="ico" d="M12 3l7 3v6c0 6-5 9-7 9s-7-3-7-9V6l7-3Z"/>
    </symbol>
    <symbol id="ico-bulb" viewBox="0 0 24 24">
      <circle class="ico" cx="12" cy="10" r="4"/>
      <path class="ico" d="M10 14h4M10.5 16h3M11 18h2"/>
    </symbol>
  </defs>
  <use href="#badge" width="160" height="160" transform="translate(40 20)"/>
  <g transform="translate(240 88)">
    <text class="word-a" y="0">byGOG</text>
    <text class="word-b" y="44">Lab</text>
    <rect x="2" y="54" width="164" height="4" rx="2" fill="var(--acc)" opacity=".65"/>
    <g transform="translate(0 84)">
      <use href="#ico-fast"   width="16" height="16" x="0"   y="-12"/>
      <text class="tag" x="24"  y="0">H&#305;zl&#305;</text>

      <use href="#ico-shield" width="16" height="16" x="112" y="-12"/>
      <text class="tag" x="136" y="0">G&#252;venli</text>

      <use href="#ico-bulb"   width="16" height="16" x="232" y="-12"/>
      <text class="tag" x="256" y="0">Yenilik&#231;i</text>
    </g>
  </g>
</svg>
