<svg xmlns="http://www.w3.org/2000/svg" width="1200" height="360" aria-labelledby="title desc" viewBox="0 0 1200 360"><title>byGOG Lab</title><desc>Seçilmiş bağlantılar için hafif ve hızlı PWA</desc><defs><linearGradient id="a" x1="0" x2="1" y1="0" y2="1"><stop offset="0%" stop-color="#0ea5e9"/><stop offset="60%" stop-color="#7c3aed"/><stop offset="100%" stop-color="#ef4444"/></linearGradient><filter id="b" width="140%" height="140%" x="-20%" y="-20%"><feDropShadow dx="0" dy="8" flood-color="#000" flood-opacity=".25" stdDeviation="12"/></filter></defs><rect width="1200" height="360" fill="url(#a)" rx="24"/><g filter="url(#b)"><rect width="1136" height="296" x="32" y="32" fill="rgba(255,255,255,0.1)" stroke="rgba(255,255,255,0.3)" rx="20"/></g><g transform="translate(72 86)"><circle cx="64" cy="64" r="64" fill="rgba(255,255,255,0.18)" stroke="rgba(255,255,255,0.35)"/><text x="64" y="74" fill="#fff" font-family="Segoe UI, Inter, system-ui, -apple-system" font-size="52" font-weight="700" text-anchor="middle">g</text></g><g font-family="Segoe UI, Inter, system-ui, -apple-system"><text fill="#fff" font-size="44" font-weight="800" transform="translate(220 116)">byGOG Lab</text><text y="44" fill="#f0f9ff" font-size="20" font-weight="500" transform="translate(220 116)">Seçilmiş bağlantılar • Tek sayfa • Hızlı PWA</text></g><g fill="#fff" font-family="Segoe UI, Inter, system-ui, -apple-system"><g transform="translate(220 204)"><circle cx="6" cy="6" r="6" fill="#22c55e"/><text x="20" y="11" font-size="18">Arama ile anında filtreleme</text></g><g transform="translate(220 232)"><circle cx="6" cy="6" r="6" fill="#22c55e"/><text x="20" y="11" font-size="18">Koyu/Açık tema</text></g><g transform="translate(220 260)"><circle cx="6" cy="6" r="6" fill="#22c55e"/><text x="20" y="11" font-size="18">Çevrimdışı kullanım (PWA)</text></g></g><g transform="translate(880 60)"><rect width="280" height="240" fill="rgba(255,255,255,0.12)" stroke="rgba(255,255,255,0.35)" rx="16"/><g transform="translate(12 14)"><rect width="256" height="30" fill="#111827" rx="8"/><circle cx="14" cy="15" r="5" fill="#ef4444"/><circle cx="32" cy="15" r="5" fill="#f59e0b"/><circle cx="50" cy="15" r="5" fill="#22c55e"/></g><g transform="translate(20 60)"><rect width="240" height="28" fill="#1f2937" rx="6"/><rect width="240" height="28" y="44" fill="#1f2937" rx="6"/><rect width="240" height="28" y="88" fill="#1f2937" rx="6"/><rect width="160" height="28" y="132" fill="#1f2937" rx="6"/><rect width="68" height="28" x="172" y="132" fill="#f59e0b" rx="6"/></g></g></svg>