<svg xmlns="http://www.w3.org/2000/svg" width="1200" height="360" viewBox="0 0 1200 360" role="img" aria-labelledby="title desc">
  <title id="title">byGOG Lab</title>
  <desc id="desc">Seçilmiş bağlantılar için hafif ve hızlı PWA</desc>
  <defs>
    <linearGradient id="g" x1="0" y1="0" x2="1" y2="1">
      <stop offset="0%" stop-color="#0ea5e9"/>
      <stop offset="60%" stop-color="#7c3aed"/>
      <stop offset="100%" stop-color="#ef4444"/>
    </linearGradient>
    <filter id="shadow" x="-20%" y="-20%" width="140%" height="140%">
      <feDropShadow dx="0" dy="8" stdDeviation="12" flood-color="#000" flood-opacity="0.25"/>
    </filter>
  </defs>
  <rect x="0" y="0" width="1200" height="360" rx="24" fill="url(#g)"/>
  <g filter="url(#shadow)">
    <rect x="32" y="32" width="1136" height="296" rx="20" fill="rgba(255,255,255,0.1)" stroke="rgba(255,255,255,0.3)"/>
  </g>
  <g transform="translate(72,86)">
    <circle cx="64" cy="64" r="64" fill="rgba(255,255,255,0.18)" stroke="rgba(255,255,255,0.35)"/>
    <text x="64" y="74" text-anchor="middle" font-family="Segoe UI, Inter, system-ui, -apple-system" font-size="52" font-weight="700" fill="#ffffff">g</text>
  </g>
  <g transform="translate(220,116)">
    <text x="0" y="0" font-family="Segoe UI, Inter, system-ui, -apple-system" font-size="44" font-weight="800" fill="#ffffff">byGOG Lab</text>
    <text x="0" y="44" font-family="Segoe UI, Inter, system-ui, -apple-system" font-size="20" font-weight="500" fill="#f0f9ff">Seçilmiş bağlantılar • Tek sayfa • Hızlı PWA</text>
  </g>
  <g transform="translate(220,204)" font-family="Segoe UI, Inter, system-ui, -apple-system" fill="#ffffff">
    <g transform="translate(0,0)"><circle r="6" cx="6" cy="6" fill="#22c55e"/><text x="20" y="11" font-size="18">Arama ile anında filtreleme</text></g>
    <g transform="translate(0,28)"><circle r="6" cx="6" cy="6" fill="#22c55e"/><text x="20" y="11" font-size="18">Koyu/Açık tema</text></g>
    <g transform="translate(0,56)"><circle r="6" cx="6" cy="6" fill="#22c55e"/><text x="20" y="11" font-size="18">Çevrimdışı kullanım (PWA)</text></g>
  </g>
  <g transform="translate(880,60)">
    <rect x="0" y="0" width="280" height="240" rx="16" fill="rgba(255,255,255,0.12)" stroke="rgba(255,255,255,0.35)"/>
    <g transform="translate(12,14)">
      <rect x="0" y="0" width="256" height="30" rx="8" fill="#111827"/>
      <circle cx="14" cy="15" r="5" fill="#ef4444"/>
      <circle cx="32" cy="15" r="5" fill="#f59e0b"/>
      <circle cx="50" cy="15" r="5" fill="#22c55e"/>
    </g>
    <g transform="translate(20,60)">
      <rect x="0" y="0" width="240" height="28" rx="6" fill="#1f2937"/>
      <rect x="0" y="44" width="240" height="28" rx="6" fill="#1f2937"/>
      <rect x="0" y="88" width="240" height="28" rx="6" fill="#1f2937"/>
      <rect x="0" y="132" width="160" height="28" rx="6" fill="#1f2937"/>
      <rect x="172" y="132" width="68" height="28" rx="6" fill="#f59e0b"/>
    </g>
  </g>
</svg>
