<svg xmlns="http://www.w3.org/2000/svg" width="1200" height="680" aria-labelledby="title desc" viewBox="0 0 1200 680"><title>byGOG Lab – Ekran Görüntüsü (Temsili)</title><desc>Arama alanı ve kart ızgarasıyla byGOG Lab arayüzünün sade temsili.</desc><defs><linearGradient id="a" x1="0" x2="1" y1="0" y2="1"><stop offset="0%" stop-color="#23272f"/><stop offset="100%" stop-color="#181c22"/></linearGradient><filter id="b" width="140%" height="140%" x="-20%" y="-20%"><feDropShadow dx="0" dy="10" flood-color="#000" flood-opacity=".25" stdDeviation="16"/></filter></defs><path fill="url(#a)" d="M0 0h1200v680H0z"/><g filter="url(#b)"><rect width="1120" height="600" x="40" y="40" fill="#23272f" stroke="#2d3440" rx="18"/></g><g transform="translate(56 56)"><rect width="1088" height="40" fill="#0b1220" rx="10"/><circle cx="20" cy="20" r="6" fill="#ef4444"/><circle cx="44" cy="20" r="6" fill="#f59e0b"/><circle cx="68" cy="20" r="6" fill="#22c55e"/><rect width="760" height="20" x="280" y="10" fill="#172033" rx="6"/></g><g transform="translate(80 120)"><rect width="1040" height="56" fill="#23272f" stroke="#2d3440" rx="12"/><circle cx="28" cy="28" r="10" fill="#a3bffa"/><rect width="420" height="20" x="52" y="18" fill="#2d3440" rx="6"/><rect width="120" height="20" x="900" y="18" fill="#2d3440" rx="6"/></g><rect width="220" height="20" fill="#ffe082" rx="6" transform="translate(80 196)"/><g transform="translate(80 232)"><rect width="140" height="24" fill="#1e293b" stroke="#2d3440" rx="8"/><path fill="#ffd34d" d="m16.4 1.2 2.4 3.6L23.6 6 20 9.6l.6 4.8-4.2-2.4-4.2 2.4.6-4.8L9.2 6 14 4.8z"/><text x="48" y="17" fill="#e6eaf1" font-family="Tektur, Segoe UI, Arial, sans-serif" font-size="12">Önerilenler</text></g><g font-family="Tektur, Segoe UI, Arial, sans-serif"><g transform="translate(80 268)"><rect width="320" height="72" fill="#23272f" stroke="#2d3440" rx="12"/><rect width="40" height="40" x="16" y="16" fill="#23272f" stroke="#2d3440" rx="8"/><rect width="160" height="16" x="72" y="18" fill="#a3bffa" opacity=".85" rx="6"/><rect width="120" height="12" x="72" y="40" fill="#2d3440" rx="6"/><rect width="48" height="32" x="256" y="20" fill="#0b1220" stroke="#2d3440" rx="8"/></g><g transform="translate(440 268)"><rect width="320" height="72" fill="#23272f" stroke="#2d3440" rx="12"/><rect width="40" height="40" x="16" y="16" fill="#23272f" stroke="#2d3440" rx="8"/><rect width="180" height="16" x="72" y="18" fill="#a3bffa" opacity=".85" rx="6"/><rect width="140" height="12" x="72" y="40" fill="#2d3440" rx="6"/><rect width="48" height="32" x="256" y="20" fill="#0b1220" stroke="#2d3440" rx="8"/></g><g transform="translate(800 268)"><rect width="320" height="72" fill="#23272f" stroke="#2d3440" rx="12"/><rect width="40" height="40" x="16" y="16" fill="#23272f" stroke="#2d3440" rx="8"/><rect width="200" height="16" x="72" y="18" fill="#a3bffa" opacity=".85" rx="6"/><rect width="160" height="12" x="72" y="40" fill="#2d3440" rx="6"/><rect width="48" height="32" x="256" y="20" fill="#0b1220" stroke="#2d3440" rx="8"/></g><g transform="translate(80 364)"><rect width="320" height="72" fill="#23272f" stroke="#2d3440" rx="12"/><rect width="40" height="40" x="16" y="16" fill="#23272f" stroke="#2d3440" rx="8"/><rect width="190" height="16" x="72" y="18" fill="#a3bffa" opacity=".85" rx="6"/><rect width="110" height="12" x="72" y="40" fill="#2d3440" rx="6"/><rect width="48" height="32" x="256" y="20" fill="#0b1220" stroke="#2d3440" rx="8"/></g><g transform="translate(440 364)"><rect width="320" height="72" fill="#23272f" stroke="#2d3440" rx="12"/><rect width="40" height="40" x="16" y="16" fill="#23272f" stroke="#2d3440" rx="8"/><rect width="160" height="16" x="72" y="18" fill="#a3bffa" opacity=".85" rx="6"/><rect width="130" height="12" x="72" y="40" fill="#2d3440" rx="6"/><rect width="48" height="32" x="256" y="20" fill="#0b1220" stroke="#2d3440" rx="8"/></g><g transform="translate(800 364)"><rect width="320" height="72" fill="#23272f" stroke="#2d3440" rx="12"/><rect width="40" height="40" x="16" y="16" fill="#23272f" stroke="#2d3440" rx="8"/><rect width="210" height="16" x="72" y="18" fill="#a3bffa" opacity=".85" rx="6"/><rect width="150" height="12" x="72" y="40" fill="#2d3440" rx="6"/><rect width="48" height="32" x="256" y="20" fill="#0b1220" stroke="#2d3440" rx="8"/></g></g></svg>